<?xml version="1.0" standalone="no"?>
<!DOCTYPE svg PUBLIC "-//W3C//DTD SVG 1.1//EN" "http://www.w3.org/Graphics/SVG/1.1/DTD/svg11.dtd" >
<svg xmlns="http://www.w3.org/2000/svg">
<metadata></metadata>
<defs>
<font id="notesesaregular" horiz-adv-x="1024" >
<font-face units-per-em="2048" ascent="1651" descent="-397" />
<missing-glyph horiz-adv-x="614" />
<glyph unicode="&#xfb01;" horiz-adv-x="1013" d="M41 920v65q0 39 39 39h63v195q0 256 236 256q31 0 62.5 -4.5t45.5 -8.5l17 -2q39 -8 39 -43v-82q0 -35 -39 -30q-53 6 -105 6q-82 0 -82 -99v-188h514q39 0 39 -39v-946q0 -39 -39 -39h-96q-39 0 -39 39v842h-379v-842q0 -39 -38 -39h-97q-39 0 -39 39v842h-63 q-39 0 -39 39zM696 1319v96q0 39 39 39h96q39 0 39 -39v-96q0 -39 -39 -39h-96q-39 0 -39 39z" />
<glyph unicode="&#xfb02;" horiz-adv-x="1013" d="M41 920v65q0 39 39 39h63v195q0 256 236 256q31 0 62.5 -4.5t45.5 -8.5l17 -2q39 -8 39 -43v-82q0 -35 -39 -30q-53 6 -105 6q-82 0 -82 -99v-188h166q39 0 39 -39v-65q0 -39 -39 -39h-166v-842q0 -39 -38 -39h-97q-39 0 -39 39v842h-63q-39 0 -39 39zM696 39v1376 q0 39 39 39h96q39 0 39 -39v-1376q0 -39 -39 -39h-96q-39 0 -39 39z" />
<glyph horiz-adv-x="0" />
<glyph horiz-adv-x="0" />
<glyph horiz-adv-x="682" />
<glyph unicode="&#xd;" horiz-adv-x="681" />
<glyph unicode=" "  horiz-adv-x="614" />
<glyph unicode="&#x09;" horiz-adv-x="614" />
<glyph unicode="&#xa0;" horiz-adv-x="614" />
<glyph unicode="!" horiz-adv-x="501" d="M143 39v137q0 39 39 39h137q39 0 39 -39v-137q0 -39 -39 -39h-137q-39 0 -39 39zM164 459v956q0 39 39 39h96q39 0 39 -39v-956q0 -39 -39 -39h-96q-39 0 -39 39z" />
<glyph unicode="&#x22;" horiz-adv-x="757" d="M123 971v444q0 39 39 39h117q39 0 38 -39v-444q0 -39 -38 -39h-117q-39 0 -39 39zM440 971v444q0 39 39 39h117q39 0 39 -39v-444q0 -39 -39 -39h-117q-39 0 -39 39z" />
<glyph unicode="#" d="M41 387v66q0 39 39 39h115v471h-115q-39 0 -39 38v66q0 39 39 39h115v309q0 39 38 39h97q39 0 39 -39v-309h286v309q0 39 39 39h97q39 0 38 -39v-309h115q39 0 39 -39v-66q0 -39 -39 -38h-115v-471h115q39 0 39 -39v-66q0 -39 -39 -39h-115v-309q0 -39 -38 -39h-97 q-39 0 -39 39v309h-286v-309q0 -39 -39 -39h-97q-39 0 -38 39v309h-115q-39 0 -39 39zM369 492h286v471h-286v-471z" />
<glyph unicode="$" d="M123 63v95q0 37 39 30q178 -45 299 -45q266 0 266 230v61q0 96 -46 141.5t-149 81.5l-133 48q-123 43 -194.5 118.5t-71.5 225.5v51q0 154 82 248t225 118v195q0 39 39 39h96q39 0 39 -39v-188q55 -4 112.5 -12.5t86.5 -14.5l29 -6q39 -6 39 -41v-90q0 -33 -39 -31 q-156 33 -289 33q-246 0 -246 -211v-51q0 -125 164 -183l131 -47q139 -49 219 -133t80 -252v-61q0 -324 -287 -381v-199q0 -39 -39 -39h-96q-39 0 -39 39v187q-66 2 -135 13t-106 19l-37 11q-39 6 -39 40z" />
<glyph unicode="%" horiz-adv-x="2078" d="M143 1044v62q0 174 95.5 271.5t269.5 97.5t268 -97.5t94 -271.5v-62q0 -174 -94 -271t-268 -97t-269.5 97t-95.5 271zM317 1044q0 -96 45.5 -155.5t145.5 -59.5q98 0 143 59.5t45 155.5v62q0 215 -188 215q-98 0 -144.5 -59.5t-46.5 -155.5v-62zM606 39l670 1378 q18 37 45 37h123q16 0 24 -13.5t2 -25.5l-669 -1378q-18 -37 -45 -37h-123q-16 0 -24.5 13.5t-2.5 25.5zM1208 348v62q0 174 95.5 271t269.5 97t268 -97t94 -271v-62q0 -174 -94 -271t-268 -97t-269.5 97t-95.5 271zM1382 348q0 -96 45.5 -155.5t145.5 -59.5q98 0 143 59.5 t45 155.5v62q0 215 -188 215q-98 0 -144.5 -59.5t-46.5 -155.5v-62z" />
<glyph unicode="&#x26;" horiz-adv-x="1337" d="M143 328v102q0 190 252 356q-51 51 -79.5 87t-54 92.5t-25.5 113.5v72q0 152 93 238t251 86q152 0 248 -87.5t96 -236.5v-61q0 -57 -15.5 -103.5t-57.5 -92.5t-72.5 -72.5t-102.5 -84.5l270 -284q27 100 27 243v105q0 39 39 39h96q39 0 39 -39v-105q0 -219 -70 -385 l250 -262q10 -10 10 -22q0 -27 -30 -27h-152q-25 0 -61 37l-111 119q-152 -176 -401 -176q-190 0 -314.5 86t-124.5 262zM317 328q0 -94 75 -144.5t190 -50.5q186 1 288 146l-370 399q-98 -72 -140.5 -125t-42.5 -123v-102zM410 1079q0 -16 4 -32.5t16 -36t20.5 -32.5 t29 -34.5t28.5 -31t32.5 -34t28.5 -30.5q94 74 137.5 128.5t43.5 113.5v61q0 74 -49.5 117t-120.5 43q-80 0 -125 -42t-45 -118v-72z" />
<glyph unicode="'" horiz-adv-x="440" d="M123 971v444q0 39 39 39h117q39 0 38 -39v-444q0 -39 -38 -39h-117q-39 0 -39 39z" />
<glyph unicode="(" horiz-adv-x="583" d="M143 225v1004q0 205 82 307t299 102q39 0 39 -36v-70q0 -37 -39 -37q-106 0 -156.5 -60.5t-50.5 -205.5v-1004q0 -143 50.5 -204.5t156.5 -61.5q39 0 39 -37v-69q0 -37 -39 -37q-217 0 -299 102t-82 307z" />
<glyph unicode=")" horiz-adv-x="583" d="M20 -78q0 37 39 37q106 0 156.5 61.5t50.5 204.5v1004q0 145 -50 205.5t-157 60.5q-39 0 -39 37v70q0 37 39 36q217 0 299 -102t82 -307v-1004q0 -205 -82 -307t-299 -102q-39 0 -39 37v69z" />
<glyph unicode="*" horiz-adv-x="1026" d="M143 1225l47 73q23 33 54 13l188 -117v221q0 39 39 39h86q39 0 39 -39v-221l188 117q31 20 54 -13l45 -73q20 -31 -13 -54l-231 -145l186 -201q25 -25 -4 -53l-63 -59q-29 -29 -56 2l-188 205l-188 -205q-29 -31 -56 -4l-63 59q-29 29 -6 53l186 203l-231 145 q-33 23 -13 54z" />
<glyph unicode="+" d="M123 684v76q0 39 39 39h268v288q0 39 39 39h86q39 0 39 -39v-288h268q39 0 39 -39v-76q0 -39 -39 -39h-268v-289q0 -39 -39 -39h-86q-39 0 -39 39v289h-268q-39 0 -39 39z" />
<glyph unicode="," horiz-adv-x="460" d="M123 39v137q0 39 39 39h137q39 0 39 -39v-156l-53 -286q-8 -41 -41 -41h-64q-37 0 -30 41l34 266h-22q-39 0 -39 39z" />
<glyph unicode="-" horiz-adv-x="696" d="M123 684v76q0 39 39 39h373q39 0 38 -39v-76q0 -39 -38 -39h-373q-39 0 -39 39z" />
<glyph unicode="." horiz-adv-x="460" d="M123 39v137q0 39 39 39h137q39 0 39 -39v-137q0 -39 -39 -39h-137q-39 0 -39 39z" />
<glyph unicode="/" horiz-adv-x="768" d="M94 41l398 1376q10 37 47 37h106q16 0 24.5 -12.5t4.5 -28.5l-398 -1376q-10 -37 -47 -37h-106q-16 0 -24.5 12.5t-4.5 28.5z" />
<glyph unicode="0" d="M123 410v634q0 205 100.5 318t288.5 113t288.5 -113t100.5 -318v-634q0 -205 -100.5 -317.5t-288.5 -112.5t-288.5 112.5t-100.5 317.5zM297 410q0 -123 54.5 -195t160.5 -72t160.5 72t54.5 195v634q0 123 -54.5 195t-160.5 72t-160.5 -72t-54.5 -195v-634z" />
<glyph unicode="1" d="M115 1219v94q0 25 39 39l309 102h135q39 0 39 -39v-1251h248q39 0 39 -39v-86q0 -39 -39 -39h-711q-39 0 -39 39v86q0 39 39 39h289v1102l-313 -76q-35 -10 -35 29z" />
<glyph unicode="2" d="M137 39v293q0 100 32 178t82 124t111.5 83t123 65.5t111.5 60t82 78t32 107.5v72q0 211 -246 211q-59 0 -131 -8.5t-115 -16.5l-43 -8q-39 -4 -39 29v94q0 31 39 39q135 35 293 35q201 0 308.5 -95.5t107.5 -279.5v-72q0 -125 -59.5 -209t-143.5 -128t-168 -83 t-143.5 -106.5t-59.5 -169.5v-168h535q39 0 39 -39v-86q0 -39 -39 -39h-670q-39 0 -39 39z" />
<glyph unicode="3" d="M127 59v93q0 31 39 26q178 -35 295 -35q125 0 192.5 61.5t67.5 170.5v88q0 211 -246 211h-207q-39 0 -39 39v86q0 39 39 39h166q246 0 246 211v45q0 106 -60.5 161.5t-170.5 55.5q-51 0 -122 -8.5t-116 -16.5l-45 -10q-39 -4 -39 29v92q0 33 39 39q121 39 287 39 q401 0 401 -381v-45q0 -188 -141 -281q182 -88 182 -305v-88q0 -395 -430 -395q-72 0 -146.5 10t-113.5 18l-39 10q-39 10 -39 41z" />
<glyph unicode="4" d="M31 367v125l372 923q16 39 54 39h133q16 0 22 -12t0 -29l-391 -921h404v493q0 39 39 39h96q39 0 39 -39v-493h155q39 0 39 -39v-86q0 -39 -39 -39h-155v-289q0 -39 -39 -39h-96q-39 0 -39 39v289h-555q-39 0 -39 39z" />
<glyph unicode="5" d="M133 57v90q0 35 39 31q172 -35 295 -35q125 0 192.5 61.5t67.5 170.5v176q0 88 -43 141t-131 53q-59 0 -131 -28.5t-115 -57.5l-41 -26h-94q-39 0 -39 39v743q0 39 39 39h690q39 0 39 -39v-86q0 -39 -39 -39h-555v-471q127 90 266 90q328 0 328 -358v-176 q0 -197 -111.5 -296t-318.5 -99q-70 0 -144.5 10t-113.5 18l-41 10q-39 8 -39 39z" />
<glyph unicode="6" d="M123 369v635q0 231 118.5 351t331.5 120q47 0 108.5 -7.5t100.5 -13.5l39 -8q39 -4 39 -39v-96q0 -33 -39 -29q-162 29 -248 29q-143 0 -209.5 -88t-66.5 -219v-199q133 104 276 104q164 0 246 -91t82 -257v-192q0 -186 -101.5 -287.5t-287.5 -101.5q-184 0 -286.5 101 t-102.5 288zM297 375q0 -104 52 -168t163 -64q109 0 162 64t53 168v180q0 190 -174 190q-106 0 -256 -88v-282z" />
<glyph unicode="7" d="M82 1329v86q0 39 39 39h772q39 0 39 -39v-125l-502 -1253q-14 -37 -47 -37h-131q-16 0 -25.5 12.5t-3.5 28.5l525 1249h-627q-39 0 -39 39z" />
<glyph unicode="8" d="M102 348v123q0 205 162 293q-141 84 -141 280v82q0 178 104.5 263.5t284.5 85.5q178 0 283.5 -85t105.5 -264v-82q0 -197 -141 -280q162 -88 162 -293v-123q0 -180 -113 -274t-297 -94t-297 94t-113 274zM276 348q0 -98 63.5 -156.5t172.5 -58.5t172.5 58.5t63.5 156.5 v123q0 98 -62.5 156.5t-173.5 58.5t-173.5 -58.5t-62.5 -156.5v-123zM297 1044q0 -205 215 -205t215 205v82q0 195 -215 195t-215 -195v-82z" />
<glyph unicode="9" d="M123 913v172q0 186 101.5 288t287.5 102q184 0 286.5 -101.5t102.5 -288.5v-655q0 -451 -430 -450q-49 0 -110.5 7t-98.5 13l-39 8q-39 4 -39 39v94q0 35 39 31q166 -29 248 -29q256 0 256 287v232q-137 -96 -276 -97q-164 0 -246 91.5t-82 256.5zM297 920 q0 -190 174 -191q96 0 256 82v268q0 104 -52 168t-163 64q-109 0 -162 -63.5t-53 -168.5v-159z" />
<glyph unicode=":" horiz-adv-x="460" d="M123 39v137q0 39 39 39h137q39 0 39 -39v-137q0 -39 -39 -39h-137q-39 0 -39 39zM123 848v137q0 39 39 39h137q39 0 39 -39v-137q0 -39 -39 -39h-137q-39 0 -39 39z" />
<glyph unicode=";" horiz-adv-x="460" d="M123 39v137q0 39 39 39h137q39 0 39 -39v-156l-53 -286q-8 -41 -41 -41h-64q-37 0 -30 41l34 266h-22q-39 0 -39 39zM123 848v137q0 39 39 39h137q39 0 39 -39v-137q0 -39 -39 -39h-137q-39 0 -39 39z" />
<glyph unicode="&#x3c;" d="M123 674v96q0 29 35 45l702 324q16 8 28.5 -0.5t12.5 -24.5v-100q0 -27 -39 -43l-567 -248l567 -250q39 -16 39 -43v-100q0 -16 -12 -24.5t-29 -0.5l-702 324q-35 18 -35 45z" />
<glyph unicode="=" d="M123 530v76q0 39 39 39h700q39 0 39 -39v-76q0 -39 -39 -38h-700q-39 0 -39 38zM123 838v75q0 39 39 39h700q39 0 39 -39v-75q0 -39 -39 -39h-700q-39 0 -39 39z" />
<glyph unicode="&#x3e;" d="M123 330v100q0 27 39 43l567 250l-567 248q-39 16 -39 43v100q0 16 12 24.5t29 0.5l702 -324q35 -16 35 -45v-96q0 -27 -35 -45l-702 -324q-16 -8 -28.5 0t-12.5 25z" />
<glyph unicode="?" horiz-adv-x="849" d="M82 1315v88q0 35 39 41q115 31 252 31q354 0 354 -332v-31q0 -98 -32.5 -158.5t-94.5 -115.5l-55 -50q-55 -49 -80 -100t-25 -135v-94q0 -39 -39 -39h-96q-39 0 -39 39v94q0 135 38 212t108 136l59 51q82 72 82 160v31q0 90 -45 129t-139 39q-51 0 -113.5 -6.5 t-99.5 -12.5l-39 -6q-35 -4 -35 29zM246 39v137q0 39 39 39h137q39 0 39 -39v-137q0 -39 -39 -39h-137q-39 0 -39 39z" />
<glyph unicode="@" horiz-adv-x="1986" d="M143 410v204q0 381 222.5 621t627.5 240q412 0 631 -212t219 -587v-103q0 -274 -105.5 -423.5t-308 -149.5t-280.5 160q-154 -139 -299 -140q-139 0 -210 74t-71 201q0 51 9 94l53 307q57 328 385 328q68 0 150.5 -10t131.5 -23l50 -10q37 -8 30 -41l-82 -489 q-8 -41 -8 -95q0 -203 144 -202q104 0 160.5 112.5t56.5 306.5v103q0 123 -34 228.5t-106.5 197.5t-205 145t-310.5 53q-143 0 -257.5 -41.5t-187.5 -110.5t-122 -160t-68.5 -184t-19.5 -190v-204q0 -96 19.5 -185.5t68.5 -174.5t122 -147.5t187.5 -100.5t257.5 -38h238 q39 0 39 -38v-97q0 -39 -39 -39h-238q-410 0 -630 221.5t-220 598.5zM741 309q0 -135 136 -135q98 0 241 92q-6 37 -6 76q0 43 10 109l68 399q-96 20 -170 20q-186 0 -219 -194l-53 -307q-6 -31 -7 -60z" />
<glyph unicode="A" horiz-adv-x="1136" d="M33 39l436 1376q10 39 45 39h109q35 0 45 -39l436 -1376q2 -8 2 -14q0 -25 -31 -25h-112q-33 0 -43 39l-76 248h-551l-76 -248q-10 -39 -43 -39h-113q-30 0 -30 24q0 6 2 15zM344 451h449l-224 723z" />
<glyph unicode="B" horiz-adv-x="1167" d="M143 39v1376q0 39 39 39h371q451 0 451 -399q0 -217 -177 -310q217 -89 217 -335q0 -211 -112.5 -310.5t-337.5 -99.5h-412q-39 0 -39 39zM317 164h277q276 0 276 245.5t-276 245.5h-277v-491zM317 819h236q276 0 276 235.5t-276 235.5h-236v-471z" />
<glyph unicode="C" horiz-adv-x="911" d="M143 451v553q0 215 108.5 343t326.5 128q49 0 103 -6.5t83 -10.5l29 -6q37 -10 36 -39v-90q0 -35 -38 -31q-115 18 -207 19q-135 0 -201 -88t-66 -219v-553q0 -131 66 -219.5t201 -88.5q37 0 88 4.5t86 8.5l33 6q39 4 38 -31v-92q0 -31 -36 -39q-113 -20 -215 -20 q-215 0 -325 128t-110 343z" />
<glyph unicode="D" horiz-adv-x="1187" d="M143 39v1376q0 39 39 39h412q225 0 337.5 -128t112.5 -343v-512q0 -215 -112.5 -343t-337.5 -128h-412q-39 0 -39 39zM317 164h277q141 0 208.5 88t67.5 219v512q0 131 -67.5 219t-208.5 88h-277v-1126z" />
<glyph unicode="E" horiz-adv-x="972" d="M143 39v1376q0 39 39 39h649q39 0 39 -39v-86q0 -39 -39 -39h-514v-471h474q39 0 38 -39v-86q0 -39 -38 -39h-474v-491h514q39 0 39 -39v-86q0 -39 -39 -39h-649q-39 0 -39 39z" />
<glyph unicode="F" horiz-adv-x="972" d="M143 39v1376q0 39 39 39h649q39 0 39 -39v-86q0 -39 -39 -39h-514v-471h474q39 0 38 -39v-86q0 -39 -38 -39h-474v-616q0 -39 -38 -39h-97q-39 0 -39 39z" />
<glyph unicode="G" horiz-adv-x="1187" d="M143 451v512q0 242 123 377t369 135q82 0 165 -12.5t126 -24.5l41 -11q37 -10 37 -38v-93q0 -37 -39 -30q-184 45 -330 45q-162 0 -240 -95.5t-78 -252.5v-512q0 -131 68 -219.5t209 -88.5q76 0 145.5 14.5t100.5 28.5l30 15v434h-268q-39 0 -39 39v86q0 39 39 39h404 q39 0 38 -39v-658q-6 -4 -17 -13t-51 -29.5t-88 -37t-127 -29.5t-167 -13q-225 0 -338 128t-113 343z" />
<glyph unicode="H" horiz-adv-x="1187" d="M143 39v1376q0 39 39 39h97q39 0 38 -39v-596h553v596q0 39 39 39h97q39 0 38 -39v-1376q0 -39 -38 -39h-97q-39 0 -39 39v616h-553v-616q0 -39 -38 -39h-97q-39 0 -39 39z" />
<glyph unicode="I" horiz-adv-x="911" d="M61 39v65q0 39 39 39h269v1168h-269q-39 0 -39 39v65q0 39 39 39h711q39 0 39 -39v-65q0 -39 -39 -39h-268v-1168h268q39 0 39 -39v-65q0 -39 -39 -39h-711q-39 0 -39 39z" />
<glyph unicode="J" horiz-adv-x="727" d="M61 39v86q0 39 39 39h43q133 0 200 80t67 207v964q0 39 39 39h96q39 0 39 -39v-964q0 -451 -430 -451h-54q-39 0 -39 39z" />
<glyph unicode="K" horiz-adv-x="1064" d="M143 39v1376q0 39 39 39h97q39 0 38 -39v-1376q0 -39 -38 -39h-97q-39 0 -39 39zM338 758l455 657q27 39 53 39h127q16 0 24.5 -13.5t-2.5 -27.5l-452 -655l475 -717q6 -8 6 -15q0 -6 -4 -12q-8 -14 -25 -14h-127q-29 0 -53 37z" />
<glyph unicode="L" horiz-adv-x="952" d="M143 39v1376q0 39 39 39h97q39 0 38 -39v-1251h514q39 0 39 -39v-86q0 -39 -39 -39h-649q-39 0 -39 39z" />
<glyph unicode="M" horiz-adv-x="1505" d="M143 39v1376q0 39 39 39h123q33 0 47 -37l402 -1042l399 1042q14 37 47 37h123q39 0 39 -39v-1376q0 -39 -39 -39h-96q-39 0 -39 39v1024l-334 -860q-16 -39 -47 -39h-109q-31 0 -47 39l-334 860v-1024q0 -39 -38 -39h-97q-39 0 -39 39z" />
<glyph unicode="N" horiz-adv-x="1187" d="M143 39v1376q0 39 39 39h107q31 0 47 -35l534 -1038v1034q0 39 39 39h97q39 0 38 -39v-1376q0 -39 -38 -39h-109q-29 0 -47 39l-533 1034v-1034q0 -39 -38 -39h-97q-39 0 -39 39z" />
<glyph unicode="O" horiz-adv-x="1187" d="M143 451v553q0 215 113 343t338 128t337.5 -128t112.5 -343v-553q0 -215 -112.5 -343t-337.5 -128t-338 128t-113 343zM317 451q0 -131 68 -219.5t209 -88.5t208.5 88.5t67.5 219.5v553q0 131 -67.5 219t-208.5 88t-209 -88t-68 -219v-553z" />
<glyph unicode="P" horiz-adv-x="1126" d="M143 39v1376q0 39 39 39h371q221 0 336 -107.5t115 -312.5t-115 -312.5t-336 -107.5h-236v-575q0 -39 -38 -39h-97q-39 0 -39 39zM317 778h236q135 0 205.5 67.5t70.5 188.5t-70.5 188.5t-205.5 67.5h-236v-512z" />
<glyph unicode="Q" horiz-adv-x="1187" d="M143 451v553q0 215 113 343t338 128t337.5 -128t112.5 -343v-553q0 -190 -89 -315.5t-269 -149.5v-123q0 -57 28.5 -88t80.5 -31q23 0 139 12q39 4 39 -28v-80q0 -35 -39 -41q-115 -16 -176 -17q-246 0 -246 277v117q-184 25 -276.5 148.5t-92.5 318.5zM317 451 q0 -131 68 -219.5t209 -88.5t208.5 88.5t67.5 219.5v553q0 131 -67.5 219t-208.5 88t-209 -88t-68 -219v-553z" />
<glyph unicode="R" horiz-adv-x="1126" d="M143 39v1376q0 39 39 39h371q221 0 336 -107.5t115 -312.5q0 -346 -312 -407l350 -588q4 -7 4 -13q0 -8 -5 -14q-9 -12 -25 -12h-127q-25 0 -51 39l-342 575h-179v-575q0 -39 -38 -39h-97q-39 0 -39 39zM317 778h236q135 0 205.5 67.5t70.5 188.5t-70.5 188.5 t-205.5 67.5h-236v-512z" />
<glyph unicode="S" horiz-adv-x="1013" d="M113 63v95q0 37 39 30q178 -45 299 -45q266 0 266 230v61q0 96 -46 141.5t-149 81.5l-133 48q-125 45 -195.5 119.5t-70.5 224.5v51q0 182 113.5 278.5t302.5 96.5q68 0 140.5 -8.5t111.5 -16.5l40 -10q39 -8 39 -41v-90q0 -33 -39 -31q-156 33 -288 33q-246 0 -246 -211 v-51q0 -125 164 -183l131 -47q139 -49 219 -133t80 -252v-61q0 -393 -424 -393q-70 0 -148.5 10t-121.5 22l-45 11q-39 8 -39 40z" />
<glyph unicode="T" horiz-adv-x="1064" d="M82 1329v86q0 39 39 39h823q39 0 39 -39v-86q0 -39 -39 -39h-323v-1251q0 -39 -39 -39h-97q-39 0 -39 39v1251h-325q-39 0 -39 39z" />
<glyph unicode="U" horiz-adv-x="1187" d="M143 451v964q0 39 39 39h97q39 0 38 -39v-964q0 -131 68 -219.5t209 -88.5t208.5 88t67.5 220v964q0 39 39 39h97q39 0 38 -39v-964q0 -215 -112.5 -343t-337.5 -128t-338 128t-113 343z" />
<glyph unicode="V" horiz-adv-x="1085" d="M33 1413q-1 5 -1 10q0 11 6 19q9 12 25 12h111q31 0 41 -37l328 -1147l327 1147q10 37 41 37h111q16 0 26 -12q7 -9 6 -20q0 -4 -1 -9l-400 -1372q-10 -41 -45 -41h-131q-35 0 -45 41z" />
<glyph unicode="W" horiz-adv-x="1863" d="M72 1413q-1 5 -1 10q0 11 5 19q8 12 24 12h113q31 0 41 -35l276 -1136l289 1132q10 39 45 39h135q35 0 45 -39l289 -1132l277 1136q10 35 41 35h110q15 0 25 -12q7 -9 7 -20q0 -4 -1 -9l-342 -1374q-10 -39 -45 -39h-127q-35 0 -45 39l-301 1128l-301 -1128 q-10 -39 -45 -39h-127q-35 0 -45 39z" />
<glyph unicode="X" horiz-adv-x="1146" d="M43 39l408 704l-388 672q-8 14 0.5 26.5t24.5 12.5h127q33 0 49 -31l309 -530l310 530q16 31 49 31h127q16 0 24.5 -12t-0.5 -27l-387 -672l408 -704q4 -7 4 -13q0 -8 -4 -14q-8 -12 -25 -12h-127q-33 0 -49 31l-330 565l-329 -565q-16 -31 -49 -31h-127q-16 0 -24 12 q-4 6 -5 14q0 6 4 13z" />
<glyph unicode="Y" horiz-adv-x="1075" d="M39 1413q-4 7 -4 13q0 7 5 14q9 14 26 14h116q33 0 49 -39l308 -708l305 708q16 39 49 39h117q16 0 25 -14q5 -7 5 -14q0 -6 -4 -13l-411 -911v-463q0 -39 -39 -39h-97q-39 0 -38 39v463z" />
<glyph unicode="Z" horiz-adv-x="890" d="M82 39v125l518 1126h-479q-39 0 -39 39v86q0 39 39 39h649q39 0 39 -39v-125l-518 -1126h479q39 0 39 -39v-86q0 -39 -39 -39h-649q-39 0 -39 39z" />
<glyph unicode="[" horiz-adv-x="583" d="M143 -145v1744q0 39 39 39h342q39 0 39 -39v-65q0 -39 -39 -39h-207v-1536h207q39 0 39 -39v-65q0 -39 -39 -39h-342q-39 0 -39 39z" />
<glyph unicode="\" horiz-adv-x="768" d="M94 1413q-4 16 4 28.5t25 12.5h106q37 0 47 -37l398 -1376q4 -16 -4 -28.5t-25 -12.5h-106q-37 0 -47 37z" />
<glyph unicode="]" horiz-adv-x="583" d="M20 -80q0 39 39 39h207v1536h-207q-39 0 -39 39v65q0 39 39 39h342q39 0 39 -39v-1744q0 -39 -39 -39h-342q-39 0 -39 39v65z" />
<glyph unicode="^" horiz-adv-x="993" d="M143 920l256 495q18 39 45 39h103q27 0 47 -39l256 -495q8 -14 0 -26.5t-25 -12.5h-98q-27 0 -45 39l-186 372l-185 -372q-20 -39 -45 -39h-98q-16 0 -24.5 12t-0.5 27z" />
<glyph unicode="_" horiz-adv-x="983" d="M0 -274q0 39 39 38h905q39 0 39 -38v-76q0 -39 -39 -39h-905q-39 0 -39 39v76z" />
<glyph unicode="`" horiz-adv-x="622" d="M139.5 1200q-6.5 12 3.5 27l136 209q27 39 55 39h127q16 0 22 -12.5t-4 -26.5l-145 -209q-27 -39 -55 -39h-117q-16 0 -22.5 12z" />
<glyph unicode="a" horiz-adv-x="972" d="M102 276q0 311 344 312l209 -10v108q0 195 -184 195q-59 0 -125.5 -8.5t-103.5 -16.5l-39 -8q-39 -8 -39 33v77q0 33 39 43q117 43 284 43q178 0 260 -89t82 -269v-647q0 -39 -38 -39h-97q-39 0 -39 39v22q-120 -81 -242 -81h-3q-147 0 -227.5 76.5t-80.5 219.5zM276 276 q0 -143 154 -143q90 0 225 70v237h-204q-92 0 -133.5 -40t-41.5 -124z" />
<glyph unicode="b" horiz-adv-x="1013" d="M143 39v1376q0 39 39 39h97q39 0 38 -39v-440q111 69 223 69h3q164 0 245.5 -91t81.5 -257v-368q0 -328 -348 -328h-340q-39 0 -39 39zM317 154h185q194 0 194 174v368q0 88 -43 141.5t-131 53.5q-82 0 -205 -60v-677z" />
<glyph unicode="c" horiz-adv-x="798" d="M143 348v328q0 174 92.5 271t266.5 97q43 0 87 -4t66 -8l23 -6q39 -2 39 -43v-84q0 -35 -41 -31q-84 12 -164 13q-100 0 -147.5 -55.5t-47.5 -149.5v-328q0 -205 195 -205l168 13q37 4 37 -31v-84q0 -35 -39 -43q-92 -18 -176 -18q-174 0 -266.5 97t-92.5 271z" />
<glyph unicode="d" horiz-adv-x="1013" d="M143 328v368q0 166 82 257t246 91q115 0 225 -61v432q0 39 39 39h96q39 0 39 -39v-1376q0 -39 -39 -39h-96q-39 0 -39 39v10q-111 -69 -222 -69h-3q-164 0 -246 91t-82 257zM317 328q0 -88 43 -141.5t132 -53.5q81 1 204 60v647q-123 51 -204 51q-88 0 -131.5 -53.5 t-43.5 -141.5v-368z" />
<glyph unicode="e" horiz-adv-x="972" d="M123 475v86q0 231 92 357t283 126q180 0 266 -115.5t86 -307.5v-132q0 -39 -39 -38h-514q6 -311 246 -312q43 0 100 6.5t92 14.5l35 6q39 4 39 -33v-86q0 -31 -39 -41q-121 -26 -225 -26h-8q-193 0 -303.5 120.5t-110.5 374.5zM297 588h385v39q0 270 -182 270 q-115 0 -158 -80t-45 -229z" />
<glyph unicode="f" horiz-adv-x="583" d="M41 920v65q0 39 39 39h104v195q0 256 236 256q31 0 62.5 -4.5t45.5 -8.5l17 -2q39 -8 39 -43v-82q0 -35 -39 -30q-53 6 -105 6q-82 0 -82 -99v-188h146q39 0 39 -39v-65q0 -39 -39 -39h-146v-842q0 -39 -39 -39h-96q-39 0 -39 39v842h-104q-39 0 -39 39z" />
<glyph unicode="g" horiz-adv-x="1013" d="M143 369v327q0 166 88 257t261 91q96 0 339 -34q39 -6 39 -39v-1022q0 -186 -79.5 -272.5t-262.5 -86.5q-72 0 -148.5 10.5t-117.5 18.5l-41 10q-37 8 -37 39v86q0 39 37 35q170 -35 291 -35q184 0 184 195v141q-113 -70 -225 -70q-164 0 -246 91.5t-82 257.5zM317 369 q0 -88 43 -141.5t132 -53.5q81 0 204 59v639q-115 18 -184 19q-98 0 -146.5 -53.5t-48.5 -141.5v-327z" />
<glyph unicode="h" horiz-adv-x="1013" d="M143 39v1376q0 39 39 39h97q39 0 38 -39v-463q117 92 263 92q156 0 223 -89t67 -259v-657q0 -39 -39 -39h-96q-39 0 -39 39v657q0 90 -32.5 136.5t-122.5 46.5q-92 0 -224 -76v-764q0 -39 -38 -39h-97q-39 0 -39 39z" />
<glyph unicode="i" horiz-adv-x="460" d="M143 39v946q0 39 39 39h97q39 0 38 -39v-946q0 -39 -38 -39h-97q-39 0 -39 39zM143 1319v96q0 39 39 39h97q39 0 38 -39v-96q0 -39 -38 -39h-97q-39 0 -39 39z" />
<glyph unicode="j" horiz-adv-x="460" d="M-41 -281q0 35 39 31q33 -6 76 -6q37 0 53 21.5t16 76.5v1143q0 39 39 39h97q39 0 38 -39v-1159q0 -121 -48 -178.5t-154 -57.5l-117 11q-39 4 -39 39v79zM143 1319v96q0 39 39 39h97q39 0 38 -39v-96q0 -39 -38 -39h-97q-39 0 -39 39z" />
<glyph unicode="k" horiz-adv-x="870" d="M143 39v1376q0 39 39 39h97q39 0 38 -39v-1376q0 -39 -38 -39h-97q-39 0 -39 39zM330 573l297 412q27 39 55 39h117q16 0 23 -12.5t-1 -26.5l-297 -412l324 -536q4 -7 4 -13t-4 -12q-8 -12 -27 -12h-116q-27 0 -52 37z" />
<glyph unicode="l" horiz-adv-x="460" d="M143 39v1376q0 39 39 39h97q39 0 38 -39v-1376q0 -39 -38 -39h-97q-39 0 -39 39z" />
<glyph unicode="m" horiz-adv-x="1566" d="M143 39v946q0 39 39 39h97q39 0 38 -39v-33q117 92 263 92q184 0 249 -129q125 129 304 129q156 0 223 -89t67 -259v-657q0 -39 -39 -39h-96q-39 0 -39 39v657q0 90 -32.5 136.5t-122.5 46.5q-104 0 -228 -95q4 -27 4 -88v-657q0 -39 -39 -39h-96q-39 0 -39 39v657 q0 90 -32.5 136.5t-122.5 46.5q-92 0 -224 -76v-764q0 -39 -38 -39h-97q-39 0 -39 39z" />
<glyph unicode="n" horiz-adv-x="1013" d="M143 39v946q0 39 39 39h97q39 0 38 -39v-33q117 92 263 92q156 0 223 -89t67 -259v-657q0 -39 -39 -39h-96q-39 0 -39 39v657q0 90 -32.5 136.5t-122.5 46.5q-92 0 -224 -76v-764q0 -39 -38 -39h-97q-39 0 -39 39z" />
<glyph unicode="o" horiz-adv-x="993" d="M133 348v328q0 174 95.5 271t269.5 97t268 -97t94 -271v-328q0 -174 -94 -271t-268 -97t-269.5 97t-95.5 271zM307 348q0 -96 45 -155.5t146 -59.5q98 0 143 59.5t45 155.5v328q0 215 -188 215q-98 0 -144.5 -59.5t-46.5 -155.5v-328z" />
<glyph unicode="p" horiz-adv-x="1013" d="M143 -350v1335q0 39 39 39h97q39 0 38 -39v-10q111 69 223 69h3q164 0 245.5 -91t81.5 -257v-368q0 -328 -360 -328q-68 0 -193 14v-364q0 -39 -38 -39h-97q-39 0 -39 39zM317 154h185q194 0 194 174v368q0 88 -43 141.5t-131 53.5q-82 0 -205 -60v-677z" />
<glyph unicode="q" horiz-adv-x="1013" d="M143 328v368q0 166 88 257t261 91q96 0 339 -34q39 -6 39 -39v-1321q0 -39 -39 -39h-96q-39 0 -39 39v399q-111 -69 -222 -69h-3q-164 0 -246 91t-82 257zM317 328q0 -88 43 -141.5t132 -53.5q81 1 204 60v679q-115 18 -184 19q-98 0 -146.5 -53.5t-48.5 -141.5v-368z " />
<glyph unicode="r" horiz-adv-x="645" d="M143 39v946q0 39 39 39h97q39 0 38 -39v-94q70 153 216 153h2l34 -4q35 -2 35 -41v-110q0 -16 -9 -26.5t-26 -8.5q-2 2 -28 2q-131 0 -224 -164v-653q0 -39 -38 -39h-97q-39 0 -39 39z" />
<glyph unicode="s" horiz-adv-x="890" d="M92 59v88q0 35 39 31q176 -39 289 -39q194 0 194 141q0 67 -38.5 97.5t-116.5 50.5l-113 31q-113 31 -178.5 90t-65.5 190q0 305 355 305q59 0 121.5 -6t97.5 -14l33 -6q39 -10 39 -41v-82q0 -39 -39 -33q-133 23 -248 23q-184 0 -185 -131q0 -55 36 -85t104 -46l110 -29 q121 -31 191.5 -94.5t70.5 -202.5q0 -168 -86 -242.5t-266 -74.5q-66 0 -142.5 9t-119.5 19l-43 8q-39 10 -39 43z" />
<glyph unicode="t" horiz-adv-x="686" d="M41 920v65q0 39 39 39h104v227q0 39 39 39h96q39 0 39 -39v-227h248q39 0 39 -39v-65q0 -39 -39 -39h-248v-629q0 -57 29 -88t80 -31l145 14q33 2 33 -30v-82q0 -35 -39 -39q-102 -16 -176 -16q-246 0 -246 276v625h-104q-39 0 -39 39z" />
<glyph unicode="u" horiz-adv-x="1013" d="M143 328v657q0 39 39 39h97q39 0 38 -39v-657q0 -90 33 -136.5t123 -46.5q92 0 223 76v764q0 39 39 39h96q39 0 39 -39v-946q0 -39 -39 -39h-96q-39 0 -39 39v33q-117 -92 -262 -92q-156 0 -223.5 89t-67.5 259z" />
<glyph unicode="v" horiz-adv-x="921" d="M35 983q-1 5 -1 10q0 11 5 19q8 12 27 12h104q37 0 47 -39l244 -756l244 756q10 39 47 39h104q18 0 26 -12q6 -8 6 -19q0 -5 -1 -10l-318 -946q-10 -37 -49 -37h-119q-39 0 -49 37z" />
<glyph unicode="w" horiz-adv-x="1536" d="M72 985q-2 8 -2 14q0 25 32 25h107q37 0 47 -39l190 -739l213 741q10 37 43 37h132q33 0 43 -37l213 -741l190 739q10 39 45 39h109q18 0 25 -12q4 -8 4 -19q0 -6 -1 -12l-258 -942q-10 -39 -43 -39h-135q-31 0 -41 41l-217 735l-217 -735q-10 -41 -43 -41h-135 q-31 0 -41 39z" />
<glyph unicode="x" horiz-adv-x="880" d="M22 14q-3 5 -4 11q0 8 7 16l290 487l-270 455q-10 14 -2 27.5t27 13.5h125q29 0 53 -37l192 -321l193 321q25 37 53 37h125q18 0 26.5 -13.5t-1.5 -27.5l-271 -455l291 -487q6 -9 6 -17q0 -4 -2 -10q-6 -14 -24 -14h-129q-29 0 -54 37l-213 354l-213 -354 q-25 -37 -53 -37h-127q-17 0 -25 14z" />
<glyph unicode="y" horiz-adv-x="921" d="M35 983q-1 5 -1 10q0 10 5 19q8 12 27 12h104q35 0 47 -39l244 -733l244 733q12 39 47 39h104q18 0 26 -12q6 -9 6 -19q0 -5 -1 -10l-455 -1335q-10 -37 -43 -37h-110q-16 0 -25.5 11t-5.5 26l121 352z" />
<glyph unicode="z" horiz-adv-x="849" d="M82 39v115l469 716h-430q-39 0 -39 39v76q0 39 39 39h608q39 0 39 -39v-115l-469 -716h430q39 0 39 -39v-76q0 -39 -39 -39h-608q-39 0 -39 39z" />
<glyph unicode="{" horiz-adv-x="645" d="M20 694v66q0 39 39 39h13q80 0 106.5 39t26.5 125v368q0 164 75.5 235.5t241.5 71.5h64q39 0 39 -39v-65q0 -39 -39 -39h-64q-82 0 -112.5 -41t-30.5 -123v-368q0 -197 -119 -236q119 -39 119 -235v-369q0 -82 30.5 -123t112.5 -41h64q39 0 39 -39v-65q0 -39 -39 -39h-64 q-166 0 -241.5 71.5t-75.5 235.5v369q0 86 -26.5 124.5t-106.5 38.5h-13q-39 0 -39 39z" />
<glyph unicode="|" horiz-adv-x="460" d="M143 -166v1786q0 39 39 39h97q39 0 38 -39v-1786q0 -39 -38 -39h-97q-39 0 -39 39z" />
<glyph unicode="}" horiz-adv-x="645" d="M20 -80q0 39 39 39h64q82 0 112.5 41t30.5 123v369q0 195 119 235q-119 37 -119 236v368q0 82 -30.5 123t-112.5 41h-64q-39 0 -39 39v65q0 39 39 39h64q166 0 241.5 -71.5t75.5 -235.5v-368q0 -86 27 -125t106 -39h13q39 0 39 -39v-66q0 -39 -39 -39h-13 q-80 0 -106.5 -38.5t-26.5 -124.5v-369q0 -164 -75.5 -235.5t-241.5 -71.5h-64q-39 0 -39 39v65z" />
<glyph unicode="~" d="M123 662v81q0 31 39 45q63 41 166 41q74 0 190.5 -30.5t181.5 -30.5q27 0 67 9t69 18l26 10q39 10 39 -23v-82q0 -31 -39 -45q-63 -41 -166 -41q-74 0 -188.5 31t-183.5 31q-27 0 -67 -9.5t-69 -19.5l-26 -8q-39 -10 -39 23z" />
<glyph unicode="&#xa1;" horiz-adv-x="501" d="M143 889v137q0 39 39 39h137q39 0 39 -39v-137q0 -39 -39 -39h-137q-39 0 -39 39zM164 -350v956q0 39 39 39h96q39 0 39 -39v-956q0 -39 -39 -39h-96q-39 0 -39 39z" />
<glyph unicode="&#xa2;" d="M205 348v328q0 156 73.5 250t213.5 114v191q0 39 38 39h97q39 0 39 -39v-193l114 -16q39 -6 39 -43v-84q0 -35 -41 -31q-125 16 -205 17q-100 0 -147 -55.5t-47 -149.5v-328q0 -205 194 -205l209 17q37 4 37 -31v-84q0 -37 -39 -43q-53 -10 -114 -16v-193q0 -39 -39 -39 h-97q-39 0 -38 39v191q-139 20 -213 114.5t-74 249.5z" />
<glyph unicode="&#xa3;" d="M16 694l11 86q4 39 39 39h170v199q0 219 105 338t300 119q70 0 140.5 -12.5t107.5 -24.5l35 -15q39 -6 39 -39v-90q0 -39 -39 -32q-145 49 -279 49q-236 0 -235 -293v-199h426q37 0 32 -39l-10 -86q-4 -39 -39 -39h-409v-491h514q39 0 39 -39v-86q0 -39 -39 -39h-650 q-39 0 -38 39v616h-187q-37 0 -33 39z" />
<glyph unicode="&#xa4;" d="M88 356q-27 29 0 56l105 104q-43 82 -43 201t43 201l-105 104q-27 27 0 55l64 62q29 29 55 0l102 -103q88 49 205 49q119 0 203 -47l100 103q27 27 55 0l64 -64q27 -29 0 -55l-102 -102q43 -84 43 -203t-43 -203l102 -102q27 -27 0 -56l-62 -61q-27 -29 -55 0l-100 100 q-84 -47 -205 -47q-125 0 -207 49l-102 -102q-29 -29 -55 0zM324 717q0 -96 45 -155.5t145 -59.5q98 0 143 59.5t45 155.5q0 215 -188 215q-98 0 -144 -59.5t-46 -155.5z" />
<glyph unicode="&#xa5;" d="M57 1413q-6 16 2.5 28.5t24.5 12.5h117q33 0 49 -39l262 -708l262 708q16 39 49 39h117q16 0 24.5 -12.5t2.5 -28.5l-238 -614h195q39 0 39 -39v-86q0 -39 -39 -39h-258l-64 -164h322q39 0 39 -39v-86q0 -39 -39 -39h-326v-268q0 -39 -39 -39h-96q-39 0 -39 39v268h-324 q-39 0 -39 39v86q0 39 39 39h320l-64 164h-256q-39 0 -39 39v86q0 39 39 39h193z" />
<glyph unicode="&#xa6;" horiz-adv-x="460" d="M143 -166v762q0 39 39 39h97q39 0 38 -39v-762q0 -39 -38 -39h-97q-39 0 -39 39zM143 858v762q0 39 39 39h97q39 0 38 -39v-762q0 -39 -38 -39h-97q-39 0 -39 39z" />
<glyph unicode="&#xa7;" horiz-adv-x="972" d="M133 -57q0 35 39 30q176 -39 289 -39q195 0 194 142v41q0 66 -38.5 96.5t-116.5 50.5l-113 31q-113 31 -178.5 90t-65.5 190v103q0 147 123 217q-123 70 -123 233v41q0 305 355 306q59 0 121.5 -6.5t97.5 -14.5l33 -6q39 -10 38 -41v-82q0 -39 -38 -33q-133 23 -248 23 q-184 0 -185 -131v-41q0 -55 36 -85t104 -46l110 -29q121 -31 191.5 -94.5t70.5 -202.5v-102q0 -152 -110 -215q111 -76 110 -236v-41q0 -168 -86 -242.5t-266 -74.5q-66 0 -142.5 9t-119.5 19l-43 9q-39 10 -39 43v88zM317 590q0 -55 36 -85t104 -46l108 -29q90 35 90 137 v103q0 66 -38.5 95.5t-116.5 51.5l-82 23q-100 -43 -101 -148v-102z" />
<glyph unicode="&#xa8;" horiz-adv-x="798" d="M143 1298v97q0 39 39 39h97q39 0 38 -39v-97q0 -39 -38 -38h-97q-39 0 -39 38zM481 1298v97q0 39 39 39h96q39 0 39 -39v-97q0 -39 -39 -38h-96q-39 0 -39 38z" />
<glyph unicode="&#xa9;" horiz-adv-x="1576" d="M143 604v246q0 324 174.5 474.5t471 150.5t471 -150.5t174.5 -474.5v-246q0 -324 -174.5 -474t-471 -150t-471 150.5t-174.5 473.5zM338 604q0 -451 450.5 -451t450.5 451v246q0 451 -450.5 450.5t-450.5 -450.5v-246zM471 666v122q0 174 92 271.5t266 97.5q35 0 74 -4 t60 -8l22 -4q39 -8 39 -43v-88q0 -33 -39 -29q-66 12 -145 12q-100 0 -147.5 -55t-47.5 -150v-122q0 -205 195 -205l145 12q39 4 39 -29v-88q0 -35 -39 -43q-72 -16 -156 -16q-174 0 -266 97.5t-92 271.5z" />
<glyph unicode="&#xaa;" horiz-adv-x="993" d="M123 707q0 311 344 311l209 -10v108q0 195 -184 195q-59 0 -126 -8.5t-104 -16.5l-39 -8q-39 -8 -39 33v78q0 33 39 43q117 43 285 43q178 0 260 -89.5t82 -269.5v-647q0 -39 -39 -39h-96q-39 0 -39 39v23q-121 -82 -246 -82q-147 0 -227 76.5t-80 220.5zM164 39v76 q0 39 39 39h608q39 0 39 -39v-76q0 -39 -39 -39h-608q-39 0 -39 39zM297 707q0 -143 154 -144q90 0 225 70v237h-205q-92 0 -133 -39.5t-41 -123.5z" />
<glyph unicode="&#xab;" horiz-adv-x="1003" d="M137 651q-14 27 2 54l166 280q23 39 47 39h123q16 0 24.5 -12.5t0.5 -26.5l-183 -309l183 -309q8 -14 0 -26.5t-25 -12.5h-123q-25 0 -47 39zM496 651q-14 27 2 54l166 280q23 39 47 39h123q16 0 24 -12.5t0 -26.5l-182 -309l182 -309q8 -14 0 -26.5t-24 -12.5h-123 q-25 0 -47 39z" />
<glyph unicode="&#xac;" d="M123 684v76q0 39 39 39h700q39 0 39 -39v-404q0 -39 -39 -39h-86q-39 0 -39 39v289h-575q-39 0 -39 39z" />
<glyph unicode="&#xad;" horiz-adv-x="696" d="M123 684v76q0 39 39 39h373q39 0 38 -39v-76q0 -39 -38 -39h-373q-39 0 -39 39z" />
<glyph unicode="&#xae;" horiz-adv-x="1576" d="M143 604v246q0 324 174.5 474.5t471 150.5t471 -150.5t174.5 -474.5v-246q0 -324 -174.5 -474t-471 -150t-471 150.5t-174.5 473.5zM338 604q0 -451 450.5 -451t450.5 451v246q0 451 -450.5 450.5t-450.5 -450.5v-246zM502 356v742q0 39 39 39h288q287 0 287 -256 q0 -213 -201 -250l195 -275q8 -14 1 -26.5t-24 -12.5h-126q-29 0 -52 33l-194 275h-39v-269q0 -39 -39 -39h-96q-39 0 -39 39zM676 778h153q113 0 113 102.5t-113 102.5h-153v-205z" />
<glyph unicode="&#xaf;" horiz-adv-x="768" d="M143 1298v76q0 39 39 39h404q39 0 39 -39v-76q0 -39 -39 -38h-404q-39 0 -39 38z" />
<glyph unicode="&#xb0;" horiz-adv-x="1013" d="M143 1004v102q0 174 95.5 271.5t269.5 97.5t268 -97.5t94 -271.5v-102q0 -174 -94 -271.5t-268 -97.5t-269.5 97t-95.5 272zM317 1004q0 -96 45.5 -156t145.5 -60q98 0 143 60t45 156v102q0 215 -188 215q-98 0 -144.5 -59.5t-46.5 -155.5v-102z" />
<glyph unicode="&#xb1;" d="M123 39v76q0 39 39 39h700q39 0 39 -39v-76q0 -39 -39 -39h-700q-39 0 -39 39zM123 684v76q0 39 39 39h268v288q0 39 39 39h86q39 0 39 -39v-288h268q39 0 39 -39v-76q0 -39 -39 -39h-268v-289q0 -39 -39 -39h-86q-39 0 -39 39v289h-268q-39 0 -39 39z" />
<glyph unicode="&#xb2;" horiz-adv-x="696" d="M90 621v178q0 80 36 137t86 86t100 51.5t86 49t36 63.5v47q0 86 -112 86q-35 0 -83.5 -6t-78.5 -10l-31 -7q-39 -4 -39 29v86q0 31 39 39q92 25 195 25q285 0 284 -238v-51q0 -76 -35.5 -127t-86 -77t-100.5 -48.5t-86 -55t-36 -79.5v-62h305q39 0 39 -39v-77 q0 -39 -39 -39h-440q-39 0 -39 39z" />
<glyph unicode="&#xb3;" horiz-adv-x="696" d="M74 629v86q0 31 39 26q131 -25 196 -24q121 0 121 96v57q0 86 -119 86h-137q-39 0 -39 39v78q0 39 39 39h113q119 0 119 84v35q0 88 -105 88q-29 0 -76 -6t-80 -13l-32 -6q-39 -4 -39 29v86q0 33 39 39q100 27 192 27q274 0 275 -238v-41q0 -98 -78 -152 q102 -57 102 -174v-63q0 -246 -293 -246q-45 0 -95 6t-77 15l-26 6q-39 10 -39 41z" />
<glyph unicode="&#xb4;" horiz-adv-x="622" d="M139 1462.5q6 12.5 23 12.5h127q29 0 55 -39l135 -209q10 -14 4 -26.5t-22 -12.5h-117q-29 0 -55 39l-146 209q-10 14 -4 26.5z" />
<glyph unicode="&#xb5;" horiz-adv-x="1013" d="M143 -350v1335q0 39 39 39h97q39 0 38 -39v-657q0 -90 33 -136.5t123 -46.5q92 0 223 76v764q0 39 39 39h96q39 0 39 -39v-946q0 -39 -39 -39h-96q-39 0 -39 39v33q-117 -92 -262 -92q-63 0 -117 16v-346q0 -39 -38 -39h-97q-39 0 -39 39z" />
<glyph unicode="&#xb6;" horiz-adv-x="1290" d="M102 1034q0 205 115 312.5t336 107.5h207q39 0 39 -39v-1376q0 -39 -39 -39h-96q-39 0 -39 39v575h-72q-221 0 -336 107.5t-115 312.5zM276 1034q0 -121 71 -188.5t206 -67.5h72v512h-72q-135 0 -206 -67.5t-71 -188.5zM973 39v1376q0 39 39 39h96q39 0 39 -39v-1376 q0 -39 -39 -39h-96q-39 0 -39 39z" />
<glyph unicode="&#xb7;" horiz-adv-x="460" d="M143 684v96q0 39 39 39h97q39 0 38 -39v-96q0 -39 -38 -39h-97q-39 0 -39 39z" />
<glyph unicode="&#xb8;" horiz-adv-x="593" d="M143 -340q0 33 39 33h19q96 0 96 74q0 70 -84 69h-31q-35 0 -28 39l47 207h112l-34 -160h8q164 0 164 -158q0 -174 -181 -174l-88 11q-39 10 -39 37v22z" />
<glyph unicode="&#xb9;" horiz-adv-x="696" d="M113 1276v82q0 29 39 39l198 57h107q39 0 39 -39v-794q0 -39 -39 -39h-97q-39 0 -38 39v663l-175 -37q-35 -6 -34 29z" />
<glyph unicode="&#xba;" horiz-adv-x="1013" d="M143 39v76q0 39 39 39h649q39 0 39 -39v-76q0 -39 -39 -39h-649q-39 0 -39 39zM143 778v328q0 174 95.5 271.5t269.5 97.5t268 -97.5t94 -271.5v-328q0 -174 -94 -271t-268 -97t-269.5 97t-95.5 271zM317 778q0 -96 45.5 -155.5t145.5 -59.5q98 0 143 59.5t45 155.5v328 q0 215 -188 215q-98 0 -144.5 -59.5t-46.5 -155.5v-328z" />
<glyph unicode="&#xbb;" horiz-adv-x="1003" d="M145 367l183 309l-183 309q-8 14 0.5 26.5t24.5 12.5h123q25 0 47 -39l166 -280q16 -27 2 -54l-168 -284q-23 -39 -47 -39h-123q-16 0 -24.5 12t-0.5 27zM504 340q-8 12 0 27l182 309l-182 309q-8 14 0 26.5t24 12.5h123q25 0 47 -39l166 -280q16 -27 2 -54l-168 -284 q-23 -39 -47 -39h-123q-16 0 -24 12z" />
<glyph unicode="&#xbc;" horiz-adv-x="1894" d="M113 1276v82q0 29 39 39l198 57h107q39 0 39 -39v-794q0 -39 -39 -39h-97q-39 0 -38 39v663l-175 -37q-35 -6 -34 29zM510 39l670 1376q20 39 47 39h131q16 0 25 -12.5t1 -26.5l-669 -1376q-18 -39 -47 -39h-131q-16 0 -25.5 12.5t-1.5 26.5zM1223 176v94 q143 201 143 457v107q0 39 39 38h96q39 0 39 -38v-107q0 -254 -115 -434h185v301q0 39 39 39h96q39 0 39 -39v-301h47q39 0 39 -39v-78q0 -39 -39 -39h-47v-98q0 -39 -39 -39h-96q-39 0 -39 39v98h-348q-39 0 -39 39z" />
<glyph unicode="&#xbd;" horiz-adv-x="1894" d="M113 1276v82q0 29 39 39l198 57h107q39 0 39 -39v-794q0 -39 -39 -39h-97q-39 0 -38 39v663l-175 -37q-35 -6 -34 29zM510 39l670 1376q20 39 47 39h131q16 0 25 -12.5t1 -26.5l-669 -1376q-18 -39 -47 -39h-131q-16 0 -25.5 12.5t-1.5 26.5zM1288 39v178 q0 98 54.5 162.5t118 89.5t117.5 58.5t54 76.5v47q0 86 -112 86q-35 0 -83 -6t-79 -10l-31 -6q-39 -4 -39 28v86q0 31 39 39q92 25 195 25q285 0 284 -238v-51q0 -76 -35.5 -127t-86 -76.5t-100.5 -48t-86 -55.5t-36 -80v-61h305q39 0 39 -39v-78q0 -39 -39 -39h-440 q-39 0 -39 39z" />
<glyph unicode="&#xbe;" horiz-adv-x="1894" d="M74 629v86q0 31 39 26q131 -25 196 -24q121 0 121 96v57q0 86 -119 86h-137q-39 0 -39 39v78q0 39 39 39h113q119 0 119 84v35q0 88 -105 88q-29 0 -76 -6t-80 -13l-32 -6q-39 -4 -39 29v86q0 33 39 39q100 27 192 27q274 0 275 -238v-41q0 -98 -78 -152 q102 -57 102 -174v-63q0 -246 -293 -246q-45 0 -95 6t-77 15l-26 6q-39 10 -39 41zM510 39l670 1376q20 39 47 39h131q16 0 25 -12.5t1 -26.5l-669 -1376q-18 -39 -47 -39h-131q-16 0 -25.5 12.5t-1.5 26.5zM1223 176v94q143 201 143 457v107q0 39 39 38h96q39 0 39 -38 v-107q0 -254 -115 -434h185v301q0 39 39 39h96q39 0 39 -39v-301h47q39 0 39 -39v-78q0 -39 -39 -39h-47v-98q0 -39 -39 -39h-96q-39 0 -39 39v98h-348q-39 0 -39 39z" />
<glyph unicode="&#xbf;" horiz-adv-x="849" d="M123 -47q0 98 32.5 158.5t94.5 115.5l55 49q55 49 80 100.5t25 135.5v94q0 39 39 39h96q39 0 39 -39v-94q0 -135 -38 -212t-108 -136l-59 -51q-82 -72 -82 -160v-31q0 -90 45 -129t139 -39q51 0 113.5 6.5t101.5 12.5l37 6q35 4 35 -29v-88q0 -35 -39 -41 q-115 -31 -252 -31q-354 0 -354 332v31zM389 889v137q0 39 39 39h137q39 0 39 -39v-137q0 -39 -39 -39h-137q-39 0 -39 39z" />
<glyph unicode="&#xc0;" horiz-adv-x="1136" d="M33 39l436 1376q10 39 45 39h109q35 0 45 -39l436 -1376q10 -39 -29 -39h-112q-33 0 -43 39l-76 248h-551l-76 -248q-10 -39 -43 -39h-113q-39 0 -28 39zM303 1830.5q6 12.5 23 12.5h127q29 0 55 -39l135 -209q10 -14 4 -26.5t-22 -12.5h-117q-29 0 -55 39l-146 209 q-10 14 -4 26.5zM344 451h449l-224 723z" />
<glyph unicode="&#xc1;" horiz-adv-x="1136" d="M33 39l436 1376q10 39 45 39h109q35 0 45 -39l436 -1376q10 -39 -29 -39h-112q-33 0 -43 39l-76 248h-551l-76 -248q-10 -39 -43 -39h-113q-39 0 -28 39zM344 451h449l-224 723zM491.5 1568.5q-6.5 12.5 4.5 26.5l135 209q27 39 55 39h127q16 0 22 -12.5t-4 -26.5 l-145 -209q-27 -39 -55 -39h-117q-16 0 -22.5 12.5z" />
<glyph unicode="&#xc2;" horiz-adv-x="1136" d="M33 39l436 1376q10 39 45 39h109q35 0 45 -39l436 -1376q10 -39 -29 -39h-112q-33 0 -43 39l-76 248h-551l-76 -248q-10 -39 -43 -39h-113q-39 0 -28 39zM272 1581v86q0 27 39 49l224 121q31 18 65 0l227 -121q39 -20 39 -49v-86q0 -35 -39 -18l-258 120l-258 -120 q-39 -16 -39 18zM344 451h449l-224 723z" />
<glyph unicode="&#xc3;" horiz-adv-x="1136" d="M33 39l436 1376q10 39 45 39h109q35 0 45 -39l436 -1376q10 -39 -29 -39h-112q-33 0 -43 39l-76 248h-551l-76 -248q-10 -39 -43 -39h-113q-39 0 -28 39zM272 1599v74q0 20 39 56q49 45 129 45q59 0 143.5 -37t118.5 -37q25 0 57 12t50 25l18 14q16 6 27.5 1t11.5 -21 v-74q0 -20 -39 -55q-49 -45 -129 -46q-45 0 -133 37t-129 37q-25 0 -56.5 -12t-49.5 -25l-19 -14q-16 -6 -27.5 -1t-11.5 21zM344 451h449l-224 723z" />
<glyph unicode="&#xc4;" horiz-adv-x="1136" d="M33 39l436 1376q10 39 45 39h109q35 0 45 -39l436 -1376q10 -39 -29 -39h-112q-33 0 -43 39l-76 248h-551l-76 -248q-10 -39 -43 -39h-113q-39 0 -28 39zM293 1595v97q0 39 39 39h96q39 0 39 -39v-97q0 -39 -39 -39h-96q-39 0 -39 39zM344 451h449l-224 723zM672 1595v97 q0 39 39 39h96q39 0 39 -39v-97q0 -39 -39 -39h-96q-39 0 -39 39z" />
<glyph unicode="&#xc5;" horiz-adv-x="1136" d="M33 39l407 1286q-106 49 -106 180q0 102 62.5 153.5t172.5 51.5q109 0 172.5 -51t63.5 -154q0 -133 -109 -182l408 -1284q10 -39 -29 -39h-112q-33 0 -43 39l-76 248h-551l-76 -248q-10 -39 -43 -39h-113q-39 0 -28 39zM344 451h449l-224 723zM467 1505q0 -92 102.5 -92 t102.5 92t-102.5 92t-102.5 -92z" />
<glyph unicode="&#xc6;" horiz-adv-x="1617" d="M37 41l551 1374q16 39 47 39h842q39 0 39 -39v-86q0 -39 -39 -39h-473v-471h432q39 0 39 -39v-86q0 -39 -39 -39h-432v-491h473q39 0 39 -39v-86q0 -39 -39 -39h-609q-39 0 -39 39v289h-481l-117 -289q-16 -39 -43 -39h-125q-16 0 -24 12.5t-2 28.5zM414 492h415v798h-94 z" />
<glyph unicode="&#xc7;" horiz-adv-x="911" d="M143 451v553q0 215 108.5 343t326.5 128q49 0 103 -6.5t83 -10.5l29 -6q37 -10 36 -39v-90q0 -35 -38 -31q-115 18 -207 19q-135 0 -201 -88t-66 -219v-553q0 -131 66 -219.5t201 -88.5q37 0 88 4.5t86 8.5l33 6q39 4 38 -31v-92q0 -31 -36 -39q-113 -20 -215 -20h-21 l-12 -58h8q164 0 164 -158q0 -174 -180 -174l-88 11q-39 10 -39 37v22q0 33 39 33h18q96 0 96 74q0 70 -84 69h-30q-35 0 -29 39l26 119q-152 37 -227.5 157.5t-75.5 299.5z" />
<glyph unicode="&#xc8;" horiz-adv-x="972" d="M143 39v1376q0 39 39 39h649q39 0 39 -39v-86q0 -39 -39 -39h-514v-471h474q39 0 38 -39v-86q0 -39 -38 -39h-474v-491h514q39 0 39 -39v-86q0 -39 -39 -39h-649q-39 0 -39 39zM307 1830.5q6 12.5 23 12.5h127q29 0 55 -39l135 -209q10 -14 4 -26.5t-22 -12.5h-117 q-29 0 -55 39l-146 209q-10 14 -4 26.5z" />
<glyph unicode="&#xc9;" horiz-adv-x="972" d="M143 39v1376q0 39 39 39h649q39 0 39 -39v-86q0 -39 -39 -39h-514v-471h474q39 0 38 -39v-86q0 -39 -38 -39h-474v-491h514q39 0 39 -39v-86q0 -39 -39 -39h-649q-39 0 -39 39zM409.5 1568.5q-6.5 12.5 4.5 26.5l135 209q27 39 55 39h127q16 0 22.5 -12.5t-3.5 -26.5 l-146 -209q-27 -39 -55 -39h-117q-16 0 -22.5 12.5z" />
<glyph unicode="&#xca;" horiz-adv-x="972" d="M143 39v1376q0 39 39 39h649q39 0 39 -39v-86q0 -39 -39 -39h-514v-471h474q39 0 38 -39v-86q0 -39 -38 -39h-474v-491h514q39 0 39 -39v-86q0 -39 -39 -39h-649q-39 0 -39 39zM211 1581v86q0 27 39 49l223 121q31 18 66 0l227 -121q39 -20 39 -49v-86q0 -35 -39 -18 l-258 120l-258 -120q-39 -16 -39 18z" />
<glyph unicode="&#xcb;" horiz-adv-x="972" d="M143 39v1376q0 39 39 39h649q39 0 39 -39v-86q0 -39 -39 -39h-514v-471h474q39 0 38 -39v-86q0 -39 -38 -39h-474v-491h514q39 0 39 -39v-86q0 -39 -39 -39h-649q-39 0 -39 39zM258 1595v97q0 39 39 39h96q39 0 39 -39v-97q0 -39 -39 -39h-96q-39 0 -39 39zM596 1595v97 q0 39 39 39h96q39 0 39 -39v-97q0 -39 -39 -39h-96q-39 0 -39 39z" />
<glyph unicode="&#xcc;" horiz-adv-x="911" d="M61 39v65q0 39 39 39h269v1168h-269q-39 0 -39 39v65q0 39 39 39h711q39 0 39 -39v-65q0 -39 -39 -39h-268v-1168h268q39 0 39 -39v-65q0 -39 -39 -39h-711q-39 0 -39 39zM197 1830.5q6 12.5 22 12.5h127q29 0 55 -39l136 -209q10 -14 4 -26.5t-23 -12.5h-117 q-29 0 -55 39l-145 209q-10 14 -4 26.5z" />
<glyph unicode="&#xcd;" horiz-adv-x="911" d="M61 39v65q0 39 39 39h269v1168h-269q-39 0 -39 39v65q0 39 39 39h711q39 0 39 -39v-65q0 -39 -39 -39h-268v-1168h268q39 0 39 -39v-65q0 -39 -39 -39h-711q-39 0 -39 39zM389.5 1568.5q-6.5 12.5 3.5 26.5l135 209q27 39 56 39h127q16 0 22 -12.5t-4 -26.5l-145 -209 q-27 -39 -56 -39h-116q-16 0 -22.5 12.5z" />
<glyph unicode="&#xce;" horiz-adv-x="911" d="M61 39v65q0 39 39 39h269v1168h-269q-39 0 -39 39v65q0 39 39 39h711q39 0 39 -39v-65q0 -39 -39 -39h-268v-1168h268q39 0 39 -39v-65q0 -39 -39 -39h-711q-39 0 -39 39zM160 1581v86q0 27 39 49l223 121q31 18 65 0l228 -121q39 -20 39 -49v-86q0 -35 -39 -18l-258 120 l-258 -120q-39 -16 -39 18z" />
<glyph unicode="&#xcf;" horiz-adv-x="911" d="M61 39v65q0 39 39 39h269v1168h-269q-39 0 -39 39v65q0 39 39 39h711q39 0 39 -39v-65q0 -39 -39 -39h-268v-1168h268q39 0 39 -39v-65q0 -39 -39 -39h-711q-39 0 -39 39zM201 1595v97q0 39 39 39h96q39 0 39 -39v-97q0 -39 -39 -39h-96q-39 0 -39 39zM539 1595v97 q0 39 39 39h96q39 0 39 -39v-97q0 -39 -39 -39h-96q-39 0 -39 39z" />
<glyph unicode="&#xd0;" horiz-adv-x="1187" d="M143 39v1376q0 39 39 39h412q225 0 337.5 -128t112.5 -343v-512q0 -215 -112.5 -343t-337.5 -128h-412q-39 0 -39 39zM317 164h277q141 0 208.5 88t67.5 219v512q0 131 -67.5 219t-208.5 88h-277v-471h392q39 0 39 -39v-86q0 -39 -39 -39h-392v-491z" />
<glyph unicode="&#xd1;" horiz-adv-x="1187" d="M143 39v1376q0 39 39 39h107q31 0 47 -35l534 -1038v1034q0 39 39 39h97q39 0 38 -39v-1376q0 -39 -38 -39h-109q-29 0 -47 39l-533 1034v-1034q0 -39 -38 -39h-97q-39 0 -39 39zM297 1599v74q0 20 39 56q49 45 129 45q59 0 143 -37t119 -37q25 0 56.5 12t50.5 25l18 14 q16 6 27.5 1t11.5 -21v-74q0 -20 -39 -55q-49 -45 -129 -46q-45 0 -133 37t-129 37q-25 0 -56.5 -12t-50.5 -25l-18 -14q-16 -6 -27.5 -1t-11.5 21z" />
<glyph unicode="&#xd2;" horiz-adv-x="1187" d="M143 451v553q0 215 113 343t338 128t337.5 -128t112.5 -343v-553q0 -215 -112.5 -343t-337.5 -128t-338 128t-113 343zM317 451q0 -131 68 -219.5t209 -88.5t208.5 88.5t67.5 219.5v553q0 131 -67.5 219t-208.5 88t-209 -88t-68 -219v-553zM342 1830.5q6 12.5 23 12.5 h127q29 0 55 -39l135 -209q10 -14 4 -26.5t-22 -12.5h-117q-29 0 -55 39l-146 209q-10 14 -4 26.5z" />
<glyph unicode="&#xd3;" horiz-adv-x="1187" d="M143 451v553q0 215 113 343t338 128t337.5 -128t112.5 -343v-553q0 -215 -112.5 -343t-337.5 -128t-338 128t-113 343zM317 451q0 -131 68 -219.5t209 -88.5t208.5 88.5t67.5 219.5v553q0 131 -67.5 219t-208.5 88t-209 -88t-68 -219v-553zM512.5 1568.5 q-6.5 12.5 3.5 26.5l135 209q27 39 56 39h127q16 0 22 -12.5t-4 -26.5l-145 -209q-27 -39 -56 -39h-116q-16 0 -22.5 12.5z" />
<glyph unicode="&#xd4;" horiz-adv-x="1187" d="M143 451v553q0 215 113 343t338 128t337.5 -128t112.5 -343v-553q0 -215 -112.5 -343t-337.5 -128t-338 128t-113 343zM297 1581v86q0 27 39 49l223 121q31 18 66 0l227 -121q39 -20 39 -49v-86q0 -35 -39 -18l-258 120l-258 -120q-39 -16 -39 18zM317 451 q0 -131 68 -219.5t209 -88.5t208.5 88.5t67.5 219.5v553q0 131 -67.5 219t-208.5 88t-209 -88t-68 -219v-553z" />
<glyph unicode="&#xd5;" horiz-adv-x="1187" d="M143 451v553q0 215 113 343t338 128t337.5 -128t112.5 -343v-553q0 -215 -112.5 -343t-337.5 -128t-338 128t-113 343zM297 1599v74q0 20 39 56q49 45 129 45q59 0 143 -37t119 -37q25 0 56.5 12t50.5 25l18 14q16 6 27.5 1t11.5 -21v-74q0 -20 -39 -55q-49 -45 -129 -46 q-45 0 -133 37t-129 37q-25 0 -56.5 -12t-50.5 -25l-18 -14q-16 -6 -27.5 -1t-11.5 21zM317 451q0 -131 68 -219.5t209 -88.5t208.5 88.5t67.5 219.5v553q0 131 -67.5 219t-208.5 88t-209 -88t-68 -219v-553z" />
<glyph unicode="&#xd6;" horiz-adv-x="1187" d="M143 451v553q0 215 113 343t338 128t337.5 -128t112.5 -343v-553q0 -215 -112.5 -343t-337.5 -128t-338 128t-113 343zM293 1595v97q0 39 39 39h96q39 0 39 -39v-97q0 -39 -39 -39h-96q-39 0 -39 39zM317 451q0 -131 68 -219.5t209 -88.5t208.5 88.5t67.5 219.5v553 q0 131 -67.5 219t-208.5 88t-209 -88t-68 -219v-553zM723 1595v97q0 39 39 39h96q39 0 39 -39v-97q0 -39 -39 -39h-96q-39 0 -39 39z" />
<glyph unicode="&#xd7;" horiz-adv-x="942" d="M150 459q-27 29 0 55l202 203l-202 203q-27 27 0 55l63 61q29 29 55 0l203 -202l203 204q27 27 55 0l64 -63q27 -29 0 -55l-203 -203l203 -203q27 -26 0 -55l-62 -62q-27 -29 -55 0l-205 203l-205 -203q-29 -29 -55 0z" />
<glyph unicode="&#xd8;" horiz-adv-x="1187" d="M143 451v553q0 215 113 343t338 128q86 0 164 -23l59 170q14 37 43 37h105q16 0 24 -11.5t2 -25.5l-86 -248q139 -121 139 -370v-553q0 -215 -112.5 -343t-337.5 -128q-86 0 -164 22l-59 -170q-14 -37 -43 -37h-105q-16 0 -24.5 11.5t-1.5 25.5l86 248q-139 121 -140 371 zM317 451q0 -100 35 -170l350 1011q-47 18 -108 19q-141 0 -209 -88t-68 -219v-553zM485 162q47 -18 109 -19q141 0 208.5 88.5t67.5 219.5v553q0 100 -34 170z" />
<glyph unicode="&#xd9;" horiz-adv-x="1187" d="M143 451v964q0 39 39 39h97q39 0 38 -39v-964q0 -131 68 -219.5t209 -88.5t208.5 88t67.5 220v964q0 39 39 39h97q39 0 38 -39v-964q0 -215 -112.5 -343t-337.5 -128t-338 128t-113 343zM356 1830.5q6 12.5 23 12.5h127q29 0 55 -39l135 -209q10 -14 4 -26.5t-22 -12.5 h-117q-29 0 -55 39l-146 209q-10 14 -4 26.5z" />
<glyph unicode="&#xda;" horiz-adv-x="1187" d="M143 451v964q0 39 39 39h97q39 0 38 -39v-964q0 -131 68 -219.5t209 -88.5t208.5 88t67.5 220v964q0 39 39 39h97q39 0 38 -39v-964q0 -215 -112.5 -343t-337.5 -128t-338 128t-113 343zM532.5 1568.5q-6.5 12.5 4.5 26.5l135 209q27 39 55 39h127q16 0 22 -12.5 t-4 -26.5l-145 -209q-27 -39 -55 -39h-117q-16 0 -22.5 12.5z" />
<glyph unicode="&#xdb;" horiz-adv-x="1187" d="M143 451v964q0 39 39 39h97q39 0 38 -39v-964q0 -131 68 -219.5t209 -88.5t208.5 88t67.5 220v964q0 39 39 39h97q39 0 38 -39v-964q0 -215 -112.5 -343t-337.5 -128t-338 128t-113 343zM297 1581v86q0 27 39 49l223 121q31 18 66 0l227 -121q39 -20 39 -49v-86 q0 -35 -39 -18l-258 120l-258 -120q-39 -16 -39 18z" />
<glyph unicode="&#xdc;" horiz-adv-x="1187" d="M143 451v964q0 39 39 39h97q39 0 38 -39v-964q0 -131 68 -219.5t209 -88.5t208.5 88t67.5 220v964q0 39 39 39h97q39 0 38 -39v-964q0 -215 -112.5 -343t-337.5 -128t-338 128t-113 343zM338 1595v97q0 39 39 39h96q39 0 39 -39v-97q0 -39 -39 -39h-96q-39 0 -39 39z M676 1595v97q0 39 39 39h96q39 0 39 -39v-97q0 -39 -39 -39h-96q-39 0 -39 39z" />
<glyph unicode="&#xdd;" horiz-adv-x="1075" d="M39 1413q-8 14 1 27.5t26 13.5h116q33 0 49 -39l308 -708l305 708q16 39 49 39h117q16 0 25 -13.5t1 -27.5l-411 -911v-463q0 -39 -39 -39h-97q-39 0 -38 39v463zM479.5 1568.5q-6.5 12.5 3.5 26.5l135 209q27 39 56 39h127q16 0 22 -12.5t-4 -26.5l-145 -209 q-27 -39 -56 -39h-116q-16 0 -22.5 12.5z" />
<glyph unicode="&#xde;" horiz-adv-x="1126" d="M143 39v1376q0 39 39 39h97q39 0 38 -39v-248h236q221 0 336 -107.5t115 -312t-115 -312t-336 -107.5h-236v-289q0 -39 -38 -39h-97q-39 0 -39 39zM317 492h236q135 0 205.5 67.5t70.5 188t-70.5 188.5t-205.5 68h-236v-512z" />
<glyph unicode="&#xdf;" horiz-adv-x="1126" d="M143 39v1098q0 158 92.5 248t251.5 90q147 0 239.5 -82t92.5 -236q0 -88 -41 -171t-82 -142.5t-41 -89.5q0 -43 36 -76t87 -59.5t102.5 -60.5t87.5 -100.5t36 -160.5q0 -166 -79 -241.5t-233 -75.5q-66 0 -124 4t-85 8l-24 6q-39 10 -39 43v88q0 35 39 31q96 -20 217 -21 q154 0 153 142q0 63 -35.5 106t-87 67.5t-102.5 53.5t-87 84t-36 137q0 90 82 219t82 209q0 74 -47 114t-111 40q-76 0 -123 -47t-47 -134v-1091q0 -39 -38 -39h-97q-39 0 -39 39z" />
<glyph unicode="&#xe0;" horiz-adv-x="972" d="M102 276q0 311 344 312l209 -10v108q0 195 -184 195q-59 0 -125.5 -8.5t-103.5 -16.5l-39 -8q-39 -8 -39 33v77q0 33 39 43q117 43 284 43q178 0 260 -89t82 -269v-647q0 -39 -38 -39h-97q-39 0 -39 39v22q-121 -82 -245 -81q-147 0 -227.5 76.5t-80.5 219.5zM227 1462.5 q6 12.5 23 12.5h127q29 0 55 -39l135 -209q10 -14 4 -26.5t-22 -12.5h-117q-29 0 -55 39l-146 209q-10 14 -4 26.5zM276 276q0 -143 154 -143q90 0 225 70v237h-204q-92 0 -133.5 -40t-41.5 -124z" />
<glyph unicode="&#xe1;" horiz-adv-x="972" d="M102 276q0 311 344 312l209 -10v108q0 195 -184 195q-59 0 -125.5 -8.5t-103.5 -16.5l-39 -8q-39 -8 -39 33v77q0 33 39 43q117 43 284 43q178 0 260 -89t82 -269v-647q0 -39 -38 -39h-97q-39 0 -39 39v22q-121 -82 -245 -81q-147 0 -227.5 76.5t-80.5 219.5zM276 276 q0 -143 154 -143q90 0 225 70v237h-204q-92 0 -133.5 -40t-41.5 -124zM412 1200q-6 12 4 27l135 209q27 39 55 39h127q16 0 22.5 -12.5t-3.5 -26.5l-146 -209q-27 -39 -55 -39h-117q-16 0 -22 12z" />
<glyph unicode="&#xe2;" horiz-adv-x="972" d="M102 276q0 311 344 312l209 -10v108q0 195 -184 195q-59 0 -125.5 -8.5t-103.5 -16.5l-39 -8q-39 -8 -39 33v77q0 33 39 43q117 43 284 43q178 0 260 -89t82 -269v-647q0 -39 -38 -39h-97q-39 0 -39 39v22q-121 -82 -245 -81q-147 0 -227.5 76.5t-80.5 219.5zM190 1190 v86q0 27 39 49l224 121q31 18 65 0l227 -121q39 -18 39 -49v-86q0 -35 -39 -19l-258 121l-258 -121q-39 -16 -39 19zM276 276q0 -143 154 -143q90 0 225 70v237h-204q-92 0 -133.5 -40t-41.5 -124z" />
<glyph unicode="&#xe3;" horiz-adv-x="972" d="M102 276q0 311 344 312l209 -10v108q0 195 -184 195q-59 0 -125.5 -8.5t-103.5 -16.5l-39 -8q-39 -8 -39 33v77q0 33 39 43q117 43 284 43q178 0 260 -89t82 -269v-647q0 -39 -38 -39h-97q-39 0 -39 39v22q-121 -82 -245 -81q-147 0 -227.5 76.5t-80.5 219.5zM190 1255 v74q0 20 39 55q49 45 129 46q59 0 143.5 -37t119.5 -37q25 0 56.5 12t49.5 25l18 14q16 6 27.5 1t11.5 -22v-73q0 -20 -39 -56q-49 -45 -129 -45q-45 0 -133 37t-129 37q-25 0 -56.5 -12t-49.5 -25l-19 -14q-16 -6 -27.5 -1t-11.5 21zM276 276q0 -143 154 -143q90 0 225 70 v237h-204q-92 0 -133.5 -40t-41.5 -124z" />
<glyph unicode="&#xe4;" horiz-adv-x="972" d="M102 276q0 311 344 312l209 -10v108q0 195 -184 195q-59 0 -125.5 -8.5t-103.5 -16.5l-39 -8q-39 -8 -39 33v77q0 33 39 43q117 43 284 43q178 0 260 -89t82 -269v-647q0 -39 -38 -39h-97q-39 0 -39 39v22q-121 -82 -245 -81q-147 0 -227.5 76.5t-80.5 219.5zM231 1298 v97q0 39 39 39h97q39 0 39 -39v-97q0 -39 -39 -38h-97q-39 0 -39 38zM276 276q0 -143 154 -143q90 0 225 70v237h-204q-92 0 -133.5 -40t-41.5 -124zM569 1298v97q0 39 39 39h97q39 0 38 -39v-97q0 -39 -38 -38h-97q-39 0 -39 38z" />
<glyph unicode="&#xe5;" horiz-adv-x="972" d="M102 276q0 311 344 312l209 -10v108q0 195 -184 195q-59 0 -125.5 -8.5t-103.5 -16.5l-39 -8q-39 -8 -39 33v77q0 33 39 43q117 43 284 43q178 0 260 -89t82 -269v-647q0 -39 -38 -39h-97q-39 0 -39 39v22q-121 -82 -245 -81q-147 0 -227.5 76.5t-80.5 219.5zM252 1310.5 q0 102.5 62.5 154t172.5 51.5q109 0 172.5 -51.5t63.5 -154t-62.5 -153.5t-173.5 -51q-109 0 -172 51t-63 153.5zM276 276q0 -143 154 -143q90 0 225 70v237h-204q-92 0 -133.5 -40t-41.5 -124zM385 1311q0 -92 102.5 -92t102.5 92t-102.5 92t-102.5 -92z" />
<glyph unicode="&#xe6;" horiz-adv-x="1505" d="M102 276q0 311 344 312q127 0 209 -13v111q0 195 -184 195q-59 0 -125.5 -8.5t-103.5 -16.5l-39 -8q-39 -8 -39 33v77q0 33 39 43q117 43 284 43q197 0 273 -110q94 111 270 110q180 0 266 -115.5t86 -307.5v-132q0 -39 -39 -38h-514q6 -311 246 -312q43 0 100.5 6.5 t92.5 14.5l35 6q39 4 38 -33v-86q0 -31 -38 -41q-125 -27 -234 -26q-221 0 -328 153q-154 -154 -331 -153q-147 0 -227.5 76.5t-80.5 219.5zM276 276q0 -143 154 -143q102 0 264 92q-37 94 -39 215h-204q-92 0 -133.5 -40t-41.5 -124zM829 588h385v39q0 270 -182 270 q-115 0 -158 -80t-45 -229z" />
<glyph unicode="&#xe7;" horiz-adv-x="798" d="M143 348v328q0 174 92.5 271t266.5 97q43 0 87 -4t66 -8l23 -6q39 -2 39 -43v-84q0 -35 -41 -31q-84 12 -164 13q-100 0 -147.5 -55.5t-47.5 -149.5v-328q0 -205 195 -205l168 13q37 4 37 -31v-84q0 -35 -39 -43q-92 -18 -176 -18h-21l-12 -58h8q164 0 164 -158 q0 -174 -180 -174l-88 11q-39 10 -39 37v22q0 33 39 33h18q96 0 96 74q0 70 -84 69h-30q-35 0 -29 39l27 121q-227 66 -228 352z" />
<glyph unicode="&#xe8;" horiz-adv-x="972" d="M123 475v86q0 231 92 357t283 126q180 0 266 -115.5t86 -307.5v-132q0 -39 -39 -38h-514q6 -311 246 -312q43 0 100 6.5t92 14.5l35 6q39 4 39 -33v-86q0 -31 -39 -41q-125 -27 -233 -26q-193 0 -303.5 120.5t-110.5 374.5zM234 1462.5q6 12.5 22 12.5h127q29 0 55 -39 l135 -209q10 -14 4 -26.5t-22 -12.5h-117q-29 0 -55 39l-145 209q-10 14 -4 26.5zM297 588h385v39q0 270 -182 270q-115 0 -158 -80t-45 -229z" />
<glyph unicode="&#xe9;" horiz-adv-x="972" d="M123 475v86q0 231 92 357t283 126q180 0 266 -115.5t86 -307.5v-132q0 -39 -39 -38h-514q6 -311 246 -312q43 0 100 6.5t92 14.5l35 6q39 4 39 -33v-86q0 -31 -39 -41q-125 -27 -233 -26q-193 0 -303.5 120.5t-110.5 374.5zM297 588h385v39q0 270 -182 270 q-115 0 -158 -80t-45 -229zM420 1200q-6 12 4 27l135 209q27 39 55 39h127q16 0 22.5 -12.5t-3.5 -26.5l-146 -209q-27 -39 -55 -39h-117q-16 0 -22 12z" />
<glyph unicode="&#xea;" horiz-adv-x="972" d="M123 475v86q0 231 92 357t283 126q180 0 266 -115.5t86 -307.5v-132q0 -39 -39 -38h-514q6 -311 246 -312q43 0 100 6.5t92 14.5l35 6q39 4 39 -33v-86q0 -31 -39 -41q-125 -27 -233 -26q-193 0 -303.5 120.5t-110.5 374.5zM190 1190v86q0 27 39 49l224 121q31 18 65 0 l227 -121q39 -18 39 -49v-86q0 -35 -39 -19l-258 121l-258 -121q-39 -16 -39 19zM297 588h385v39q0 270 -182 270q-115 0 -158 -80t-45 -229z" />
<glyph unicode="&#xeb;" horiz-adv-x="972" d="M123 475v86q0 231 92 357t283 126q180 0 266 -115.5t86 -307.5v-132q0 -39 -39 -38h-514q6 -311 246 -312q43 0 100 6.5t92 14.5l35 6q39 4 39 -33v-86q0 -31 -39 -41q-125 -27 -233 -26q-193 0 -303.5 120.5t-110.5 374.5zM231 1298v97q0 39 39 39h97q39 0 39 -39v-97 q0 -39 -39 -38h-97q-39 0 -39 38zM297 588h385v39q0 270 -182 270q-115 0 -158 -80t-45 -229zM569 1298v97q0 39 39 39h97q39 0 38 -39v-97q0 -39 -38 -38h-97q-39 0 -39 38z" />
<glyph unicode="&#xec;" horiz-adv-x="460" d="M-24 1462.5q6 12.5 22 12.5h127q29 0 55 -39l135 -209q10 -14 4 -26.5t-22 -12.5h-117q-29 0 -55 39l-145 209q-10 14 -4 26.5zM143 39v946q0 39 39 39h97q39 0 38 -39v-946q0 -39 -38 -39h-97q-39 0 -39 39z" />
<glyph unicode="&#xed;" horiz-adv-x="460" d="M143 39v946q0 39 39 39h97q39 0 38 -39v-946q0 -39 -38 -39h-97q-39 0 -39 39zM156 1200q-6 12 4 27l135 209q27 39 55 39h127q16 0 22.5 -12.5t-3.5 -26.5l-146 -209q-27 -39 -55 -39h-117q-16 0 -22 12z" />
<glyph unicode="&#xee;" horiz-adv-x="460" d="M-66 1190v86q0 27 39 49l224 121q31 18 65 0l227 -121q39 -18 39 -49v-86q0 -35 -39 -19l-258 121l-258 -121q-39 -16 -39 19zM143 39v946q0 39 39 39h97q39 0 38 -39v-946q0 -39 -38 -39h-97q-39 0 -39 39z" />
<glyph unicode="&#xef;" horiz-adv-x="460" d="M-25 1298v97q0 39 39 39h97q39 0 39 -39v-97q0 -39 -39 -38h-97q-39 0 -39 38zM143 39v946q0 39 39 39h97q39 0 38 -39v-946q0 -39 -38 -39h-97q-39 0 -39 39zM313 1298v97q0 39 39 39h97q39 0 38 -39v-97q0 -39 -38 -38h-97q-39 0 -39 38z" />
<glyph unicode="&#xf0;" horiz-adv-x="1064" d="M143 369v327q0 166 82 257t246 91q143 0 277 -104v104q0 29 -5 74l-131 -41q-39 -10 -39 29v76q0 29 39 39l84 26q-57 74 -184 74q-35 0 -97.5 -7t-107.5 -16l-43 -6q-39 -4 -39 29v82q0 39 39 43q137 29 248 29q256 0 354 -175l119 39q16 4 27.5 -4t11.5 -24v-76 q0 -27 -39 -39l-74 -25q10 -49 11 -127v-675q0 -186 -102.5 -287.5t-287.5 -101.5q-186 0 -287.5 101t-101.5 288zM317 369q0 -104 53.5 -170t162 -66t162 65t53.5 171v434q-150 88 -256 88q-88 0 -131.5 -53.5t-43.5 -141.5v-327z" />
<glyph unicode="&#xf1;" horiz-adv-x="1013" d="M143 39v946q0 39 39 39h97q39 0 38 -39v-33q117 92 263 92q156 0 223 -89t67 -259v-657q0 -39 -39 -39h-96q-39 0 -39 39v657q0 90 -32.5 136.5t-122.5 46.5q-92 0 -224 -76v-764q0 -39 -38 -39h-97q-39 0 -39 39zM211 1255v74q0 20 39 55q49 45 129 46q59 0 143 -37 t119 -37q25 0 56.5 12t50.5 25l18 14q16 6 27.5 1t11.5 -22v-73q0 -20 -39 -56q-49 -45 -129 -45q-45 0 -133 37t-129 37q-25 0 -56.5 -12t-50.5 -25l-18 -14q-16 -6 -27.5 -1t-11.5 21z" />
<glyph unicode="&#xf2;" horiz-adv-x="993" d="M133 348v328q0 174 95.5 271t269.5 97t268 -97t94 -271v-328q0 -174 -94 -271t-268 -97t-269.5 97t-95.5 271zM240 1462.5q6 12.5 22 12.5h127q29 0 55 -39l136 -209q10 -14 4 -26.5t-23 -12.5h-117q-29 0 -55 39l-145 209q-10 14 -4 26.5zM307 348q0 -96 45 -155.5 t146 -59.5q98 0 143 59.5t45 155.5v328q0 215 -188 215q-98 0 -144.5 -59.5t-46.5 -155.5v-328z" />
<glyph unicode="&#xf3;" horiz-adv-x="993" d="M133 348v328q0 174 95.5 271t269.5 97t268 -97t94 -271v-328q0 -174 -94 -271t-268 -97t-269.5 97t-95.5 271zM307 348q0 -96 45 -155.5t146 -59.5q98 0 143 59.5t45 155.5v328q0 215 -188 215q-98 0 -144.5 -59.5t-46.5 -155.5v-328zM405.5 1200q-6.5 12 4.5 27l135 209 q27 39 55 39h127q16 0 22 -12.5t-4 -26.5l-145 -209q-27 -39 -55 -39h-117q-16 0 -22.5 12z" />
<glyph unicode="&#xf4;" horiz-adv-x="993" d="M133 348v328q0 174 95.5 271t269.5 97t268 -97t94 -271v-328q0 -174 -94 -271t-268 -97t-269.5 97t-95.5 271zM201 1190v86q0 27 39 49l223 121q31 18 65 0l228 -121q39 -18 39 -49v-86q0 -35 -39 -19l-258 121l-258 -121q-39 -16 -39 19zM307 348q0 -96 45 -155.5 t146 -59.5q98 0 143 59.5t45 155.5v328q0 215 -188 215q-98 0 -144.5 -59.5t-46.5 -155.5v-328z" />
<glyph unicode="&#xf5;" horiz-adv-x="993" d="M133 348v328q0 174 95.5 271t269.5 97t268 -97t94 -271v-328q0 -174 -94 -271t-268 -97t-269.5 97t-95.5 271zM201 1255v74q0 20 39 55q49 45 129 46q59 0 143 -37t119 -37q25 0 56.5 12t49.5 25l19 14q14 6 26.5 1t12.5 -22v-73q0 -20 -39 -56q-49 -45 -129 -45 q-45 0 -133 37t-129 37q-25 0 -57 -12t-50 -25l-18 -14q-14 -6 -26.5 -1t-12.5 21zM307 348q0 -96 45 -155.5t146 -59.5q98 0 143 59.5t45 155.5v328q0 215 -188 215q-98 0 -144.5 -59.5t-46.5 -155.5v-328z" />
<glyph unicode="&#xf6;" horiz-adv-x="993" d="M133 348v328q0 174 95.5 271t269.5 97t268 -97t94 -271v-328q0 -174 -94 -271t-268 -97t-269.5 97t-95.5 271zM242 1298v97q0 39 39 39h96q39 0 39 -39v-97q0 -39 -39 -38h-96q-39 0 -39 38zM307 348q0 -96 45 -155.5t146 -59.5q98 0 143 59.5t45 155.5v328 q0 215 -188 215q-98 0 -144.5 -59.5t-46.5 -155.5v-328zM580 1298v97q0 39 38 39h97q39 0 39 -39v-97q0 -39 -39 -38h-97q-39 0 -38 38z" />
<glyph unicode="&#xf7;" d="M123 684v76q0 39 39 39h700q39 0 39 -39v-76q0 -39 -39 -39h-700q-39 0 -39 39zM420 356v97q0 39 39 39h106q39 0 39 -39v-97q0 -39 -39 -39h-106q-39 0 -39 39zM420 991v96q0 39 39 39h106q39 0 39 -39v-96q0 -39 -39 -39h-106q-39 0 -39 39z" />
<glyph unicode="&#xf8;" horiz-adv-x="993" d="M133 348v328q0 174 95.5 271t269.5 97q49 0 100 -10l55 158q14 37 43 37h105q16 0 24.5 -11.5t1.5 -25.5l-82 -225q115 -96 115 -291v-328q0 -174 -94 -271t-268 -97q-49 0 -101 10l-57 -158q-14 -37 -43 -37h-104q-16 0 -24.5 11.5t-2.5 25.5l82 227q-115 98 -115 289z M307 348q0 -66 23 -117l233 652q-25 8 -65 8q-100 0 -145.5 -59.5t-45.5 -155.5v-328zM430 141q27 -8 68 -8q98 0 143 59.5t45 155.5v328q0 61 -22 117z" />
<glyph unicode="&#xf9;" horiz-adv-x="1013" d="M143 328v657q0 39 39 39h97q39 0 38 -39v-657q0 -90 33 -136.5t123 -46.5q92 0 223 76v764q0 39 39 39h96q39 0 39 -39v-946q0 -39 -39 -39h-96q-39 0 -39 39v33q-117 -92 -262 -92q-156 0 -223.5 89t-67.5 259zM268 1462.5q6 12.5 23 12.5h127q29 0 55 -39l135 -209 q10 -14 4 -26.5t-22 -12.5h-117q-29 0 -55 39l-146 209q-10 14 -4 26.5z" />
<glyph unicode="&#xfa;" horiz-adv-x="1013" d="M143 328v657q0 39 39 39h97q39 0 38 -39v-657q0 -90 33 -136.5t123 -46.5q92 0 223 76v764q0 39 39 39h96q39 0 39 -39v-946q0 -39 -39 -39h-96q-39 0 -39 39v33q-117 -92 -262 -92q-156 0 -223.5 89t-67.5 259zM436.5 1200q-6.5 12 3.5 27l135 209q27 39 56 39h127 q16 0 22 -12.5t-4 -26.5l-145 -209q-27 -39 -56 -39h-116q-16 0 -22.5 12z" />
<glyph unicode="&#xfb;" horiz-adv-x="1013" d="M143 328v657q0 39 39 39h97q39 0 38 -39v-657q0 -90 33 -136.5t123 -46.5q92 0 223 76v764q0 39 39 39h96q39 0 39 -39v-946q0 -39 -39 -39h-96q-39 0 -39 39v33q-117 -92 -262 -92q-156 0 -223.5 89t-67.5 259zM211 1190v86q0 27 39 49l223 121q31 18 66 0l227 -121 q39 -18 39 -49v-86q0 -35 -39 -19l-258 121l-258 -121q-39 -16 -39 19z" />
<glyph unicode="&#xfc;" horiz-adv-x="1013" d="M143 328v657q0 39 39 39h97q39 0 38 -39v-657q0 -90 33 -136.5t123 -46.5q92 0 223 76v764q0 39 39 39h96q39 0 39 -39v-946q0 -39 -39 -39h-96q-39 0 -39 39v33q-117 -92 -262 -92q-156 0 -223.5 89t-67.5 259zM252 1298v97q0 39 39 39h96q39 0 39 -39v-97 q0 -39 -39 -38h-96q-39 0 -39 38zM590 1298v97q0 39 39 39h96q39 0 39 -39v-97q0 -39 -39 -38h-96q-39 0 -39 38z" />
<glyph unicode="&#xfd;" horiz-adv-x="921" d="M35 983q-4 16 4 28.5t27 12.5h104q35 0 47 -39l244 -733l244 733q12 39 47 39h104q18 0 26.5 -12.5t4.5 -28.5l-455 -1335q-10 -37 -43 -37h-110q-16 0 -25.5 11t-5.5 26l121 352zM395.5 1200q-6.5 12 3.5 27l136 209q27 39 55 39h127q16 0 22 -12.5t-4 -26.5l-145 -209 q-27 -39 -55 -39h-117q-16 0 -22.5 12z" />
<glyph unicode="&#xfe;" horiz-adv-x="1013" d="M143 -350v1765q0 39 39 39h97q39 0 38 -39v-440q113 70 226 69q164 0 245.5 -91t81.5 -257v-368q0 -328 -360 -328q-68 0 -193 14v-364q0 -39 -38 -39h-97q-39 0 -39 39zM317 154h185q194 0 194 174v368q0 88 -43 141.5t-131 53.5q-82 0 -205 -60v-677z" />
<glyph unicode="&#xff;" horiz-adv-x="921" d="M35 983q-4 16 4 28.5t27 12.5h104q35 0 47 -39l244 -733l244 733q12 39 47 39h104q18 0 26.5 -12.5t4.5 -28.5l-455 -1335q-10 -37 -43 -37h-110q-16 0 -25.5 11t-5.5 26l121 352zM205 1298v97q0 39 39 39h96q39 0 39 -39v-97q0 -39 -39 -38h-96q-39 0 -39 38zM543 1298 v97q0 39 39 39h96q39 0 39 -39v-97q0 -39 -39 -38h-96q-39 0 -39 38z" />
<glyph unicode="&#x152;" horiz-adv-x="1658" d="M143 451v553q0 215 113 343t338 128q188 0 276 -101v41q0 39 39 39h609q39 0 38 -39v-86q0 -39 -38 -39h-474v-471h433q39 0 39 -39v-86q0 -39 -39 -39h-433v-491h474q39 0 38 -39v-86q0 -39 -38 -39h-609q-39 0 -39 39v41q-88 -100 -276 -100q-225 0 -338 128t-113 343z M317 451q0 -131 68 -219.5t209 -88.5t208.5 88.5t67.5 219.5v553q0 131 -67.5 219t-208.5 88t-209 -88t-68 -219v-553z" />
<glyph unicode="&#x153;" horiz-adv-x="1536" d="M133 348v328q0 174 95.5 271t269.5 97q190 0 286 -118q96 119 276.5 118.5t266.5 -116t86 -307.5v-132q0 -39 -39 -38h-514q6 -311 246 -312q43 0 100.5 6.5t91.5 14.5l35 6q39 4 39 -33v-86q0 -31 -39 -41q-125 -27 -233 -26q-203 0 -309 126q-92 -127 -293 -126 q-174 0 -269.5 97t-95.5 271zM307 348q0 -96 45 -155.5t146 -59.5q98 0 143 59.5t45 155.5v328q0 215 -188 215q-98 0 -144.5 -59.5t-46.5 -155.5v-328zM860 588h385v39q0 270 -182 270q-115 0 -158 -80t-45 -229z" />
<glyph unicode="&#x178;" horiz-adv-x="1075" d="M39 1413q-8 14 1 27.5t26 13.5h116q33 0 49 -39l308 -708l305 708q16 39 49 39h117q16 0 25 -13.5t1 -27.5l-411 -911v-463q0 -39 -39 -39h-97q-39 0 -38 39v463zM283 1595v97q0 39 39 39h96q39 0 39 -39v-97q0 -39 -39 -39h-96q-39 0 -39 39zM621 1595v97q0 39 38 39h97 q39 0 39 -39v-97q0 -39 -39 -39h-97q-39 0 -38 39z" />
<glyph unicode="&#x2c6;" horiz-adv-x="880" d="M143 1190v86q0 27 39 49l224 121q31 18 65 0l227 -121q39 -18 39 -49v-86q0 -35 -39 -19l-258 121l-258 -121q-39 -16 -39 19z" />
<glyph unicode="&#x2dc;" horiz-adv-x="880" d="M143 1255v74q0 20 39 55q49 45 129 46q59 0 143.5 -37t118.5 -37q25 0 57 12t50 25l18 14q14 6 26.5 1t12.5 -22v-73q0 -20 -39 -56q-49 -45 -129 -45q-45 0 -133 37t-129 37q-25 0 -56.5 -12t-49.5 -25l-19 -14q-14 -6 -26.5 -1t-12.5 21z" />
<glyph unicode="&#x2000;" horiz-adv-x="923" />
<glyph unicode="&#x2001;" horiz-adv-x="1846" />
<glyph unicode="&#x2002;" horiz-adv-x="923" />
<glyph unicode="&#x2003;" horiz-adv-x="1846" />
<glyph unicode="&#x2004;" horiz-adv-x="615" />
<glyph unicode="&#x2005;" horiz-adv-x="461" />
<glyph unicode="&#x2006;" horiz-adv-x="307" />
<glyph unicode="&#x2007;" horiz-adv-x="307" />
<glyph unicode="&#x2008;" horiz-adv-x="230" />
<glyph unicode="&#x2009;" horiz-adv-x="369" />
<glyph unicode="&#x200a;" horiz-adv-x="102" />
<glyph unicode="&#x2010;" horiz-adv-x="696" d="M123 684v76q0 39 39 39h373q39 0 38 -39v-76q0 -39 -38 -39h-373q-39 0 -39 39z" />
<glyph unicode="&#x2011;" horiz-adv-x="696" d="M123 684v76q0 39 39 39h373q39 0 38 -39v-76q0 -39 -38 -39h-373q-39 0 -39 39z" />
<glyph unicode="&#x2012;" horiz-adv-x="696" d="M123 684v76q0 39 39 39h373q39 0 38 -39v-76q0 -39 -38 -39h-373q-39 0 -39 39z" />
<glyph unicode="&#x2013;" horiz-adv-x="1228" d="M123 684v76q0 39 39 39h905q39 0 39 -39v-76q0 -39 -39 -39h-905q-39 0 -39 39z" />
<glyph unicode="&#x2014;" horiz-adv-x="1433" d="M123 684v76q0 39 39 39h1110q39 0 39 -39v-76q0 -39 -39 -39h-1110q-39 0 -39 39z" />
<glyph unicode="&#x2018;" horiz-adv-x="460" d="M123 971v155l53 287q8 41 41 41h64q37 0 30 -41l-35 -266h23q39 0 39 -39v-137q0 -39 -39 -39h-137q-39 0 -39 39z" />
<glyph unicode="&#x2019;" horiz-adv-x="460" d="M123 1278v137q0 39 39 39h137q39 0 39 -39v-155l-53 -287q-8 -41 -41 -41h-64q-37 0 -30 41l34 266h-22q-39 0 -39 39z" />
<glyph unicode="&#x201a;" horiz-adv-x="460" d="M123 39v137q0 39 39 39h137q39 0 39 -39v-156l-53 -286q-8 -41 -41 -41h-64q-37 0 -30 41l34 266h-22q-39 0 -39 39z" />
<glyph unicode="&#x201c;" horiz-adv-x="798" d="M123 971v155l53 287q8 41 41 41h64q37 0 30 -41l-35 -266h23q39 0 39 -39v-137q0 -39 -39 -39h-137q-39 0 -39 39zM461 971v155l53 287q8 41 41 41h63q37 0 31 -41l-35 -266h23q39 0 39 -39v-137q0 -39 -39 -39h-137q-39 0 -39 39z" />
<glyph unicode="&#x201d;" horiz-adv-x="798" d="M123 1278v137q0 39 39 39h137q39 0 39 -39v-155l-53 -287q-8 -41 -41 -41h-64q-37 0 -30 41l34 266h-22q-39 0 -39 39zM461 1278v137q0 39 39 39h137q39 0 39 -39v-155l-53 -287q-8 -41 -41 -41h-64q-37 0 -31 41l35 266h-22q-39 0 -39 39z" />
<glyph unicode="&#x201e;" horiz-adv-x="798" d="M123 39v137q0 39 39 39h137q39 0 39 -39v-156l-53 -286q-8 -41 -41 -41h-64q-37 0 -30 41l34 266h-22q-39 0 -39 39zM461 39v137q0 39 39 39h137q39 0 39 -39v-156l-53 -286q-8 -41 -41 -41h-64q-37 0 -31 41l35 266h-22q-39 0 -39 39z" />
<glyph unicode="&#x2022;" horiz-adv-x="583" d="M143 623v219q0 39 39 39h219q39 0 39 -39v-219q0 -39 -39 -39h-219q-39 0 -39 39z" />
<glyph unicode="&#x2026;" horiz-adv-x="1300" d="M123 39v137q0 39 39 39h137q39 0 39 -39v-137q0 -39 -39 -39h-137q-39 0 -39 39zM543 39v137q0 39 39 39h137q39 0 39 -39v-137q0 -39 -39 -39h-137q-39 0 -39 39zM963 39v137q0 39 38 39h138q39 0 39 -39v-137q0 -39 -39 -39h-138q-39 0 -38 39z" />
<glyph unicode="&#x202f;" horiz-adv-x="369" />
<glyph unicode="&#x2039;" horiz-adv-x="645" d="M137 651q-14 27 2 54l166 280q23 39 47 39h123q16 0 24.5 -12.5t0.5 -26.5l-183 -309l183 -309q8 -14 0 -26.5t-25 -12.5h-123q-25 0 -47 39z" />
<glyph unicode="&#x203a;" horiz-adv-x="645" d="M145 367l183 309l-183 309q-8 14 0.5 26.5t24.5 12.5h123q25 0 47 -39l168 -285q14 -27 -2 -53l-166 -280q-23 -39 -47 -39h-123q-16 0 -24.5 12t-0.5 27z" />
<glyph unicode="&#x205f;" horiz-adv-x="461" />
<glyph unicode="&#x20ac;" d="M37 520l10 86q4 39 39 39h170v164h-166q-37 0 -33 39l11 86q4 39 38 39h150v31q0 215 108.5 343t325.5 128q53 0 106.5 -6.5t80.5 -10.5l28 -6q37 -2 37 -39v-90q0 -35 -37 -31q-125 18 -209 19q-135 0 -200.5 -88t-65.5 -219v-31h414q37 0 33 -39l-11 -86 q-4 -39 -39 -39h-397v-164h393q37 0 33 -39l-10 -86q-4 -39 -39 -39h-377v-30q0 -131 65.5 -219.5t200.5 -88.5q41 0 98.5 5.5t94.5 11.5l35 4q39 4 39 -31v-92q0 -37 -37 -39q-137 -23 -236 -22q-215 0 -324.5 128t-109.5 343v30h-186q-37 0 -33 39z" />
<glyph unicode="&#x2122;" horiz-adv-x="1812" d="M41 1329v86q0 39 39 39h618q39 0 39 -39v-86q0 -39 -39 -39h-221v-524q0 -39 -39 -39h-96q-39 0 -39 39v524h-223q-39 0 -39 39zM799 766v649q0 39 39 39h127q29 0 47 -37l233 -418l232 418q18 37 47 37h127q39 0 39 -39v-649q0 -39 -39 -39h-97q-39 0 -38 39v399 l-164 -297q-20 -39 -47 -39h-121q-29 0 -47 39l-164 297v-399q0 -39 -39 -39h-96q-39 0 -39 39z" />
<glyph unicode="&#xe000;" d="M0 0v1024h1024v-1024h-1024z" />
</font>
</defs>
</svg>
