<?xml version="1.0" standalone="no"?>
<!DOCTYPE svg PUBLIC "-//W3C//DTD SVG 1.1//EN" "http://www.w3.org/Graphics/SVG/1.1/DTD/svg11.dtd" >
<svg xmlns="http://www.w3.org/2000/svg">
<metadata></metadata>
<defs>
<font id="notesstyle-boldtfregular" horiz-adv-x="1075" >
<font-face units-per-em="2048" ascent="1638" descent="-410" />
<missing-glyph horiz-adv-x="573" />
<glyph unicode="&#xd;" horiz-adv-x="573" />
<glyph unicode=" "  horiz-adv-x="573" />
<glyph unicode="&#x09;" horiz-adv-x="573" />
<glyph unicode="&#xa0;" horiz-adv-x="573" />
<glyph unicode="!" horiz-adv-x="522" d="M113 0v297h297v-297h-297zM123 481v973h276v-973h-276z" />
<glyph unicode="&#x22;" horiz-adv-x="880" d="M102 809v645h277v-645h-277zM502 809v645h276v-645h-276z" />
<glyph unicode="#" horiz-adv-x="1024" d="M41 307v236h113v368h-113v236h113v307h276v-307h164v307h276v-307h113v-236h-113v-368h113v-236h-113v-307h-276v307h-164v-307h-276v307h-113zM430 543h164v368h-164v-368z" />
<glyph unicode="$" horiz-adv-x="1024" d="M82 0v256h379q116 0 165.5 39t49.5 129v20q0 62 -40.5 95.5t-119.5 60.5l-174 57q-121 41 -190.5 126t-69.5 235v31q0 160 79.5 255.5t217.5 129.5v266h276v-246h256v-256h-358q-103 0 -149 -37t-46 -112v-11q0 -48 31 -78.5t90 -50.5l174 -57q52 -17 91.5 -35.5 t80.5 -49.5t67.5 -70.5t43 -98.5t16.5 -133v-41q0 -185 -73 -282.5t-224 -127.5v-260h-276v246h-297z" />
<glyph unicode="%" horiz-adv-x="2150" d="M102 1018v31q0 86 23 157.5t69.5 128t124.5 88t181 31.5h37q103 0 181 -31.5t124 -88t69 -128t23 -157.5v-31q0 -86 -23 -158t-69 -128.5t-124 -88t-181 -31.5h-37q-103 0 -181 31.5t-124.5 88t-69.5 128.5t-23 158zM379 995q0 -71 31.5 -109t89.5 -38h37q58 0 89 38 t31 109v76q0 71 -31 109.5t-89 38.5h-37q-58 0 -89.5 -38.5t-31.5 -109.5v-76zM573 0l707 1454h297l-707 -1454h-297zM1217 406v30q0 86 23 158t69 128.5t124 88t181 31.5h37q103 0 181 -31.5t124 -88t69 -128.5t23 -158v-30q0 -86 -23 -158t-69 -128.5t-124 -88t-181 -31.5 h-37q-103 0 -181 31.5t-124 88t-69 128.5t-23 158zM1493 383q0 -71 31.5 -109t89.5 -38h37q58 0 89.5 38t31.5 109v76q0 71 -31.5 109t-89.5 38h-37q-58 0 -89.5 -38t-31.5 -109v-76z" />
<glyph unicode="&#x26;" horiz-adv-x="1208" d="M123 391v33q0 222 176 317q-156 86 -156 289v45q0 126 60.5 218t161.5 137t229 45h317v-256h-317q-84 0 -129 -53.5t-45 -123.5v-14q0 -70 40 -114t124 -44h164v195h276v-195h143v-256h-143v-614h-440q-212 0 -336.5 98.5t-124.5 292.5zM399 418q0 -72 49.5 -117 t135.5 -45h164v358h-164q-96 0 -140.5 -51t-44.5 -133v-12z" />
<glyph unicode="'" horiz-adv-x="481" d="M102 809v645h277v-645h-277z" />
<glyph unicode="(" horiz-adv-x="665" d="M123 225v1004q0 254 119.5 372.5t361.5 118.5h41v-225h-41q-105 0 -155 -61.5t-50 -204.5v-1004q0 -143 49.5 -204.5t155.5 -61.5h41v-225h-41q-242 0 -361.5 118.5t-119.5 372.5z" />
<glyph unicode=")" horiz-adv-x="665" d="M20 -41h41q105 0 155 61.5t50 204.5v1004q0 143 -49.5 204.5t-155.5 61.5h-41v225h41q242 0 362 -118.5t120 -372.5v-1004q0 -254 -120 -372.5t-362 -118.5h-41v225z" />
<glyph unicode="*" horiz-adv-x="1097" d="M102 1118l134 207l192 -119v248h246v-248l192 121l129 -209l-256 -162l205 -221l-180 -168l-213 232l-215 -232l-180 168l204 221z" />
<glyph unicode="+" d="M102 594v246h308v327h256v-327h307v-246h-307v-328h-256v328h-308z" />
<glyph unicode="," horiz-adv-x="501" d="M102 297h297l-71 -666h-226v666z" />
<glyph unicode="-" horiz-adv-x="716" d="M102 401v246h512v-246h-512z" />
<glyph unicode="." horiz-adv-x="501" d="M102 0v297h297v-297h-297z" />
<glyph unicode="/" horiz-adv-x="870" d="M82 0l420 1454h286l-419 -1454h-287z" />
<glyph unicode="0" horiz-adv-x="835" d="M61 341v375q0 341 349 341h15q349 0 349 -341v-375q0 -341 -347 -341h-19q-347 0 -347 341zM293 385q0 -74 25 -106.5t90 -32.5h19q65 0 90 32.5t25 106.5v289q0 74 -25.5 106.5t-91.5 32.5h-15q-66 0 -91.5 -32.5t-25.5 -106.5v-289z" />
<glyph unicode="1" horiz-adv-x="841" d="M113 0v246h226v574l-226 -7v227l461 16v-810h196v-246h-657z" />
<glyph unicode="2" horiz-adv-x="825" d="M82 813v244h300q71 0 130 -17.5t108 -55.5t77 -106t28 -160l1 -55q0 -66 -30 -117.5t-77.5 -85.5t-97 -61t-98 -61t-70.5 -70l-4 -22h384v-246h-649v246q0 69 41 125t99 93t116 69.5t99 70.5t41 80v44q0 48 -26 66.5t-76 18.5h-296z" />
<glyph unicode="3" horiz-adv-x="790" d="M82 0v246h266q72 0 97.5 19.5t27.5 58.5v8q0 49 -28.5 71.5t-100.5 22.5h-162v219h131q84 0 110 18.5t26 63.5l-3 14q0 1 0.5 3l0.5 2q0 67 -113 67h-252v244h262q153 0 246.5 -67t93.5 -187v-43q0 -76 -21.5 -128.5t-82.5 -80.5q129 -57 129 -240v-43q0 -79 -26.5 -133 t-77.5 -82.5t-111.5 -40.5t-141.5 -12h-270z" />
<glyph unicode="4" horiz-adv-x="835" d="M51 141v236l2 4q79 116 100 230t21 304v142h236v-142v-57q0 -191 -16 -283.5t-81 -187.5h158v367h234v-367h106v-246h-106v-141h-234v141h-420z" />
<glyph unicode="5" horiz-adv-x="874" d="M109 0v246h284q160 0 160 71v27q0 48 -28 66t-90 18h-326v630h631v-244h-398v-157h153q314 0 314 -290v-53q0 -92 -28.5 -155.5t-83.5 -97t-121.5 -47.5t-156.5 -14h-310z" />
<glyph unicode="6" horiz-adv-x="884" d="M72 319v365q0 373 415 373h250v-244h-239h-27q-40 0 -60.5 -1t-45 -6t-35 -15.5t-18 -29.5t-7.5 -48v-23h191q58 0 112 -17.5t101 -52.5t75.5 -95.5t28.5 -137.5v-68q0 -143 -91.5 -231t-270.5 -88h-17q-180 0 -271 82t-91 237zM305 354q0 -65 32 -90.5t97 -25.5h17 q63 0 95 25.5t32 90.5v13q0 51 -29 69.5t-88 18.5h-156v-101z" />
<glyph unicode="7" horiz-adv-x="841" d="M52 814v243h728v-228q0 -70 -15 -127t-39 -96t-53 -72t-58.5 -63.5t-53.5 -62t-39 -76t-15 -97.5v-235h-257v235q0 71 16 130.5t41 100t56 75t62.5 64.5t58 59.5t44 67.5t19.5 82h-495z" />
<glyph unicode="8" horiz-adv-x="841" d="M61 299v29q0 78 23 126.5t69 81.5q-78 63 -78 207v36q0 144 74.5 215.5t214.5 71.5h116q139 0 213 -71.5t74 -215.5v-36q0 -144 -78 -207q46 -33 69 -81.5t23 -126.5l-2 -29q0 -309 -299 -309h-116q-303 0 -303 309zM323 327q0 -35 22.5 -59t70.5 -24h12q48 0 69 24 t21 59v23q0 82 -96 82q-99 0 -99 -82v-23zM328 709q0 -82 94 -82t94 82v25q0 35 -21 59t-69 24h-12q-86 0 -86 -83v-25z" />
<glyph unicode="9" horiz-adv-x="856" d="M70 659v68q0 158 90 245t266 87h18q173 0 265 -86.5t92 -249.5v-381q0 -66 -9.5 -117t-25.5 -87t-45 -61t-60 -40t-79 -23.5t-93 -11t-110 -2.5h-250v246h242q18 0 46 -0.5t38 -0.5q64 0 85 15.5t21 71.5v24h-196q-148 0 -221.5 81t-73.5 222zM311 674q0 -53 26 -77 t81 -24h143v117q0 63 -27.5 93t-89.5 30h-18q-64 0 -89.5 -31.5t-25.5 -91.5v-16z" />
<glyph unicode=":" horiz-adv-x="501" d="M102 0v297h297v-297h-297zM102 748v296h297v-296h-297z" />
<glyph unicode=";" horiz-adv-x="501" d="M102 297h297l-71 -666h-226v666zM102 748v296h297v-296h-297z" />
<glyph unicode="&#x3c;" d="M102 594v246l871 389v-277l-570 -235l570 -236v-276z" />
<glyph unicode="=" d="M102 348v246h871v-246h-871zM102 840v245h871v-245h-871z" />
<glyph unicode="&#x3e;" d="M102 205v276l570 236l-570 235v277l871 -389v-246z" />
<glyph unicode="?" horiz-adv-x="931" d="M82 1198v256h352q184 0 289.5 -79.5t105.5 -252.5v-30q0 -186 -131 -291l-49 -39q-30 -24 -43.5 -36.5t-31 -36.5t-24.5 -53t-7 -69v-86h-277v86q0 97 17.5 163t46.5 104.5t80 76.5l53 39q2 1 14.5 10.5t15 11.5t13.5 10.5t13.5 12t10.5 12t10 14.5t6 14.5t5.5 18 t1.5 19.5v21q0 104 -152 104h-319zM256 0v297h297v-297h-297z" />
<glyph unicode="@" horiz-adv-x="2048" d="M123 471v72q0 214 56.5 385.5t166.5 293.5t279.5 187.5t388.5 65.5h20q221 0 391 -57.5t279.5 -164t165 -254.5t55.5 -333v-93q0 -140 -37 -244t-104 -166t-153 -92t-191 -30h-525q-170 0 -254.5 99.5t-70.5 269.5l20 245q14 174 103.5 271.5t257.5 97.5h481l-63 -737h55 q77 0 130.5 66.5t53.5 219.5v93q0 97 -17 175t-58.5 148t-108 117t-170.5 74.5t-240 27.5h-20q-132 0 -234.5 -34.5t-169.5 -93.5t-110.5 -144.5t-61.5 -182t-18 -210.5v-72q0 -102 18.5 -188.5t62 -162.5t109.5 -129t166 -83.5t228 -30.5h337v-266h-337q-427 0 -654 217.5 t-227 642.5zM868 440q-6 -75 22 -114t99 -39h121l43 491h-121q-71 0 -106 -39t-41 -114z" />
<glyph unicode="A" horiz-adv-x="1280" d="M41 0l430 1454h338l430 -1454h-297l-68 246h-468l-68 -246h-297zM477 502h326l-162 590z" />
<glyph unicode="B" horiz-adv-x="1228" d="M123 0v1454h491q230 0 350.5 -94.5t120.5 -304.5q0 -214 -167 -307q208 -87 208 -338q0 -217 -120 -313.5t-351 -96.5h-532zM399 246h236q108 0 161.5 42.5t53.5 141.5q0 102 -55.5 143t-159.5 41h-236v-368zM399 860h195q112 0 163.5 40.5t51.5 133.5q0 99 -52.5 136.5 t-162.5 37.5h-195v-348z" />
<glyph unicode="C" horiz-adv-x="993" d="M102 532v390q0 256 128.5 394t373.5 138h307v-262h-307q-123 0 -174 -76t-51 -215v-348q0 -140 52 -215.5t183 -75.5h297v-262h-307q-245 0 -373.5 138t-128.5 394z" />
<glyph unicode="D" horiz-adv-x="1228" d="M123 0v1454h502q245 0 373 -137.5t128 -394.5v-390q0 -257 -128 -394.5t-373 -137.5h-502zM399 256h226q63 0 108 22t70 63.5t36 93t11 118.5v348q0 67 -11 118.5t-36 93t-70 63.5t-108 22h-226v-942z" />
<glyph unicode="E" horiz-adv-x="1054" d="M123 0v1454h829v-256h-553v-328h553v-256h-553v-358h553v-256h-829z" />
<glyph unicode="F" horiz-adv-x="1054" d="M123 0v1454h829v-256h-553v-328h553v-256h-553v-614h-276z" />
<glyph unicode="G" horiz-adv-x="1228" d="M102 532v349q0 276 139 424.5t404 148.5h420v-256h-410q-147 0 -211.5 -81t-64.5 -236v-328q0 -297 233 -297h217v317h-245v256h522v-829h-502q-253 0 -377.5 136t-124.5 396z" />
<glyph unicode="H" horiz-adv-x="1249" d="M123 0v1454h276v-584h451v584h276v-1454h-276v614h-451v-614h-276z" />
<glyph unicode="I" horiz-adv-x="911" d="M61 0v184h256v1086h-256v184h789v-184h-256v-1086h256v-184h-789z" />
<glyph unicode="J" horiz-adv-x="768" d="M82 0v246h82q109 0 157 53t48 172v983h276v-1003q0 -226 -105.5 -338.5t-324.5 -112.5h-133z" />
<glyph unicode="K" horiz-adv-x="1126" d="M123 0v1454h276v-1454h-276zM401 758l398 696h307l-397 -696l417 -758h-307z" />
<glyph unicode="L" horiz-adv-x="1034" d="M123 0v1454h276v-1198h553v-256h-829z" />
<glyph unicode="M" horiz-adv-x="1566" d="M123 0v1454h297l364 -813l363 813h297v-1454h-277v872l-249 -550h-269l-250 550v-872h-276z" />
<glyph unicode="N" horiz-adv-x="1249" d="M123 0v1454h276l451 -868v868h276v-1454h-276l-451 868v-868h-276z" />
<glyph unicode="O" horiz-adv-x="1208" d="M102 532v390q0 256 124.5 394t357.5 138h41q233 0 357 -138t124 -394v-390q0 -256 -124 -394t-357 -138h-41q-233 0 -357.5 138t-124.5 394zM379 553q0 -297 205 -297h41q204 0 204 297v348q0 297 -204 297h-41q-205 0 -205 -297v-348z" />
<glyph unicode="P" horiz-adv-x="1187" d="M123 0v1454h481q114 0 200 -23.5t150.5 -74t97.5 -136.5t33 -206q0 -234 -124 -337.5t-357 -103.5h-205v-573h-276zM399 819h185q115 0 170 45t55 150t-54.5 149.5t-170.5 44.5h-185v-389z" />
<glyph unicode="Q" horiz-adv-x="1208" d="M102 532v390q0 256 124.5 394t357.5 138h41q233 0 357 -138t124 -394v-390q0 -256 -124 -394t-357 -138h-41q-233 0 -357.5 138t-124.5 394zM379 553q0 -297 205 -297h41q204 0 204 297v348q0 297 -204 297h-41q-205 0 -205 -297v-348zM512 -84l696 -49v-256l-696 49v256 z" />
<glyph unicode="R" horiz-adv-x="1167" d="M123 0v1454h491q471 0 471 -440q0 -345 -292 -420l354 -594h-307l-340 573h-101v-573h-276zM399 819h179q116 0 173.5 43.5t57.5 151.5t-54.5 151t-170.5 43h-185v-389z" />
<glyph unicode="S" d="M102 0v256h379q116 0 165.5 39t49.5 129v20q0 62 -40 95.5t-119 60.5l-175 57q-121 41 -190.5 126t-69.5 235v31q0 106 36.5 185.5t101.5 126.5t147.5 70t181.5 23h363v-256h-359q-103 0 -148.5 -36.5t-45.5 -112.5v-11q0 -48 31 -78.5t90 -50.5l174 -57 q52 -17 91.5 -35.5t80.5 -49.5t67.5 -70.5t43 -98.5t16.5 -133v-41q0 -232 -115 -328t-360 -96h-396z" />
<glyph unicode="T" horiz-adv-x="1167" d="M61 1198v256h1045v-256h-383v-1198h-277v1198h-385z" />
<glyph unicode="U" horiz-adv-x="1249" d="M123 532v922h276v-901q0 -297 205 -297h41q205 0 205 297v901h276v-922q0 -256 -124 -394t-357 -138h-41q-233 0 -357 138t-124 394z" />
<glyph unicode="V" horiz-adv-x="1187" d="M20 1454h297l277 -1061l276 1061h297l-399 -1454h-348z" />
<glyph unicode="W" horiz-adv-x="1914" d="M41 1454h297l209 -1061l262 1061h297l262 -1061l209 1061h297l-307 -1454h-348l-261 954l-262 -954h-348z" />
<glyph unicode="X" horiz-adv-x="1208" d="M0 0l438 745l-418 709h334l250 -426l250 426h334l-416 -709l436 -745h-334l-270 461l-270 -461h-334z" />
<glyph unicode="Y" horiz-adv-x="1177" d="M20 1454h308l262 -666l260 666h307l-430 -993l1 -461h-278l1 461z" />
<glyph unicode="Z" horiz-adv-x="993" d="M82 0v256l491 942h-491v256h829v-256l-491 -942h491v-256h-829z" />
<glyph unicode="[" horiz-adv-x="665" d="M123 -266v1986h522v-225h-246v-1536h246v-225h-522z" />
<glyph unicode="\" horiz-adv-x="870" d="M82 1454h287l419 -1454h-286z" />
<glyph unicode="]" horiz-adv-x="665" d="M20 -41h246v1536h-246v225h523v-1986h-523v225z" />
<glyph unicode="^" horiz-adv-x="1228" d="M102 819l390 635h245l389 -635h-276l-236 375l-235 -375h-277z" />
<glyph unicode="_" horiz-adv-x="1044" d="M0 -143h1044v-246h-1044v246z" />
<glyph unicode="`" horiz-adv-x="788" d="M102 1208v246l584 -61v-246z" />
<glyph unicode="a" horiz-adv-x="1034" d="M82 307q0 154 96 230.5t273 76.5h184v41q0 70 -36 101.5t-114 31.5h-321v256h366q111 0 186 -24.5t117.5 -75.5t60 -120t17.5 -169v-655h-503q-158 0 -242 73t-84 234zM358 317q0 -92 117 -92h160v191h-139q-73 0 -105.5 -24t-32.5 -75z" />
<glyph unicode="b" horiz-adv-x="1054" d="M123 0v1454h276v-410h215q169 0 253.5 -97.5t84.5 -270.5v-307q0 -173 -85 -271t-253 -98h-491zM399 246h142q135 0 135 153v246q0 154 -135 154h-142v-553z" />
<glyph unicode="c" horiz-adv-x="849" d="M102 410v225q0 204 108 306.5t308 102.5h250v-245h-231q-88 0 -123 -44.5t-35 -129.5v-205q0 -88 36 -131t124 -43h229v-246h-250q-200 0 -308 103t-108 307z" />
<glyph unicode="d" horiz-adv-x="1054" d="M102 369v307q0 173 84.5 270.5t253.5 97.5h215v410h277v-1454h-492q-168 0 -253 98t-85 271zM379 399q0 -153 135 -153h141v553h-141q-135 0 -135 -154v-246z" />
<glyph unicode="e" horiz-adv-x="1034" d="M102 416v209q0 191 103.5 305t296.5 114h41q187 0 288 -113.5t101 -305.5v-215h-553q6 -164 168 -164h334v-246h-355q-200 0 -312 106t-112 310zM379 608h276v37q0 78 -30 126t-95 48h-26q-65 0 -95 -48t-30 -126v-37z" />
<glyph unicode="f" horiz-adv-x="645" d="M31 799v245h143v76q0 75 17.5 134t46.5 96t69.5 61t83 33.5t90.5 9.5h154v-256h-90q-94 0 -94 -90v-64h163v-245h-163v-799h-277v799h-143z" />
<glyph unicode="g" horiz-adv-x="1054" d="M102 410v266q0 173 84.5 270.5t253.5 97.5h492v-993q0 -167 -42.5 -263t-129 -136.5t-232.5 -40.5h-344v256h297q95 0 134.5 41.5t39.5 122.5v10h-215q-168 0 -253 98t-85 271zM379 440q0 -153 135 -153h141v512h-141q-135 0 -135 -154v-205z" />
<glyph unicode="h" d="M123 0v1454h276v-410h215q169 0 253.5 -97.5t84.5 -270.5v-676h-276v645q0 154 -135 154h-142v-799h-276z" />
<glyph unicode="i" horiz-adv-x="522" d="M123 0v1044h276v-1044h-276zM123 1178v276h276v-276h-276z" />
<glyph unicode="j" horiz-adv-x="522" d="M-41 -143h94q36 0 53 18t17 59v1110h276v-1157q0 -147 -60.5 -211.5t-182.5 -64.5h-197v246zM123 1178v276h276v-276h-276z" />
<glyph unicode="k" horiz-adv-x="993" d="M123 0v1454h276v-1454h-276zM401 573l234 471h297l-234 -471l254 -573h-297z" />
<glyph unicode="l" horiz-adv-x="522" d="M123 0v1454h276v-1454h-276z" />
<glyph unicode="m" horiz-adv-x="1607" d="M113 0v645q0 87 21 157t65.5 125.5t121 86t179.5 30.5h55q142 0 250 -90q113 90 248 90h55q103 0 179.5 -30.5t121 -86t65.5 -125.5t21 -157v-645h-276v641q0 71 -31.5 109t-89.5 38h-35q-58 0 -89.5 -38t-31.5 -109v-641h-276v645q0 69 -32 106t-89 37h-35 q-58 0 -89.5 -38t-31.5 -109v-641h-276z" />
<glyph unicode="n" d="M123 0v1044h491q169 0 253.5 -97.5t84.5 -270.5v-676h-276v645q0 154 -135 154h-142v-799h-276z" />
<glyph unicode="o" horiz-adv-x="1036" d="M102 399v246q0 87 21 157t65.5 125.5t121 86t179.5 30.5h58q103 0 179.5 -30.5t121 -86t65.5 -125.5t21 -157v-246q0 -87 -21 -157t-65.5 -125.5t-121 -86t-179.5 -30.5h-58q-103 0 -179.5 30.5t-121 86t-65.5 125.5t-21 157zM379 389q0 -71 31.5 -109t89.5 -38h37 q58 0 89 38t31 109v266q0 71 -31 109.5t-89 38.5h-37q-58 0 -89.5 -38.5t-31.5 -109.5v-266z" />
<glyph unicode="p" horiz-adv-x="1054" d="M123 -389v1433h491q169 0 253.5 -97.5t84.5 -270.5v-307q0 -173 -85 -271t-253 -98h-215v-389h-276zM399 246h142q135 0 135 153v246q0 154 -135 154h-142v-553z" />
<glyph unicode="q" horiz-adv-x="1054" d="M102 369v307q0 173 84.5 270.5t253.5 97.5h492v-1433h-277v389h-215q-168 0 -253 98t-85 271zM379 399q0 -153 135 -153h141v553h-141q-135 0 -135 -154v-246z" />
<glyph unicode="r" horiz-adv-x="686" d="M123 0v676q0 173 84.5 270.5t253.5 97.5h184v-266h-110q-72 0 -104 -35t-32 -108v-635h-276z" />
<glyph unicode="s" horiz-adv-x="993" d="M102 0v246h379q72 0 102.5 16.5t30.5 54.5q0 40 -48 54q-19 6 -85 16l-71 10q-45 6 -81.5 15.5t-81 32t-74.5 55t-50.5 87.5t-20.5 126q0 90 30 155t86 103t127.5 55.5t162.5 17.5h342v-245h-348q-68 0 -95.5 -15t-27.5 -53q0 -8 1.5 -14.5t5.5 -11.5t7.5 -8.5t11.5 -7 t13.5 -5t17 -3.5t18 -3t21.5 -3t23 -3l86 -13q47 -7 85.5 -17.5t82 -34t72.5 -56t48 -86.5t19 -123q0 -98 -26 -165t-79.5 -105.5t-126 -55t-174.5 -16.5h-383z" />
<glyph unicode="t" horiz-adv-x="727" d="M31 799v245h143v308h277v-308h245v-245h-245v-426q0 -62 26 -89.5t78 -27.5h141v-256h-219q-303 0 -303 338v461h-143z" />
<glyph unicode="u" d="M123 369v675h276v-645q0 -153 136 -153h141v798h276v-1044h-491q-168 0 -253 98t-85 271z" />
<glyph unicode="v" horiz-adv-x="1126" d="M61 1044h270q16 0 29 -11t18 -28l186 -660l186 660q12 39 47 39l269 1l-300 -1004q-5 -18 -18.5 -29.5t-31.5 -11.5h-304q-34 0 -46 41z" />
<glyph unicode="w" horiz-adv-x="1607" d="M113 399v645h276v-651q0 -71 31.5 -109t89.5 -38h35q57 0 89 37t32 106v655h276v-651q0 -71 31.5 -109t89.5 -38h35q58 0 89.5 38t31.5 109v651h276v-645q0 -87 -21 -157t-65.5 -125.5t-121 -86t-179.5 -30.5h-55q-139 0 -248 86q-105 -86 -250 -86h-55 q-103 0 -179.5 30.5t-121 86t-65.5 125.5t-21 157z" />
<glyph unicode="x" horiz-adv-x="1024" d="M0 0l338 539l-318 505h349l143 -229l143 229h349l-318 -505l338 -539h-348l-164 262l-164 -262h-348z" />
<glyph unicode="y" d="M123 410v634h276v-604q0 -153 136 -153h141v757h276v-993q0 -126 -22.5 -210t-72.5 -135.5t-124 -73t-184 -21.5h-344v256h297q98 0 136 41t38 123v10h-215q-168 0 -253 98t-85 271z" />
<glyph unicode="z" horiz-adv-x="952" d="M82 0v246l387 553h-387v245h788v-245l-387 -553h387v-246h-788z" />
<glyph unicode="{" horiz-adv-x="727" d="M20 614v226h31q80 0 106.5 39.5t26.5 124.5v327q0 206 98.5 297.5t321.5 91.5h103v-225h-103q-82 0 -112.5 -40.5t-30.5 -123.5v-368q0 -97 -26 -155.5t-93 -80.5q66 -21 92.5 -79.5t26.5 -155.5v-369q0 -83 30.5 -123.5t112.5 -40.5h103v-225h-103q-221 0 -320.5 92 t-99.5 297v328q0 85 -26.5 124t-106.5 39h-31z" />
<glyph unicode="|" horiz-adv-x="522" d="M123 -205v1864h276v-1864h-276z" />
<glyph unicode="}" horiz-adv-x="727" d="M20 -41h103q82 0 112.5 40.5t30.5 123.5v369q0 97 26 155t93 80q-66 20 -92.5 79.5t-26.5 156.5v368q0 83 -30.5 123.5t-112.5 40.5h-103v225h103q221 0 320.5 -92t99.5 -297v-327q0 -85 26.5 -124.5t106.5 -39.5h31v-226h-31q-80 0 -106.5 -39t-26.5 -124v-328 q0 -206 -98.5 -297.5t-321.5 -91.5h-103v225z" />
<glyph unicode="~" d="M102 625v184q12 7 33 17t80.5 27t112.5 17q74 0 216 -30.5t208 -30.5h221v-184q-12 -7 -33 -17.5t-80 -27.5t-112 -17q-73 0 -214 31t-210 31h-222z" />
<glyph unicode="&#xa1;" horiz-adv-x="522" d="M113 768v297h297v-297h-297zM123 -389v973h276v-973h-276z" />
<glyph unicode="&#xa2;" horiz-adv-x="1024" d="M143 410v225q0 174 79.5 275t228.5 126v254h276v-246h154v-245h-303q-88 0 -123 -44.5t-35 -129.5v-205q0 -88 36 -131t124 -43h301v-246h-154v-246h-276v254q-149 25 -228.5 126.5t-79.5 275.5z" />
<glyph unicode="&#xa3;" horiz-adv-x="1024" d="M123 0v987q0 222 123.5 344.5t363.5 122.5h342v-256h-338q-215 0 -215 -211v-147h553v-256h-553v-328h553v-256h-829z" />
<glyph unicode="&#xa4;" horiz-adv-x="1024" d="M43 418l125 125q-33 73 -33 174v18q0 89 27 162l-119 119l170 170l111 -111q78 37 184 37q108 0 188 -41l115 115l170 -170l-125 -125q25 -73 25 -156v-18q0 -92 -31 -168l131 -131l-170 -170l-125 127q-78 -35 -178 -35q-93 0 -172 31l-123 -123zM383 717 q0 -148 125 -148q123 0 123 148v18q0 148 -123 148q-125 0 -125 -148v-18z" />
<glyph unicode="&#xa5;" horiz-adv-x="1024" d="M23 1454h307l184 -666l180 666h307l-176 -563h156v-236h-229l-39 -123h268v-235h-330v-297h-276v297h-332v235h270l-39 123h-231v236h158z" />
<glyph unicode="&#xa6;" horiz-adv-x="522" d="M123 -205v840h276v-840h-276zM123 819v840h276v-840h-276z" />
<glyph unicode="&#xa7;" horiz-adv-x="993" d="M102 0h359q84 0 118.5 20.5t34.5 61.5v29q0 12 -4 22t-15 18t-19 13t-28.5 11t-30 9t-36.5 9l-71 18q-119 31 -171 62q-137 80 -137 262v40q0 158 129 242q-129 77 -129 254v41q0 90 30.5 157t86 107t127.5 59t162 19h342v-246h-328q-79 0 -111 -19t-32 -59v-28 q0 -21 16.5 -35.5t35 -20t53.5 -13.5q9 -2 14 -3l86 -20q51 -12 85.5 -23.5t80.5 -36.5t73.5 -57t47.5 -86t20 -123v-63q0 -166 -109 -232q109 -78 109 -242v-41q0 -192 -100 -272t-306 -80h-383v246zM379 594q0 -84 119 -111l53 -12q63 24 63 98v62q0 48 -34 71t-99 37 l-28 6q-74 -33 -74 -104v-47z" />
<glyph unicode="&#xa8;" horiz-adv-x="931" d="M102 1178v276h277v-276h-277zM553 1178v276h276v-276h-276z" />
<glyph unicode="&#xa9;" horiz-adv-x="1597" d="M102 614v226q0 132 36 238t97 175t145 115.5t175 66t193 19.5h102q102 0 193 -19.5t174.5 -66t144.5 -115.5t97 -175t36 -238v-226q0 -132 -36 -238t-97 -175t-144.5 -115.5t-174.5 -66t-193 -19.5h-102q-102 0 -193 19.5t-175 66t-145 115.5t-97 175t-36 238zM399 625 q0 -171 95.5 -275t273.5 -104h61q178 0 273.5 104t95.5 275v204q0 171 -95.5 275t-273.5 104h-61q-178 0 -273.5 -104t-95.5 -275v-204zM492 686v82q0 164 100 251t295 87h147v-236h-129q-71 0 -104 -29t-33 -93v-41q0 -64 33 -93.5t104 -29.5h129v-236h-147q-195 0 -295 87 t-100 251z" />
<glyph unicode="&#xaa;" horiz-adv-x="1054" d="M102 717q0 154 96 230.5t273 76.5h184v41q0 70 -35.5 101.5t-113.5 31.5h-322v256h367q111 0 186 -24.5t117.5 -75.5t60 -120t17.5 -169v-655h-504q-158 0 -242 73t-84 234zM123 0v246h809v-246h-809zM379 727q0 -92 117 -92h159v190h-139q-73 0 -105 -23.5t-32 -74.5z " />
<glyph unicode="&#xab;" horiz-adv-x="1064" d="M102 676l144 368h297l-144 -368l144 -369h-297zM543 676l143 368h297l-143 -368l143 -369h-297z" />
<glyph unicode="&#xac;" d="M102 594v246h871v-574h-256v328h-615z" />
<glyph unicode="&#xad;" horiz-adv-x="716" d="M102 401v246h512v-246h-512z" />
<glyph unicode="&#xae;" horiz-adv-x="1597" d="M102 614v226q0 132 36 238t97 175t145 115.5t175 66t193 19.5h102q102 0 193 -19.5t174.5 -66t144.5 -115.5t97 -175t36 -238v-226q0 -132 -36 -238t-97 -175t-144.5 -115.5t-174.5 -66t-193 -19.5h-102q-102 0 -193 19.5t-175 66t-145 115.5t-97 175t-36 238zM399 625 q0 -171 95.5 -275t273.5 -104h61q178 0 273.5 104t95.5 275v204q0 171 -95.5 275t-273.5 104h-61q-178 0 -273.5 -104t-95.5 -275v-204zM543 348v758h270q293 0 293 -246q0 -189 -168 -229l158 -283h-215l-133 266h-11v-266h-194zM737 778h66q54 0 81 17.5t27 64.5 q0 48 -26.5 65t-81.5 17h-66v-164z" />
<glyph unicode="&#xaf;" horiz-adv-x="788" d="M102 1188v246h584v-246h-584z" />
<glyph unicode="&#xb0;" horiz-adv-x="1036" d="M102 997v52q0 86 23 157.5t69.5 128t124.5 88t181 31.5h37q103 0 181 -31.5t124 -88t69 -128t23 -157.5v-52q0 -86 -23 -157.5t-69 -128t-124 -88t-181 -31.5h-37q-103 0 -181 31.5t-124.5 88t-69.5 128t-23 157.5zM379 975q0 -71 31.5 -109.5t89.5 -38.5h37 q58 0 89 38.5t31 109.5v96q0 71 -31 109.5t-89 38.5h-37q-58 0 -89.5 -38.5t-31.5 -109.5v-96z" />
<glyph unicode="&#xb1;" d="M102 0v246h871v-246h-871zM102 614v246h308v307h256v-307h307v-246h-307v-307h-256v307h-308z" />
<glyph unicode="&#xb2;" horiz-adv-x="696" d="M49 582v204q0 62 19 111.5t49.5 79.5t67 53.5t73 38.5t67 28t49.5 29t19 35v25q0 47 -76 47h-268v221h281q155 0 237 -60t82 -196v-37q0 -74 -35.5 -128.5t-86 -83t-101 -49t-86 -39t-35.5 -40.5v-18h344v-221h-600z" />
<glyph unicode="&#xb3;" horiz-adv-x="696" d="M53 582v221h246q47 0 68.5 15.5t21.5 49.5v9q0 53 -94 53h-168v200h152q48 0 67 12.5t19 37.5v10q0 25 -19.5 34t-58.5 9h-234v221h254q70 0 123 -10.5t98 -35t69 -72t24 -115.5v-37q0 -51 -21 -81.5t-61 -58.5q106 -56 106 -159v-58q0 -58 -18 -102t-48 -70.5 t-73.5 -43.5t-90 -23t-102.5 -6h-260z" />
<glyph unicode="&#xb4;" horiz-adv-x="788" d="M102 1147v246l584 61v-246z" />
<glyph unicode="&#xb5;" d="M123 -389v1433h276v-645q0 -153 136 -153h141v798h276v-1044h-450q-56 0 -103 14v-403h-276z" />
<glyph unicode="&#xb6;" horiz-adv-x="1402" d="M102 1014q0 233 128.5 336.5t363.5 103.5h686v-1454h-655v573h-31q-114 0 -202 23.5t-154 74.5t-101 137t-35 206zM379 1014q0 -103 52.5 -149t152.5 -46h41v389h-41q-100 0 -152.5 -45.5t-52.5 -148.5zM881 225h143v1004h-143v-1004z" />
<glyph unicode="&#xb7;" horiz-adv-x="481" d="M102 594v276h277v-276h-277z" />
<glyph unicode="&#xb8;" horiz-adv-x="604" d="M102 -266h78q39 0 57.5 12t18.5 41q0 28 -17 38.5t-53 10.5h-69l53 246h184l-30 -139h8q170 0 170 -179q0 -41 -11 -72t-30 -50t-46.5 -31t-57 -16.5t-66.5 -4.5q-30 0 -77.5 5t-79.5 11l-32 5v123z" />
<glyph unicode="&#xb9;" horiz-adv-x="696" d="M61 1219v215l453 20v-872h-256v647z" />
<glyph unicode="&#xba;" horiz-adv-x="1036" d="M102 809v246q0 87 21 157t65.5 125.5t121 86t179.5 30.5h58q103 0 179.5 -30.5t121 -86t65.5 -125.5t21 -157v-246q0 -87 -21 -157t-65.5 -125.5t-121 -86t-179.5 -30.5h-58q-103 0 -179.5 30.5t-121 86t-65.5 125.5t-21 157zM123 0v246h790v-246h-790zM379 799 q0 -71 31.5 -109.5t89.5 -38.5h37q58 0 89 38.5t31 109.5v266q0 71 -31 109t-89 38h-37q-58 0 -89.5 -38t-31.5 -109v-266z" />
<glyph unicode="&#xbb;" horiz-adv-x="1064" d="M82 307l143 369l-143 368h297l143 -368l-143 -369h-297zM522 307l144 369l-144 368h297l144 -368l-144 -369h-297z" />
<glyph unicode="&#xbc;" horiz-adv-x="1832" d="M61 1219v215l453 20v-872h-256v647zM410 0l706 1454h307l-706 -1454h-307zM1157 117v192q78 155 78 400v163h256v-163q0 -239 -70 -371h105l20 301h223v-301h43v-221h-43v-117h-256v117h-356z" />
<glyph unicode="&#xbd;" horiz-adv-x="1832" d="M61 1219v215l453 20v-872h-256v647zM410 0l706 1454h307l-706 -1454h-307zM1186 0v205q0 62 19 111.5t49.5 79.5t67 53.5t73 38.5t67 28t49.5 29t19 35v24q0 47 -76 47h-268v221h280q155 0 237.5 -60t82.5 -196v-36q0 -74 -35.5 -128.5t-86 -83t-101 -49t-86 -39 t-35.5 -40.5v-19h344v-221h-600z" />
<glyph unicode="&#xbe;" horiz-adv-x="1832" d="M53 582v221h246q47 0 68.5 15.5t21.5 49.5v9q0 53 -94 53h-168v200h152q48 0 67 12.5t19 37.5v10q0 25 -19.5 34t-58.5 9h-234v221h254q70 0 123 -10.5t98 -35t69 -72t24 -115.5v-37q0 -51 -21 -81.5t-61 -58.5q106 -56 106 -159v-58q0 -58 -18 -102t-48 -70.5 t-73.5 -43.5t-90 -23t-102.5 -6h-260zM410 0l706 1454h307l-706 -1454h-307zM1157 117v192q78 155 78 400v163h256v-163q0 -239 -70 -371h105l20 301h223v-301h43v-221h-43v-117h-256v117h-356z" />
<glyph unicode="&#xbf;" horiz-adv-x="931" d="M102 -27q0 186 131 291l50 39q30 24 43.5 36.5t31 36.5t24.5 53t7 69v86h277v-86q0 -97 -17.5 -163t-46.5 -104.5t-80 -76.5l-53 -39q-2 -1 -14.5 -10.5t-15 -11.5t-13.5 -10.5t-13.5 -12t-10.5 -12t-10 -14.5t-6 -14.5t-5.5 -18t-1.5 -19.5v-21q0 -104 151 -104h320 v-256h-352q-89 0 -159.5 18t-124.5 56.5t-83 103.5t-29 154v30zM379 768v297h297v-297h-297z" />
<glyph unicode="&#xc0;" horiz-adv-x="1280" d="M41 0l430 1454h338l430 -1454h-297l-68 246h-468l-68 -246h-297zM348 1577v246l584 -21v-246zM477 502h326l-162 590z" />
<glyph unicode="&#xc1;" horiz-adv-x="1280" d="M41 0l430 1454h338l430 -1454h-297l-68 246h-468l-68 -246h-297zM348 1556v246l584 21v-246zM477 502h326l-162 590z" />
<glyph unicode="&#xc2;" horiz-adv-x="1280" d="M41 0l430 1454h338l430 -1454h-297l-68 246h-468l-68 -246h-297zM272 1516v245l369 103l369 -103v-245l-369 81zM477 502h326l-162 590z" />
<glyph unicode="&#xc3;" horiz-adv-x="1280" d="M41 0l430 1454h338l430 -1454h-297l-68 246h-468l-68 -246h-297zM272 1577v174q9 8 25.5 20t67.5 32t102 20q68 0 193.5 -25.5t158.5 -25.5h191v-175q-9 -8 -26 -20t-68 -31.5t-101 -19.5q-52 0 -182 25.5t-170 25.5h-191zM477 502h326l-162 590z" />
<glyph unicode="&#xc4;" horiz-adv-x="1280" d="M41 0l430 1454h338l430 -1454h-297l-68 246h-468l-68 -246h-297zM266 1536v276h277v-276h-277zM477 502h326l-162 590zM737 1536v276h277v-276h-277z" />
<glyph unicode="&#xc5;" horiz-adv-x="1280" d="M41 0l430 1454h338l430 -1454h-297l-68 246h-468l-68 -246h-297zM385 1700q0 105 68 165t188 60q119 0 187.5 -60.5t68.5 -164.5q0 -105 -68 -165t-188 -60q-119 0 -187.5 60.5t-68.5 164.5zM477 502h326l-162 590zM559 1700q0 -92 82 -92t82 92t-82 92t-82 -92z" />
<glyph unicode="&#xc6;" horiz-adv-x="1638" d="M20 0l564 1454h952v-256h-451v-328h451v-256h-451v-358h451v-256h-727v276h-375l-104 -276h-310zM532 532h277v666h-25z" />
<glyph unicode="&#xc7;" horiz-adv-x="993" d="M102 532v390q0 256 128.5 394t373.5 138h307v-262h-307q-123 0 -174 -76t-51 -215v-348q0 -140 52 -215.5t183 -75.5h297v-262h-247l-13 -57h8q170 0 170 -179q0 -41 -11 -72t-30 -50t-46.5 -31t-57 -16.5t-66.5 -4.5q-30 0 -77 5t-79 11l-32 5v123h78q39 0 57.5 12 t18.5 41q0 28 -17 38.5t-53 10.5h-70l37 174q-185 32 -282 166t-97 356z" />
<glyph unicode="&#xc8;" horiz-adv-x="1054" d="M123 0v1454h829v-256h-553v-328h553v-256h-553v-358h553v-256h-829zM248 1577v246l583 -21v-246z" />
<glyph unicode="&#xc9;" horiz-adv-x="1054" d="M123 0v1454h829v-256h-553v-328h553v-256h-553v-358h553v-256h-829zM260 1556v246l584 21v-246z" />
<glyph unicode="&#xca;" horiz-adv-x="1054" d="M123 0v1454h829v-256h-553v-328h553v-256h-553v-358h553v-256h-829zM170 1516v245l369 103l368 -103v-245l-368 81z" />
<glyph unicode="&#xcb;" horiz-adv-x="1054" d="M123 0v1454h829v-256h-553v-328h553v-256h-553v-358h553v-256h-829zM164 1536v276h276v-276h-276zM635 1536v276h276v-276h-276z" />
<glyph unicode="&#xcc;" horiz-adv-x="911" d="M61 0v184h256v1086h-256v184h789v-184h-256v-1086h256v-184h-789zM164 1577v246l584 -21v-246z" />
<glyph unicode="&#xcd;" horiz-adv-x="911" d="M61 0v184h256v1086h-256v184h789v-184h-256v-1086h256v-184h-789zM164 1556v246l584 21v-246z" />
<glyph unicode="&#xce;" horiz-adv-x="911" d="M61 0v184h256v1086h-256v184h789v-184h-256v-1086h256v-184h-789zM88 1516v245l369 103l368 -103v-245l-368 81z" />
<glyph unicode="&#xcf;" horiz-adv-x="911" d="M61 0v184h256v1086h-256v184h789v-184h-256v-1086h256v-184h-789zM102 1536v276h277v-276h-277zM532 1536v276h277v-276h-277z" />
<glyph unicode="&#xd0;" horiz-adv-x="1228" d="M123 0v1454h502q245 0 373 -137.5t128 -394.5v-390q0 -257 -128 -394.5t-373 -137.5h-502zM399 256h226q63 0 108 22t70 63.5t36 93t11 118.5v348q0 67 -11 118.5t-36 93t-70 63.5t-108 22h-226v-328h328v-256h-328v-358z" />
<glyph unicode="&#xd1;" horiz-adv-x="1249" d="M123 0v1454h276l451 -868v868h276v-1454h-276l-451 868v-868h-276zM256 1577v174q9 8 25.5 20t67.5 32t102 20q68 0 193.5 -25.5t158.5 -25.5h190v-175q-3 -3 -9.5 -7.5t-26.5 -17t-41 -22t-53 -17t-64 -7.5q-52 0 -182.5 25.5t-170.5 25.5h-190z" />
<glyph unicode="&#xd2;" horiz-adv-x="1208" d="M102 532v390q0 256 124.5 394t357.5 138h41q233 0 357 -138t124 -394v-390q0 -256 -124 -394t-357 -138h-41q-233 0 -357.5 138t-124.5 394zM313 1577v246l584 -21v-246zM379 553q0 -297 205 -297h41q204 0 204 297v348q0 297 -204 297h-41q-205 0 -205 -297v-348z" />
<glyph unicode="&#xd3;" horiz-adv-x="1208" d="M102 532v390q0 256 124.5 394t357.5 138h41q233 0 357 -138t124 -394v-390q0 -256 -124 -394t-357 -138h-41q-233 0 -357.5 138t-124.5 394zM334 1556v246l584 21v-246zM379 553q0 -297 205 -297h41q204 0 204 297v348q0 297 -204 297h-41q-205 0 -205 -297v-348z" />
<glyph unicode="&#xd4;" horiz-adv-x="1208" d="M102 532v390q0 256 124.5 394t357.5 138h41q233 0 357 -138t124 -394v-390q0 -256 -124 -394t-357 -138h-41q-233 0 -357.5 138t-124.5 394zM236 1516v245l368 103l369 -103v-245l-369 81zM379 553q0 -297 205 -297h41q204 0 204 297v348q0 297 -204 297h-41 q-205 0 -205 -297v-348z" />
<glyph unicode="&#xd5;" horiz-adv-x="1208" d="M102 532v390q0 256 124.5 394t357.5 138h41q233 0 357 -138t124 -394v-390q0 -256 -124 -394t-357 -138h-41q-233 0 -357.5 138t-124.5 394zM236 1577v174q9 8 25 20t67 32t102 20q68 0 193.5 -25.5t158.5 -25.5h191v-175q-9 -8 -26 -20t-68 -31.5t-101 -19.5 q-52 0 -182 25.5t-170 25.5h-190zM379 553q0 -297 205 -297h41q204 0 204 297v348q0 297 -204 297h-41q-205 0 -205 -297v-348z" />
<glyph unicode="&#xd6;" horiz-adv-x="1208" d="M102 532v390q0 256 124.5 394t357.5 138h41q233 0 357 -138t124 -394v-390q0 -256 -124 -394t-357 -138h-41q-233 0 -357.5 138t-124.5 394zM201 1536v276h276v-276h-276zM379 553q0 -297 205 -297h41q204 0 204 297v348q0 297 -204 297h-41q-205 0 -205 -297v-348z M733 1536v276h277v-276h-277z" />
<glyph unicode="&#xd7;" horiz-adv-x="1079" d="M102 453l265 264l-265 264l172 174l267 -264l264 264l172 -174l-264 -264l264 -264l-172 -174l-266 264l-265 -264z" />
<glyph unicode="&#xd8;" horiz-adv-x="1208" d="M102 532v390q0 256 124.5 394t357.5 138h41q79 0 139 -14l76 219h174l-99 -285q191 -131 191 -452v-390q0 -256 -124 -394t-357 -138h-41q-80 0 -140 14l-75 -219h-174l98 285q-191 131 -191 452zM379 553q0 -100 22 -162l277 801q-24 6 -53 6h-41q-205 0 -205 -297v-348 zM530 262q24 -6 54 -6h41q204 0 204 297v348q0 100 -22 162z" />
<glyph unicode="&#xd9;" horiz-adv-x="1249" d="M123 532v922h276v-901q0 -297 205 -297h41q205 0 205 297v901h276v-922q0 -256 -124 -394t-357 -138h-41q-233 0 -357 138t-124 394zM334 1577v246l584 -21v-246z" />
<glyph unicode="&#xda;" horiz-adv-x="1249" d="M123 532v922h276v-901q0 -297 205 -297h41q205 0 205 297v901h276v-922q0 -256 -124 -394t-357 -138h-41q-233 0 -357 138t-124 394zM334 1556v246l584 21v-246z" />
<glyph unicode="&#xdb;" horiz-adv-x="1249" d="M123 532v922h276v-901q0 -297 205 -297h41q205 0 205 297v901h276v-922q0 -256 -124 -394t-357 -138h-41q-233 0 -357 138t-124 394zM256 1516v245l369 103l368 -103v-245l-368 81z" />
<glyph unicode="&#xdc;" horiz-adv-x="1249" d="M123 532v922h276v-901q0 -297 205 -297h41q205 0 205 297v901h276v-922q0 -256 -124 -394t-357 -138h-41q-233 0 -357 138t-124 394zM252 1536v276h276v-276h-276zM723 1536v276h276v-276h-276z" />
<glyph unicode="&#xdd;" horiz-adv-x="1177" d="M20 1454h308l262 -666l260 666h307l-430 -993l4 -461h-282l2 461zM297 1556v246l584 21v-246z" />
<glyph unicode="&#xde;" horiz-adv-x="1187" d="M123 0v1454h276v-266h205q114 0 200 -23.5t150.5 -74t97.5 -136.5t33 -206q0 -234 -124 -337.5t-357 -103.5h-205v-307h-276zM399 553h185q115 0 170 45t55 150t-54.5 149.5t-170.5 44.5h-185v-389z" />
<glyph unicode="&#xdf;" horiz-adv-x="1157" d="M123 0v1040q0 189 97.5 301.5t297.5 112.5h21q174 0 278.5 -93t104.5 -263q0 -68 -16 -125.5t-35.5 -89t-35.5 -66.5t-16 -63q0 -25 14.5 -46.5t38 -38.5t52 -35.5t57 -44t52 -57t38 -80.5t14.5 -110q0 -180 -91.5 -261t-250.5 -81h-241v246h205q51 0 76.5 14t25.5 62 q0 33 -27.5 61.5t-66.5 54.5t-78 59t-66.5 90t-27.5 132q0 57 16 111t35 88.5t35 77t16 79.5q0 123 -106 123h-21q-58 0 -88.5 -42.5t-30.5 -121.5v-1034h-276z" />
<glyph unicode="&#xe0;" horiz-adv-x="1034" d="M82 307q0 154 96 230.5t273 76.5h184v41q0 70 -36 101.5t-114 31.5h-321v256h366q111 0 186 -24.5t117.5 -75.5t60 -120t17.5 -169v-655h-503q-158 0 -242 73t-84 234zM225 1208v246l584 -61v-246zM358 317q0 -92 117 -92h160v191h-139q-73 0 -105.5 -24t-32.5 -75z" />
<glyph unicode="&#xe1;" horiz-adv-x="1034" d="M82 307q0 154 96 230.5t273 76.5h184v41q0 70 -36 101.5t-114 31.5h-321v256h366q111 0 186 -24.5t117.5 -75.5t60 -120t17.5 -169v-655h-503q-158 0 -242 73t-84 234zM225 1147v246l584 61v-246zM358 317q0 -92 117 -92h160v191h-139q-73 0 -105.5 -24t-32.5 -75z" />
<glyph unicode="&#xe2;" horiz-adv-x="1034" d="M82 307q0 154 96 230.5t273 76.5h184v41q0 70 -36 101.5t-114 31.5h-321v256h366q111 0 186 -24.5t117.5 -75.5t60 -120t17.5 -169v-655h-503q-158 0 -242 73t-84 234zM150 1126v246l368 123l369 -123v-246l-369 103zM358 317q0 -92 117 -92h160v191h-139 q-73 0 -105.5 -24t-32.5 -75z" />
<glyph unicode="&#xe3;" horiz-adv-x="1034" d="M82 307q0 154 96 230.5t273 76.5h184v41q0 70 -36 101.5t-114 31.5h-321v256h366q111 0 186 -24.5t117.5 -75.5t60 -120t17.5 -169v-655h-503q-158 0 -242 73t-84 234zM164 1208v174q9 8 25 20t67 32t102 20q68 0 194 -25.5t159 -25.5h190v-174q-9 -8 -25.5 -20 t-67.5 -32t-101 -20q-52 0 -182.5 25.5t-170.5 25.5h-190zM358 317q0 -92 117 -92h160v191h-139q-73 0 -105.5 -24t-32.5 -75z" />
<glyph unicode="&#xe4;" horiz-adv-x="1034" d="M82 307q0 154 96 230.5t273 76.5h184v41q0 70 -36 101.5t-114 31.5h-321v256h366q111 0 186 -24.5t117.5 -75.5t60 -120t17.5 -169v-655h-503q-158 0 -242 73t-84 234zM164 1178v276h276v-276h-276zM358 317q0 -92 117 -92h160v191h-139q-73 0 -105.5 -24t-32.5 -75z M614 1178v276h277v-276h-277z" />
<glyph unicode="&#xe5;" horiz-adv-x="1034" d="M82 307q0 154 96 230.5t273 76.5h184v41q0 70 -36 101.5t-114 31.5h-321v256h366q111 0 186 -24.5t117.5 -75.5t60 -120t17.5 -169v-655h-503q-158 0 -242 73t-84 234zM262 1331q0 105 68 165t188 60q119 0 187.5 -60.5t68.5 -164.5q0 -105 -68 -165t-188 -60 q-119 0 -187.5 60.5t-68.5 164.5zM358 317q0 -92 117 -92h160v191h-139q-73 0 -105.5 -24t-32.5 -75zM436 1331q0 -92 82 -92t82 92t-82 92t-82 -92z" />
<glyph unicode="&#xe6;" horiz-adv-x="1566" d="M82 307q0 154 96 230.5t273 76.5h184v41q0 70 -36 101.5t-114 31.5h-321v256h366q178 0 267 -65q97 65 237 65h41q187 0 288 -113.5t101 -305.5v-215h-553q6 -164 168 -164h334v-246h-1005q-158 0 -242 73t-84 234zM358 317q0 -92 117 -92h191q-31 79 -31 181v10h-139 q-73 0 -105.5 -24t-32.5 -75zM911 608h277v37q0 78 -30 126t-95 48h-27q-65 0 -95 -48t-30 -126v-37z" />
<glyph unicode="&#xe7;" horiz-adv-x="849" d="M102 410v225q0 204 108 306.5t308 102.5h250v-245h-231q-88 0 -123 -44.5t-35 -129.5v-205q0 -88 36 -131t124 -43h229v-246h-227l-13 -57h9q170 0 170 -179q0 -41 -11 -72t-30 -50t-46.5 -31t-57 -16.5t-66.5 -4.5q-30 0 -77.5 5t-79.5 11l-32 5v123h78q39 0 57.5 12 t18.5 41q0 28 -17 38.5t-53 10.5h-69l38 184q-258 73 -258 390z" />
<glyph unicode="&#xe8;" horiz-adv-x="1034" d="M102 416v209q0 191 103.5 305t296.5 114h41q187 0 288 -113.5t101 -305.5v-215h-553q6 -164 168 -164h334v-246h-355q-200 0 -312 106t-112 310zM225 1208v246l584 -61v-246zM379 608h276v37q0 78 -30 126t-95 48h-26q-65 0 -95 -48t-30 -126v-37z" />
<glyph unicode="&#xe9;" horiz-adv-x="1034" d="M102 416v209q0 191 103.5 305t296.5 114h41q187 0 288 -113.5t101 -305.5v-215h-553q6 -164 168 -164h334v-246h-355q-200 0 -312 106t-112 310zM225 1147v246l584 61v-246zM379 608h276v37q0 78 -30 126t-95 48h-26q-65 0 -95 -48t-30 -126v-37z" />
<glyph unicode="&#xea;" horiz-adv-x="1034" d="M102 416v209q0 191 103.5 305t296.5 114h41q187 0 288 -113.5t101 -305.5v-215h-553q6 -164 168 -164h334v-246h-355q-200 0 -312 106t-112 310zM150 1126v246l368 123l369 -123v-246l-369 103zM379 608h276v37q0 78 -30 126t-95 48h-26q-65 0 -95 -48t-30 -126v-37z" />
<glyph unicode="&#xeb;" horiz-adv-x="1034" d="M102 416v209q0 191 103.5 305t296.5 114h41q187 0 288 -113.5t101 -305.5v-215h-553q6 -164 168 -164h334v-246h-355q-200 0 -312 106t-112 310zM154 1178v276h276v-276h-276zM379 608h276v37q0 78 -30 126t-95 48h-26q-65 0 -95 -48t-30 -126v-37zM604 1178v276h277 v-276h-277z" />
<glyph unicode="&#xec;" horiz-adv-x="522" d="M-31 1208v246l584 -61v-246zM123 0v1044h276v-1044h-276z" />
<glyph unicode="&#xed;" horiz-adv-x="522" d="M-31 1147v246l584 61v-246zM123 0v1044h276v-1044h-276z" />
<glyph unicode="&#xee;" horiz-adv-x="522" d="M-106 1126v246l368 123l369 -123v-246l-369 103zM123 0v1044h276v-1044h-276z" />
<glyph unicode="&#xef;" horiz-adv-x="522" d="M-72 1178v276h277v-276h-277zM123 0v1044h276v-1044h-276zM317 1178v276h277v-276h-277z" />
<glyph unicode="&#xf0;" horiz-adv-x="1085" d="M102 430v109q0 181 101 293t291 112h213v19q0 53 -17 106l-239 -88v143l139 52q-55 22 -129 22h-256v256h266q273 0 408 -172l165 61v-143l-100 -37q39 -106 39 -241v-492q0 -207 -111.5 -318.5t-318.5 -111.5h-21q-212 0 -321 112.5t-109 317.5zM379 436q0 -88 35 -134 t118 -46h21q79 0 116.5 44.5t37.5 135.5v252h-164q-81 0 -122.5 -37t-41.5 -127v-88z" />
<glyph unicode="&#xf1;" d="M123 0v1044h491q169 0 253.5 -97.5t84.5 -270.5v-676h-276v645q0 154 -135 154h-142v-799h-276zM170 1208v174q9 8 25.5 20t67.5 32t102 20q68 0 193.5 -25.5t158.5 -25.5h190v-174q-9 -8 -25.5 -20t-67.5 -32t-101 -20q-52 0 -182.5 25.5t-170.5 25.5h-190z" />
<glyph unicode="&#xf2;" horiz-adv-x="1036" d="M102 399v246q0 87 21 157t65.5 125.5t121 86t179.5 30.5h58q103 0 179.5 -30.5t121 -86t65.5 -125.5t21 -157v-246q0 -87 -21 -157t-65.5 -125.5t-121 -86t-179.5 -30.5h-58q-103 0 -179.5 30.5t-121 86t-65.5 125.5t-21 157zM227 1208v246l584 -61v-246zM379 389 q0 -71 31.5 -109t89.5 -38h37q58 0 89 38t31 109v266q0 71 -31 109.5t-89 38.5h-37q-58 0 -89.5 -38.5t-31.5 -109.5v-266z" />
<glyph unicode="&#xf3;" horiz-adv-x="1036" d="M102 399v246q0 87 21 157t65.5 125.5t121 86t179.5 30.5h58q103 0 179.5 -30.5t121 -86t65.5 -125.5t21 -157v-246q0 -87 -21 -157t-65.5 -125.5t-121 -86t-179.5 -30.5h-58q-103 0 -179.5 30.5t-121 86t-65.5 125.5t-21 157zM227 1147v246l584 61v-246zM379 389 q0 -71 31.5 -109t89.5 -38h37q58 0 89 38t31 109v266q0 71 -31 109.5t-89 38.5h-37q-58 0 -89.5 -38.5t-31.5 -109.5v-266z" />
<glyph unicode="&#xf4;" horiz-adv-x="1036" d="M102 399v246q0 87 21 157t65.5 125.5t121 86t179.5 30.5h58q103 0 179.5 -30.5t121 -86t65.5 -125.5t21 -157v-246q0 -87 -21 -157t-65.5 -125.5t-121 -86t-179.5 -30.5h-58q-103 0 -179.5 30.5t-121 86t-65.5 125.5t-21 157zM150 1126v246l368 123l369 -123v-246 l-369 103zM379 389q0 -71 31.5 -109t89.5 -38h37q58 0 89 38t31 109v266q0 71 -31 109.5t-89 38.5h-37q-58 0 -89.5 -38.5t-31.5 -109.5v-266z" />
<glyph unicode="&#xf5;" horiz-adv-x="1036" d="M102 399v246q0 87 21 157t65.5 125.5t121 86t179.5 30.5h58q103 0 179.5 -30.5t121 -86t65.5 -125.5t21 -157v-246q0 -87 -21 -157t-65.5 -125.5t-121 -86t-179.5 -30.5h-58q-103 0 -179.5 30.5t-121 86t-65.5 125.5t-21 157zM150 1208v174q9 8 25 20t67 32t102 20 q68 0 193.5 -25.5t158.5 -25.5h191v-174q-9 -8 -26 -20t-68 -32t-101 -20q-52 0 -182 25.5t-170 25.5h-190zM379 389q0 -71 31.5 -109t89.5 -38h37q58 0 89 38t31 109v266q0 71 -31 109.5t-89 38.5h-37q-58 0 -89.5 -38.5t-31.5 -109.5v-266z" />
<glyph unicode="&#xf6;" horiz-adv-x="1036" d="M102 399v246q0 87 21 157t65.5 125.5t121 86t179.5 30.5h58q103 0 179.5 -30.5t121 -86t65.5 -125.5t21 -157v-246q0 -87 -21 -157t-65.5 -125.5t-121 -86t-179.5 -30.5h-58q-103 0 -179.5 30.5t-121 86t-65.5 125.5t-21 157zM156 1178v276h276v-276h-276zM379 389 q0 -71 31.5 -109t89.5 -38h37q58 0 89 38t31 109v266q0 71 -31 109.5t-89 38.5h-37q-58 0 -89.5 -38.5t-31.5 -109.5v-266zM606 1178v276h277v-276h-277z" />
<glyph unicode="&#xf7;" d="M102 594v246h871v-246h-871zM399 215v277h277v-277h-277zM399 942v277h277v-277h-277z" />
<glyph unicode="&#xf8;" horiz-adv-x="1036" d="M102 399v246q0 87 21 157t65.5 125.5t121 86t179.5 30.5h58q25 0 71 -4l68 189h174l-86 -240q160 -99 160 -344v-246q0 -87 -21 -157t-65.5 -125.5t-121 -86t-179.5 -30.5h-58q-25 0 -65 4l-76 -209h-174l92 258q-164 95 -164 346zM379 389q0 -32 6 -59l170 473h-18h-37 q-58 0 -89.5 -38.5t-31.5 -109.5v-266zM487 242h13h37q58 0 89 38t31 109v266q0 36 -4 50z" />
<glyph unicode="&#xf9;" d="M123 369v675h276v-645q0 -153 136 -153h141v798h276v-1044h-491q-168 0 -253 98t-85 271zM246 1208v246l583 -61v-246z" />
<glyph unicode="&#xfa;" d="M123 369v675h276v-645q0 -153 136 -153h141v798h276v-1044h-491q-168 0 -253 98t-85 271zM246 1147v246l583 61v-246z" />
<glyph unicode="&#xfb;" d="M123 369v675h276v-645q0 -153 136 -153h141v798h276v-1044h-491q-168 0 -253 98t-85 271zM170 1126v246l369 123l368 -123v-246l-368 103z" />
<glyph unicode="&#xfc;" d="M123 369v675h276v-645q0 -153 136 -153h141v798h276v-1044h-491q-168 0 -253 98t-85 271zM174 1178v276h277v-276h-277zM625 1178v276h276v-276h-276z" />
<glyph unicode="&#xfd;" d="M123 410v634h276v-604q0 -153 136 -153h141v757h276v-993q0 -126 -22.5 -210t-72.5 -135.5t-124 -73t-184 -21.5h-344v256h297q98 0 136 41t38 123v10h-215q-168 0 -253 98t-85 271zM246 1147v246l583 61v-246z" />
<glyph unicode="&#xfe;" d="M123 -389v1843h276v-410h215q169 0 253.5 -97.5t84.5 -270.5v-307q0 -173 -85 -271t-253 -98h-215v-389h-276zM399 246h142q135 0 135 153v246q0 154 -135 154h-142v-553z" />
<glyph unicode="&#xff;" d="M123 410v634h276v-604q0 -153 136 -153h141v757h276v-993q0 -126 -22.5 -210t-72.5 -135.5t-124 -73t-184 -21.5h-344v256h297q98 0 136 41t38 123v10h-215q-168 0 -253 98t-85 271zM174 1178v276h277v-276h-277zM625 1178v276h276v-276h-276z" />
<glyph unicode="&#x131;" horiz-adv-x="522" d="M123 0v1044h276v-1044h-276z" />
<glyph unicode="&#x141;" horiz-adv-x="1034" d="M41 625v153l82 19v657h276v-598l287 62v-154l-287 -62v-446h553v-256h-829v643z" />
<glyph unicode="&#x142;" horiz-adv-x="522" d="M41 625v153l82 19v657h276v-600l82 18v-153l-82 -19v-700h-276v643z" />
<glyph unicode="&#x152;" horiz-adv-x="1617" d="M102 532v390q0 256 124.5 394t357.5 138h932v-256h-451v-328h451v-256h-451v-358h451v-256h-932q-233 0 -357.5 138t-124.5 394zM379 553q0 -297 205 -297h204v942h-204q-205 0 -205 -297v-348z" />
<glyph unicode="&#x153;" horiz-adv-x="1589" d="M102 399v246q0 87 21 157t65.5 125.5t121 86t179.5 30.5h58q159 0 256 -75q101 75 254 75h41q187 0 288 -113.5t101 -305.5v-215h-553q6 -164 168 -164h334v-246h-355q-172 0 -276 76q-99 -76 -258 -76h-58q-103 0 -179.5 30.5t-121 86t-65.5 125.5t-21 157zM379 389 q0 -71 31.5 -109t89.5 -38h37q58 0 89 38t31 109v266q0 71 -31 109.5t-89 38.5h-37q-58 0 -89.5 -38.5t-31.5 -109.5v-266zM934 608h276v37q0 78 -30 126t-95 48h-26q-65 0 -95 -48t-30 -126v-37z" />
<glyph unicode="&#x160;" d="M102 0v256h379q116 0 165.5 39t49.5 129v20q0 62 -40 95.5t-119 60.5l-175 57q-121 41 -190.5 126t-69.5 235v31q0 106 36.5 185.5t101.5 126.5t147.5 70t181.5 23h363v-256h-359q-103 0 -148.5 -36.5t-45.5 -112.5v-11q0 -48 31 -78.5t90 -50.5l174 -57 q52 -17 91.5 -35.5t80.5 -49.5t67.5 -70.5t43 -98.5t16.5 -133v-41q0 -232 -115 -328t-360 -96h-396zM170 1618v246l369 -82l368 82v-246l-368 -102z" />
<glyph unicode="&#x161;" horiz-adv-x="993" d="M102 0v246h379q72 0 102.5 16.5t30.5 54.5q0 40 -48 54q-19 6 -85 16l-71 10q-45 6 -81.5 15.5t-81 32t-74.5 55t-50.5 87.5t-20.5 126q0 90 30 155t86 103t127.5 55.5t162.5 17.5h342v-245h-348q-68 0 -95.5 -15t-27.5 -53q0 -8 1.5 -14.5t5.5 -11.5t7.5 -8.5t11.5 -7 t13.5 -5t17 -3.5t18 -3t21.5 -3t23 -3l86 -13q47 -7 85.5 -17.5t82 -34t72.5 -56t48 -86.5t19 -123q0 -98 -26 -165t-79.5 -105.5t-126 -55t-174.5 -16.5h-383zM129 1249v246l369 -102l368 102v-246l-368 -123z" />
<glyph unicode="&#x178;" horiz-adv-x="1177" d="M20 1454h308l262 -666l260 666h307l-430 -993l4 -461h-280v461zM215 1536v276h277v-276h-277zM686 1536v276h277v-276h-277z" />
<glyph unicode="&#x17d;" horiz-adv-x="993" d="M82 0v256l491 942h-491v256h829v-256l-491 -942h491v-256h-829zM129 1618v246l369 -82l368 82v-246l-368 -102z" />
<glyph unicode="&#x17e;" horiz-adv-x="952" d="M82 0v246l387 553h-387v245h788v-245l-387 -553h387v-246h-788zM109 1249v246l368 -102l369 102v-246l-369 -123z" />
<glyph unicode="&#x192;" horiz-adv-x="1024" d="M154 -143h155q36 0 53 18t17 59v865h-184v245h184v76q0 75 17.5 134t46.5 96t69.5 61t83 33.5t90.5 9.5h215v-256h-151q-95 0 -95 -90v-64h226v-245h-226v-912q0 -147 -60.5 -211.5t-182.5 -64.5h-258v246z" />
<glyph unicode="&#x2c6;" horiz-adv-x="942" d="M102 1126v246l369 123l369 -123v-246l-369 103z" />
<glyph unicode="&#x2c7;" horiz-adv-x="942" d="M102 1249v246l369 -102l369 102v-246l-369 -123z" />
<glyph unicode="&#x2c9;" horiz-adv-x="788" d="M102 1188v246h584v-246h-584z" />
<glyph unicode="&#x2d8;" horiz-adv-x="942" d="M102 1208v277q8 -5 23 -12.5t59.5 -27t87 -34.5t98.5 -27t101 -12t100 11.5t100.5 28t84.5 33.5t62 29l22 11v-277q-6 -4 -18 -11t-51 -24.5t-79.5 -31t-101 -24.5t-119.5 -11q-94 0 -186 25.5t-137 50.5z" />
<glyph unicode="&#x2d9;" horiz-adv-x="481" d="M102 1178v276h277v-276h-277z" />
<glyph unicode="&#x2da;" horiz-adv-x="716" d="M102 1331q0 105 68 165t188 60q119 0 187.5 -60.5t68.5 -164.5q0 -105 -68 -165t-188 -60q-119 0 -187.5 60.5t-68.5 164.5zM276 1331q0 -92 82 -92t82 92t-82 92t-82 -92z" />
<glyph unicode="&#x2db;" horiz-adv-x="593" d="M102 -174q0 55 22 103.5t54 78.5t63.5 52.5t53.5 31.5l22 10h175q-5 -4 -12.5 -12.5t-27 -35.5t-34.5 -56t-27 -73.5t-12 -88.5q0 -53 18 -109t36 -86l18 -30h-256q-4 3 -10 8.5t-22 25.5t-28.5 43t-22.5 60t-10 78z" />
<glyph unicode="&#x2dc;" horiz-adv-x="942" d="M102 1208v174q9 8 25.5 20t67.5 32t102 20q68 0 193.5 -25.5t158.5 -25.5h191v-174q-9 -8 -26 -20t-68 -32t-101 -20q-52 0 -182 25.5t-170 25.5h-191z" />
<glyph unicode="&#x2dd;" horiz-adv-x="1032" d="M102 1106l172 369h267l-172 -369h-267zM492 1106l172 369h266l-172 -369h-266z" />
<glyph unicode="&#x3a0;" horiz-adv-x="1515" d="M20 1198v256h1475v-256h-266v-825q0 -62 26 -89.5t78 -27.5h162v-256h-240q-303 0 -303 338v860h-450v-1198h-277v1198h-205z" />
<glyph unicode="&#x3a3;" horiz-adv-x="993" d="M82 0v256l250 471l-250 471v256h829v-256h-497l250 -471l-250 -471h497v-256h-829z" />
<glyph unicode="&#x3bc;" d="M123 -389v1433h276v-645q0 -153 136 -153h141v798h276v-1044h-450q-56 0 -103 14v-403h-276z" />
<glyph unicode="&#x3c0;" horiz-adv-x="1280" d="M20 799v245h1240v-245h-267v-426q0 -61 26.5 -89t78.5 -28h141v-256h-219q-303 0 -303 338v461h-277v-799h-276v799h-144z" />
<glyph unicode="&#x2000;" horiz-adv-x="962" />
<glyph unicode="&#x2001;" horiz-adv-x="1925" />
<glyph unicode="&#x2002;" horiz-adv-x="962" />
<glyph unicode="&#x2003;" horiz-adv-x="1925" />
<glyph unicode="&#x2004;" horiz-adv-x="641" />
<glyph unicode="&#x2005;" horiz-adv-x="481" />
<glyph unicode="&#x2006;" horiz-adv-x="320" />
<glyph unicode="&#x2007;" horiz-adv-x="320" />
<glyph unicode="&#x2008;" horiz-adv-x="240" />
<glyph unicode="&#x2009;" horiz-adv-x="385" />
<glyph unicode="&#x200a;" horiz-adv-x="106" />
<glyph unicode="&#x2010;" horiz-adv-x="716" d="M102 401v246h512v-246h-512z" />
<glyph unicode="&#x2011;" horiz-adv-x="716" d="M102 401v246h512v-246h-512z" />
<glyph unicode="&#x2012;" horiz-adv-x="716" d="M102 401v246h512v-246h-512z" />
<glyph unicode="&#x2013;" horiz-adv-x="1249" d="M102 403v246h1045v-246h-1045z" />
<glyph unicode="&#x2014;" horiz-adv-x="1454" d="M102 401v246h1250v-246h-1250z" />
<glyph unicode="&#x2018;" horiz-adv-x="501" d="M102 809l72 645h225v-645h-297z" />
<glyph unicode="&#x2019;" horiz-adv-x="501" d="M102 809v645h297l-71 -645h-226z" />
<glyph unicode="&#x201a;" horiz-adv-x="501" d="M102 297h297l-71 -645h-226v645z" />
<glyph unicode="&#x201c;" horiz-adv-x="921" d="M102 809l72 645h225v-645h-297zM522 809l72 645h225v-645h-297z" />
<glyph unicode="&#x201d;" horiz-adv-x="921" d="M102 809v645h297l-71 -645h-226zM522 809v645h297l-71 -645h-226z" />
<glyph unicode="&#x201e;" horiz-adv-x="921" d="M102 297h297l-71 -645h-226v645zM522 297h297l-71 -645h-226v645z" />
<glyph unicode="&#x2020;" horiz-adv-x="1064" d="M102 788v256h293v410h277v-410h291v-256h-291v-788h-277v788h-293z" />
<glyph unicode="&#x2021;" horiz-adv-x="1064" d="M102 328v256h293v286h-293v256h293v328h277v-328h291v-256h-291v-286h291v-256h-291v-328h-277v328h-293z" />
<glyph unicode="&#x2022;" horiz-adv-x="563" d="M102 553v358h359v-358h-359z" />
<glyph unicode="&#x2026;" horiz-adv-x="1341" d="M102 0v297h297v-297h-297zM522 0v297h297v-297h-297zM942 0v297h297v-297h-297z" />
<glyph unicode="&#x202f;" horiz-adv-x="385" />
<glyph unicode="&#x2030;" horiz-adv-x="3043" d="M102 1018v31q0 86 23 157.5t69.5 128t124.5 88t181 31.5h37q103 0 181 -31.5t124 -88t69 -128t23 -157.5v-31q0 -86 -23 -158t-69 -128.5t-124 -88t-181 -31.5h-37q-103 0 -181 31.5t-124.5 88t-69.5 128.5t-23 158zM379 995q0 -71 31.5 -109t89.5 -38h37q58 0 89 38 t31 109v76q0 71 -31 109.5t-89 38.5h-37q-58 0 -89.5 -38.5t-31.5 -109.5v-76zM573 0l707 1454h297l-707 -1454h-297zM1217 406v30q0 86 23 158t69 128.5t124 88t181 31.5h37q103 0 181 -31.5t124 -88t69 -128.5t23 -158v-30q0 -86 -23 -158t-69 -128.5t-124 -88t-181 -31.5 h-37q-103 0 -181 31.5t-124 88t-69 128.5t-23 158zM1493 383q0 -71 31.5 -109t89.5 -38h37q58 0 89.5 38t31.5 109v76q0 71 -31.5 109t-89.5 38h-37q-58 0 -89.5 -38t-31.5 -109v-76zM2109 406v30q0 86 23 158t69.5 128.5t124.5 88t181 31.5h37q103 0 181 -31.5t124 -88 t69 -128.5t23 -158v-30q0 -86 -23 -158t-69 -128.5t-124 -88t-181 -31.5h-37q-103 0 -181 31.5t-124.5 88t-69.5 128.5t-23 158zM2386 383q0 -71 31.5 -109t89.5 -38h37q58 0 89 38t31 109v76q0 71 -31 109t-89 38h-37q-58 0 -89.5 -38t-31.5 -109v-76z" />
<glyph unicode="&#x2039;" horiz-adv-x="624" d="M102 676l144 368h297l-144 -368l144 -369h-297z" />
<glyph unicode="&#x203a;" horiz-adv-x="624" d="M82 307l143 369l-143 368h297l143 -368l-143 -369h-297z" />
<glyph unicode="&#x2044;" horiz-adv-x="440" d="M-287 0l707 1454h307l-707 -1454h-307z" />
<glyph unicode="&#x205f;" horiz-adv-x="481" />
<glyph unicode="&#x20ac;" horiz-adv-x="1024" d="M123 532v390q0 256 128.5 394t373.5 138h327v-262h-327q-175 0 -213 -168h479v-236h-492v-122h492v-236h-479q20 -81 72.5 -124.5t150.5 -43.5h317v-262h-327q-245 0 -373.5 138t-128.5 394z" />
<glyph unicode="&#x2122;" horiz-adv-x="1832" d="M41 1198v256h655v-256h-188v-471h-277v471h-190zM758 727v727h317l160 -352l158 352h317v-727h-276v295l-93 -234h-215l-92 234v-295h-276z" />
<glyph unicode="&#x2126;" horiz-adv-x="1208" d="M51 0v256h115q-20 42 -29.5 65t-22 83.5t-12.5 127.5v390q0 256 124.5 394t357.5 138h41q233 0 357 -138t124 -394v-390q0 -68 -11.5 -126.5t-22.5 -86t-30 -63.5h115v-256h-502v227q86 28 130 99.5t44 205.5v369q0 297 -204 297h-41q-205 0 -205 -297v-369 q0 -134 44 -205.5t130 -99.5v-227h-502z" />
<glyph unicode="&#x2190;" horiz-adv-x="1171" d="M107 726q0 24 10 42l256 403q25 37 51 37h238q17 0 22.5 -12t-2.5 -27l-170 -305h514q17 0 28 -11t11 -28v-198q0 -17 -11 -28t-28 -11h-514l168 -305q2 -39 -21 -39h-237q-26 0 -51 37l-254 403q-10 17 -10 42z" />
<glyph unicode="&#x2191;" horiz-adv-x="1169" d="M102 653v238q0 26 37 51l404 256q18 10 42 10q25 0 42 -10l403 -254q37 -25 37 -51v-238q0 -10 -9.5 -15t-19.5 -5h-10l-305 168v-516q0 -17 -11 -28t-28 -11h-199q-17 0 -28 11t-11 28v516l-305 -170q-15 -8 -27 -2.5t-12 22.5z" />
<glyph unicode="&#x2192;" horiz-adv-x="1171" d="M106 627v198q0 17 11 28t28 11h514l-170 305q-8 15 -2 27t23 12h238q26 0 51 -37l256 -403q10 -18 10 -42q0 -25 -10 -42l-254 -403q-25 -37 -51 -37h-238q-10 0 -15 10t-5 20v9l167 305h-514q-17 0 -28 11t-11 28z" />
<glyph unicode="&#x2193;" horiz-adv-x="1169" d="M102 561v237q0 10 10 15.5t20 5.5h9l305 -168v516q0 17 11 28t28 11h199q17 0 28 -11t11 -28v-516l305 170q15 8 27 2.5t12 -22.5v-238q0 -26 -37 -51l-403 -256q-18 -10 -43 -10q-24 0 -41 10l-404 254q-37 25 -37 51z" />
<glyph unicode="&#x2196;" horiz-adv-x="1181" d="M145 513q0 8 2 24l105 464q5 19 22 37.5t37 22.5l465 106q14 3 27 3q24 0 37 -13l168 -168q7 -9 3.5 -18t-11.5 -16l-7 -7l-334 -98l365 -365q12 -12 12 -27.5t-12 -27.5l-139 -141q-12 -11 -28 -11t-28 11l-364 366l-96 -336q-6 -17 -18.5 -21.5t-24.5 7.5l-168 168 q-13 16 -13 40z" />
<glyph unicode="&#x2197;" horiz-adv-x="1183" d="M146 457.5q0 15.5 12 27.5l365 365l-335 97l-3 3t-6 7t-6.5 10t-2 11.5t4.5 10.5l168 168q18 18 62 10l465 -105q20 -5 37.5 -23.5t22.5 -36.5l104 -466q8 -44 -10 -62l-168 -168q-12 -12 -24.5 -8t-17.5 21l-96 336l-365 -365q-12 -12 -27.5 -12t-27.5 12l-140 140 q-12 12 -12 27.5z" />
<glyph unicode="&#x2198;" horiz-adv-x="1179" d="M144 988q0 16 10 26l141 141q12 12 27.5 12t27.5 -12l365 -364l96 335q5 16 17 20t24 -7l168 -168q19 -19 10 -62l-104 -467q-5 -18 -22 -35.5t-38 -23.5l-465 -107q-39 -8 -61 11l-168 168q-7 9 -4 18.5t10 16.5l6 8l336 96l-366 367q-10 11 -10 27z" />
<glyph unicode="&#x2199;" horiz-adv-x="1181" d="M149 909q-8 44 10 62l168 168q12 12 24.5 8t17.5 -21l96 -336l364 365q12 12 28 12t28 -12l140 -140q12 -12 12 -27.5t-12 -27.5l-365 -365l335 -97l3 -3t6 -7t6.5 -10t2 -11.5t-4.5 -10.5l-168 -168q-19 -19 -63 -11l-465 106q-20 5 -37 23.5t-22 36.5z" />
<glyph unicode="&#x2202;" horiz-adv-x="1085" d="M102 430v109q0 181 101 293t291 112h213v19q0 235 -246 235h-256v256h266q239 0 375.5 -134.5t136.5 -397.5v-492q0 -207 -111.5 -318.5t-318.5 -111.5h-21q-212 0 -321 112.5t-109 317.5zM379 436q0 -88 35 -134t118 -46h21q79 0 116.5 44.5t37.5 135.5v252h-164 q-81 0 -122.5 -37t-41.5 -127v-88z" />
<glyph unicode="&#x2206;" horiz-adv-x="1355" d="M61 0l463 1454h307l463 -1454h-1233zM438 256h477l-237 766z" />
<glyph unicode="&#x220f;" horiz-adv-x="1515" d="M20 1198v256h1475v-256h-266v-825q0 -62 26 -89.5t78 -27.5h162v-256h-240q-303 0 -303 338v860h-450v-1198h-277v1198h-205z" />
<glyph unicode="&#x2211;" horiz-adv-x="993" d="M82 0v256l250 471l-250 471v256h829v-256h-497l250 -471l-250 -471h497v-256h-829z" />
<glyph unicode="&#x2212;" d="M102 594v246h871v-246h-871z" />
<glyph unicode="&#x2215;" horiz-adv-x="440" d="M-287 0l707 1454h307l-707 -1454h-307z" />
<glyph unicode="&#x2219;" horiz-adv-x="481" d="M102 594v276h277v-276h-277z" />
<glyph unicode="&#x221a;" horiz-adv-x="1177" d="M20 1044h297l195 -712l348 1122h297l-461 -1454h-368z" />
<glyph unicode="&#x221e;" horiz-adv-x="1347" d="M102 676v51q0 146 94 231.5t261 85.5q129 0 217 -75q88 75 217 75q167 0 260.5 -85.5t93.5 -231.5v-51q0 -146 -93.5 -232t-260.5 -86q-128 0 -217 76q-89 -76 -217 -76q-167 0 -261 86t-94 232zM379 686q0 -82 78 -82t78 82v31q0 82 -78 82t-78 -82v-31zM813 686 q0 -82 78 -82t78 82v31q0 82 -78 82t-78 -82v-31z" />
<glyph unicode="&#x2224;" horiz-adv-x="481" d="M102 594v276h277v-276h-277z" />
<glyph unicode="&#x2227;" horiz-adv-x="481" d="M102 594v276h277v-276h-277z" />
<glyph unicode="&#x222b;" horiz-adv-x="686" d="M41 -143h74q36 0 52.5 18t16.5 59v1186q0 93 26 161t71.5 104t97.5 52.5t113 16.5h174v-256h-111q-94 0 -94 -90v-1221q0 -147 -61 -211.5t-183 -64.5h-176v246z" />
<glyph unicode="&#x2248;" d="M102 379v184q12 7 33 17.5t80.5 27.5t112.5 17q74 0 216 -31t208 -31h221v-184q-12 -7 -33 -17.5t-80 -27.5t-112 -17q-73 0 -214 31t-210 31h-222zM102 870v185q12 7 33 17t80.5 27t112.5 17q74 0 216 -30.5t208 -30.5h221v-185q-12 -7 -33 -17t-80 -27t-112 -17 q-73 0 -214 30.5t-210 30.5h-222z" />
<glyph unicode="&#x2260;" d="M102 348v246h273l82 246h-355v245h437l102 308h246l-103 -308h189v-245h-271l-81 -246h352v-246h-434l-103 -307h-246l103 307h-191z" />
<glyph unicode="&#x2264;" d="M102 0v246h871v-246h-871zM102 676v246l871 389v-277l-570 -235l570 -236v-276z" />
<glyph unicode="&#x2265;" d="M102 0v246h871v-246h-871zM102 287v276l570 236l-570 235v277l871 -389v-246z" />
<glyph unicode="&#x22c5;" horiz-adv-x="481" d="M102 594v276h277v-276h-277z" />
<glyph unicode="&#x25af;" d="M123 0v1454h829v-1454h-829zM369 246h338v962h-338v-962z" />
<glyph unicode="&#x25ca;" horiz-adv-x="1388" d="M61 727l512 727h242l512 -727l-512 -727h-242zM389 727l305 -457l305 457l-305 457z" />
<glyph unicode="&#x27a1;" horiz-adv-x="1171" d="M106 418v198q0 17 11 28t28 11h514l-170 306q-8 15 -2 26.5t23 11.5h238q27 0 51 -36l256 -404q10 -18 10 -42q0 -25 -10 -42l-254 -403q-25 -37 -51 -37h-238q-10 0 -15 9.5t-5 19.5v10l167 305h-514q-17 0 -28 11t-11 28z" />
<glyph unicode="&#x2b05;" horiz-adv-x="1171" d="M107 519q0 24 10 42l256 404q24 36 51 36h238q17 0 22.5 -11.5t-2.5 -26.5l-170 -306h514q17 0 28 -11t11 -28v-198q0 -17 -11 -28t-28 -11h-514l168 -305q2 -39 -21 -39h-237q-26 0 -51 37l-254 403q-10 17 -10 42z" />
<glyph unicode="&#x2b06;" horiz-adv-x="1169" d="M102 449v237q0 26 37 51l404 256q18 10 42 10q25 0 42 -10l403 -254q37 -25 37 -51v-237q0 -10 -9.5 -15.5t-19.5 -5.5h-10l-305 168v-516q0 -17 -11 -28t-28 -11h-199q-17 0 -28 11t-11 28v516l-305 -170q-15 -8 -27 -2t-12 23z" />
<glyph unicode="&#x2b07;" horiz-adv-x="1169" d="M102 358v238q0 10 10 15t20 5h9l305 -168v516q0 17 11 28t28 11h199q17 0 28 -11t11 -28v-516l305 170q15 8 27 2.5t12 -22.5v-238q0 -26 -37 -51l-403 -256q-18 -10 -43 -10q-24 0 -41 10l-404 254q-37 25 -37 51z" />
<glyph unicode="&#x2b08;" horiz-adv-x="1185" d="M146 257q0 16 12 28l364 364l-334 99q-1 1 -3 2.5t-6.5 6.5t-7 10t-2 11t4.5 10l168 168q13 13 37 13q19 0 27 -2l464 -107q20 -4 37.5 -22t22.5 -37l104 -465q2 -8 2 -25q0 -27 -12 -39l-168 -168q-12 -12 -24.5 -7.5t-18.5 22.5l-96 336l-365 -367q-12 -10 -27.5 -10 t-27.5 10l-139 141q-12 12 -12 28z" />
<glyph unicode="&#x2b09;" horiz-adv-x="1179" d="M143 308l3 24l104 465q5 19 22.5 37t37.5 22l464 107q9 2 27 2q24 0 37 -13l168 -168q7 -9 3.5 -18t-10.5 -16l-7 -7l-334 -98l364 -364q12 -12 12 -28t-12 -28l-139 -141q-12 -10 -27.5 -10t-27.5 10l-365 367l-96 -336q-6 -18 -18.5 -22.5t-24.5 7.5l-168 168 q-13 16 -13 40z" />
<glyph unicode="&#x2b0a;" horiz-adv-x="1181" d="M146 786q0 16 10 27l141 141q12 12 27.5 12t27.5 -12l365 -364l96 336q5 15 17 19.5t24 -7.5l168 -168q18 -18 10 -61l-104 -467q-5 -18 -22 -36t-38 -24l-465 -106q-40 -8 -61 10l-168 168q-7 9 -4 18.5t10 17.5l6 7l336 96l-366 367q-10 10 -10 26z" />
<glyph unicode="&#x2b0b;" horiz-adv-x="1183" d="M150 709q-8 43 10 61l168 168q12 12 24 7.5t17 -19.5l96 -336l364 364q12 12 28 12t28 -12l141 -141q10 -11 10 -27t-10 -26l-367 -367l336 -96l3 -3t6 -7.5t6.5 -10.5t2 -11.5t-4.5 -10.5l-168 -168q-21 -18 -62 -10l-465 106q-21 6 -37.5 24t-21.5 36z" />
<glyph unicode="&#xe000;" horiz-adv-x="1044" d="M0 0v1044h1044v-1044h-1044z" />
<glyph unicode="&#xfb01;" horiz-adv-x="1085" d="M31 799v245h102v76q0 75 17.5 134t46.5 96t69.5 61t83 33.5t90.5 9.5h154v-256h-90q-94 0 -94 -90v-64h553v-1044h-277v799h-276v-799h-277v799h-102zM686 1178v276h277v-276h-277z" />
<glyph unicode="&#xfb02;" horiz-adv-x="1085" d="M31 799v245h102v76q0 75 17.5 134t46.5 96t69.5 61t83 33.5t90.5 9.5h523v-1454h-277v1198h-182q-94 0 -94 -90v-64h143v-245h-143v-799h-277v799h-102z" />
<glyph unicode="&#xff10;" horiz-adv-x="1024" d="M72 461v532q0 227 108.5 344t321.5 117h20q213 0 321.5 -117t108.5 -344v-532q0 -227 -108.5 -344t-321.5 -117h-20q-213 0 -321.5 117t-108.5 344zM348 471q0 -111 36 -163t118 -52h20q82 0 118 52t36 163v512q0 111 -36 163t-118 52h-20q-82 0 -118 -52t-36 -163v-512z " />
<glyph unicode="&#xff11;" horiz-adv-x="1024" d="M113 0v256h307v913l-307 -10v275l583 20v-1198h267v-256h-850z" />
<glyph unicode="&#xff12;" horiz-adv-x="1024" d="M82 0v311q0 82 19.5 150.5t53 115.5t76 86t90.5 66.5t95.5 51.5t90 46.5t76 46t53 54.5t19.5 69v62q0 67 -46.5 103t-137.5 36h-389v256h393q227 0 342 -97t115 -298v-62q0 -73 -19.5 -132t-53 -99.5t-76.5 -73.5t-90.5 -57.5t-95 -48t-90.5 -49.5t-76.5 -56t-53 -74 t-19.5 -98v-53h574v-256h-850z" />
<glyph unicode="&#xff13;" horiz-adv-x="1024" d="M82 0v256h364q110 0 159.5 39t49.5 117v45q0 83 -54 119t-163 36h-254v256h213q116 0 166.5 38.5t50.5 125.5v33q0 70 -40.5 101.5t-145.5 31.5h-346v256h360q107 0 186 -18.5t140 -60t92 -114.5t31 -178v-45q0 -189 -156 -280q197 -86 197 -305v-58q0 -88 -23.5 -156.5 t-65 -113t-103 -73t-131.5 -40.5t-156 -12h-371z" />
<glyph unicode="&#xff14;" horiz-adv-x="1024" d="M20 256v256q47 71 79 145t49.5 138t26.5 150t11 152t2 173v184h297v-184q0 -130 -2 -203t-11 -158.5t-27 -143.5t-49 -122t-79 -131h277v512h276v-512h134v-256h-134v-256h-276v256h-574z" />
<glyph unicode="&#xff15;" horiz-adv-x="1024" d="M82 0v256h385q121 0 165 46t44 144v50q0 78 -39.5 107.5t-120.5 29.5h-434v821h801v-256h-525v-309h201q393 0 393 -389v-74q0 -231 -122.5 -328.5t-358.5 -97.5h-389z" />
<glyph unicode="&#xff16;" horiz-adv-x="1024" d="M72 430v492q0 263 136.5 397.5t375.5 134.5h307v-256h-297q-246 0 -246 -235v-54h244q360 0 360 -385v-94q0 -205 -109 -317.5t-321 -112.5h-20q-207 0 -318.5 111.5t-111.5 318.5zM348 436q0 -91 37.5 -135.5t116.5 -44.5h20q83 0 118.5 46t35.5 134v74q0 78 -37 110.5 t-107 32.5h-184v-217z" />
<glyph unicode="&#xff17;" horiz-adv-x="1024" d="M51 1198v256h912v-256q0 -97 -20 -179t-52.5 -140t-71 -109.5t-77.5 -99.5t-71.5 -98t-52.5 -116.5t-20 -144.5v-311h-276v311q0 101 20 188t52 148t71 115t78 102t71 96t52 108.5t20 129.5h-635z" />
<glyph unicode="&#xff18;" horiz-adv-x="1024" d="M51 401v41q0 215 176 310q-155 86 -155 278v51q0 187 117 280t313 93h20q196 0 313 -93t117 -280v-51q0 -192 -155 -278q176 -95 176 -310v-41q0 -203 -120 -302t-331 -99h-20q-211 0 -331 99t-120 302zM328 428q0 -84 45 -128t129 -44h20q84 0 129 44t45 128v23 q0 174 -184 174t-184 -174v-23zM348 1028q0 -147 164 -147t164 147v25q0 67 -37.5 106t-116.5 39h-20q-79 0 -116.5 -39t-37.5 -106v-25z" />
<glyph unicode="&#xff19;" horiz-adv-x="1024" d="M72 934v90q0 205 109 317.5t321 112.5h20q207 0 318.5 -111.5t111.5 -318.5v-512q0 -270 -125 -391t-366 -121h-307v256h297q120 0 172.5 62t52.5 184v43h-238q-187 0 -276.5 103.5t-89.5 285.5zM348 950q0 -149 144 -149h184v217q0 91 -37.5 135.5t-116.5 44.5h-20 q-83 0 -118.5 -46t-35.5 -134v-68z" />
</font>
</defs>
</svg>
